<?xml version="1.0" encoding="utf-8"?>
<!-- Generator: Adobe Illustrator 25.2.3, SVG Export Plug-In . SVG Version: 6.00 Build 0)  -->
<svg version="1.1" id="Layer_1" xmlns="http://www.w3.org/2000/svg" xmlns:xlink="http://www.w3.org/1999/xlink" x="0px" y="0px"
	 viewBox="0 0 275.3 225" style="enable-background:new 0 0 275.3 225;" xml:space="preserve">
<style type="text/css">
	.st0{fill:#E6D2D3;}
	.st1{fill:#73080C;}
	.st2{fill:url(#SVGID_1_);}
	.st3{fill:url(#SVGID_2_);}
	.st4{fill:url(#SVGID_3_);}
	.st5{fill:url(#SVGID_4_);}
	.st6{fill:#FFFFFF;}
	.st7{fill:url(#SVGID_5_);}
	.st8{fill:url(#SVGID_6_);}
	.st9{fill:url(#SVGID_7_);}
	.st10{fill:url(#SVGID_8_);}
	.st11{fill:url(#SVGID_9_);}
	.st12{fill:url(#SVGID_10_);}
	.st13{fill:#FF2235;}
	.st14{fill:url(#SVGID_11_);}
	.st15{fill:url(#SVGID_12_);}
	.st16{fill:url(#SVGID_13_);stroke:#3F3D56;stroke-miterlimit:10;}
	.st17{fill:#3F3D56;}
	.st18{fill:url(#SVGID_14_);}
	.st19{fill:url(#SVGID_15_);}
	.st20{fill:url(#SVGID_16_);}
	.st21{fill:#607C1C;}
	.st22{fill:url(#SVGID_17_);}
	.st23{fill:url(#SVGID_18_);}
	.st24{fill:url(#SVGID_19_);}
	.st25{fill:url(#SVGID_20_);}
	.st26{fill:url(#SVGID_21_);}
	.st27{fill:url(#SVGID_22_);}
	.st28{opacity:0.18;fill:#1D2741;enable-background:new    ;}
</style>
<path class="st0" d="M59.8,48.1c-16.3,8.7-33,17.8-44.3,32.4c-6.8,8.8-11.3,19.2-13.8,30c-4.1,18.5-1,39.9,13,52.7
	c4.9,4.4,10.9,7.6,17.1,10c12.8,5,26.6,7.1,40.3,6c11.3-0.9,22.5-3.8,33.7-2.4c13.7,1.7,25.6,9.7,38.3,15c15.8,6.5,33,8.9,50,6.8
	c4.3-0.5,8.6-1.3,12.4-3.5c4.5-2.5,7.8-6.5,11.3-10.3c7.9-8.5,17.4-15.4,27.7-20.6c5.4-2.7,11.2-5,16-8.8
	c12.4-10.1,14.6-28.1,13.8-44.1c-0.7-16-4.3-33.6-17.1-43.3c-2.9-2.1-6-3.8-8.8-6.1c-9.2-7.6-12-20.4-17.9-30.7
	C218.2,7.9,188.6-2.4,162,0.5C123.8,4.6,92.6,30.6,59.8,48.1z"/>
<path class="st1" d="M259.7,111.4c-0.4,3.2-4.3,8.6-9.8,14.6c-9,9.9-22,21.5-29.8,28.4l0,0c-4,3.5-6.7,5.7-6.7,5.7V99.3
	c0,0,9.5-12.1,16.4-12.9c6.9-0.8,20.8,7.3,20.8,7.3S260.8,100.2,259.7,111.4z"/>
<linearGradient id="SVGID_1_" gradientUnits="userSpaceOnUse" x1="1139.4396" y1="1923.3024" x2="1013.6948" y2="2159.9141" gradientTransform="matrix(0.5125 0 0 0.5125 -343.6771 -878.8494)">
	<stop  offset="0" style="stop-color:#000000;stop-opacity:0"/>
	<stop  offset="0.91" style="stop-color:#000000;stop-opacity:0.8"/>
	<stop  offset="1" style="stop-color:#000000"/>
</linearGradient>
<path class="st2" d="M249.9,126c-9,9.9-22,21.5-29.8,28.4c-0.6-1-0.7-2.2-0.7-3.3c-0.2-5.7-0.1-11.5-0.1-17.2
	c0.1-5.6,0.1-11.1,0.4-16.7c0.4-5.1,1-10.4,3.3-15.1c0.5,0.4,1,1,1.3,1.7c3,5.1,4.9,10.7,6.8,16.4c1,2.8,1.8,5.5,2.8,8.3
	c2.1-1.2,4-2.6,5.5-4.5c1.4-1.6,2.7-3.3,4-5c1-1.2,2.7-4.6,4.1-3.2C249.8,117.8,250,122.4,249.9,126z"/>
<rect x="66" y="19" class="st1" width="154.4" height="178.8"/>
<linearGradient id="SVGID_2_" gradientUnits="userSpaceOnUse" x1="969.0287" y1="1663.7477" x2="955.026" y2="1856.0201" gradientTransform="matrix(0.5125 0 0 0.5125 -343.6771 -878.8494)">
	<stop  offset="0" style="stop-color:#000000;stop-opacity:0"/>
	<stop  offset="0.91" style="stop-color:#000000;stop-opacity:0.8"/>
	<stop  offset="1" style="stop-color:#000000"/>
</linearGradient>
<rect x="66" y="19" class="st3" width="154.4" height="178.8"/>
<linearGradient id="SVGID_3_" gradientUnits="userSpaceOnUse" x1="933.5626" y1="-1041.2104" x2="936.8794" y2="-1092.5586" gradientTransform="matrix(0.5125 0 0 -0.5125 -343.6771 -525.7598)">
	<stop  offset="1.000000e-02" style="stop-color:#000000"/>
	<stop  offset="0.1" style="stop-color:#000000;stop-opacity:0.77"/>
	<stop  offset="0.99" style="stop-color:#000000;stop-opacity:0"/>
</linearGradient>
<path class="st4" d="M199.1,27.6L66,39.6c0.6,0,0-16.6,0-20.6h140.4v1.4C206.4,24.4,203.1,27.6,199.1,27.6z"/>
<rect x="66" y="39.6" class="st1" width="154.4" height="178.8"/>
<linearGradient id="SVGID_4_" gradientUnits="userSpaceOnUse" x1="896.3422" y1="1966.3485" x2="476.3495" y2="1967.5841" gradientTransform="matrix(0.5125 0 0 0.5125 -343.6771 -878.8494)">
	<stop  offset="0" style="stop-color:#000000;stop-opacity:0"/>
	<stop  offset="0.91" style="stop-color:#000000;stop-opacity:0.8"/>
	<stop  offset="1" style="stop-color:#000000"/>
</linearGradient>
<rect x="66" y="39.6" class="st5" width="21.9" height="178.8"/>
<rect x="74.6" y="73" class="st6" width="26.7" height="26.7"/>
<rect x="102.7" y="73" class="st6" width="26.7" height="26.7"/>
<rect x="130.8" y="73" class="st6" width="26.7" height="26.7"/>
<rect x="159" y="73" class="st6" width="26.7" height="26.7"/>
<rect x="74.6" y="100.9" class="st6" width="26.7" height="26.7"/>
<rect x="102.7" y="100.9" class="st6" width="26.7" height="26.7"/>
<rect x="130.8" y="100.9" class="st6" width="26.7" height="26.7"/>
<rect x="159" y="100.9" class="st6" width="26.7" height="26.7"/>
<rect x="74.6" y="128.7" class="st6" width="26.7" height="26.7"/>
<rect x="102.7" y="128.7" class="st6" width="26.7" height="26.7"/>
<rect x="130.8" y="128.7" class="st6" width="26.7" height="26.7"/>
<rect x="159" y="128.7" class="st6" width="26.7" height="26.7"/>
<rect x="74.6" y="156.6" class="st6" width="26.7" height="26.7"/>
<rect x="102.7" y="156.6" class="st6" width="26.7" height="26.7"/>
<rect x="130.8" y="156.6" class="st6" width="26.7" height="26.7"/>
<rect x="159" y="156.6" class="st6" width="26.7" height="26.7"/>
<rect x="74.6" y="184.4" class="st6" width="26.7" height="26.7"/>
<rect x="102.7" y="184.4" class="st6" width="26.7" height="26.7"/>
<rect x="130.8" y="184.4" class="st6" width="26.7" height="26.7"/>
<rect x="186.6" y="73" class="st6" width="26.7" height="26.7"/>
<rect x="186.6" y="45.1" class="st6" width="26.7" height="26.7"/>
<rect x="159" y="45.1" class="st6" width="26.7" height="26.7"/>
<rect x="186.6" y="100.9" class="st6" width="26.7" height="26.7"/>
<rect x="186.6" y="128.7" class="st6" width="26.7" height="26.7"/>
<rect x="186.6" y="156.6" class="st6" width="26.7" height="26.7"/>
<path class="st1" d="M77.9,11.8v14.5c0,0.8,1,1.4,2.2,1.4l0,0c1.3,0,2.2-0.7,2.2-1.4V11.8c0-0.8-1-1.4-2.2-1.4l0,0
	C78.9,10.4,77.9,11,77.9,11.8z"/>
<path class="st1" d="M99,11.8v14.5c0,0.8,1,1.4,2.2,1.4l0,0c1.3,0,2.2-0.7,2.2-1.4V11.8c0-0.8-1-1.4-2.2-1.4l0,0
	C100,10.4,99,11,99,11.8z"/>
<path class="st1" d="M120.1,11.8v14.5c0,0.8,1,1.4,2.2,1.4l0,0c1.3,0,2.2-0.7,2.2-1.4V11.8c0-0.8-1-1.4-2.2-1.4l0,0
	C121.1,10.4,120.1,11,120.1,11.8z"/>
<path class="st1" d="M141.3,11.8v14.5c0,0.8,1,1.4,2.2,1.4l0,0c1.3,0,2.2-0.7,2.2-1.4V11.8c0-0.8-1-1.4-2.2-1.4l0,0
	C142.2,10.4,141.3,11,141.3,11.8z"/>
<path class="st1" d="M162.4,11.8v14.5c0,0.8,1,1.4,2.2,1.4l0,0c1.3,0,2.2-0.7,2.2-1.4V11.8c0-0.8-1-1.4-2.2-1.4l0,0
	C163.3,10.4,162.4,11,162.4,11.8z"/>
<path class="st1" d="M183.5,11.8v14.5c0,0.8,1,1.4,2.2,1.4l0,0c1.3,0,2.2-0.7,2.2-1.4V11.8c0-0.8-1-1.4-2.2-1.4l0,0
	C184.4,10.4,183.5,11,183.5,11.8z"/>
<path class="st1" d="M204.2,11.8v14.5c0,0.8,1,1.4,2.2,1.4l0,0c1.3,0,2.2-0.7,2.2-1.4V11.8c0-0.8-1-1.4-2.2-1.4l0,0
	C205.1,10.4,204.2,11,204.2,11.8z"/>
<rect x="220.3" y="19" class="st1" width="3.5" height="199.4"/>
<linearGradient id="SVGID_5_" gradientUnits="userSpaceOnUse" x1="1193.0698" y1="1762.6042" x2="857.6154" y2="1814.7908" gradientTransform="matrix(0.5125 0 0 0.5125 -343.6771 -791.718)">
	<stop  offset="0" style="stop-color:#000000;stop-opacity:0"/>
	<stop  offset="0.91" style="stop-color:#000000;stop-opacity:0.8"/>
	<stop  offset="1" style="stop-color:#000000"/>
</linearGradient>
<rect x="220.3" y="19" class="st7" width="3.5" height="199.4"/>
<linearGradient id="SVGID_6_" gradientUnits="userSpaceOnUse" x1="988.4836" y1="1807.1056" x2="989.8662" y2="1828.0876" gradientTransform="matrix(0.5125 0 0 0.5125 -343.6771 -878.8494)">
	<stop  offset="2.663895e-07" style="stop-color:#183866"/>
	<stop  offset="1" style="stop-color:#1A7FC1"/>
</linearGradient>
<path class="st8" d="M165.2,49.1c0,1.2-1,2.1-2.1,2.1s-2.1-1-2.1-2.1s1-2.1,2.1-2.1l0,0C164.2,47,165.2,47.9,165.2,49.1z"/>
<linearGradient id="SVGID_7_" gradientUnits="userSpaceOnUse" x1="988.4891" y1="1861.4319" x2="989.8718" y2="1882.4213" gradientTransform="matrix(0.5125 0 0 0.5125 -343.6771 -878.8494)">
	<stop  offset="0" style="stop-color:#183866"/>
	<stop  offset="1" style="stop-color:#1A7FC1"/>
</linearGradient>
<path class="st9" d="M165.2,76.9c0,1.2-1,2.1-2.1,2.1s-2.1-1-2.1-2.1s1-2.1,2.1-2.1l0,0C164.2,74.8,165.2,75.7,165.2,76.9z"/>
<linearGradient id="SVGID_8_" gradientUnits="userSpaceOnUse" x1="998.5356" y1="1861.4363" x2="999.9109" y2="1882.4255" gradientTransform="matrix(0.5125 0 0 0.5125 -343.6771 -878.8494)">
	<stop  offset="0" style="stop-color:#183866"/>
	<stop  offset="1" style="stop-color:#1A7FC1"/>
</linearGradient>
<path class="st10" d="M170.3,76.9c0,1.2-1,2.1-2.1,2.1s-2.1-1-2.1-2.1s1-2.1,2.1-2.1l0,0C169.4,74.8,170.3,75.7,170.3,76.9z"/>
<linearGradient id="SVGID_9_" gradientUnits="userSpaceOnUse" x1="1008.7241" y1="1861.4351" x2="1010.0993" y2="1882.4244" gradientTransform="matrix(0.5125 0 0 0.5125 -343.6771 -878.8494)">
	<stop  offset="0" style="stop-color:#183866"/>
	<stop  offset="1" style="stop-color:#1A7FC1"/>
</linearGradient>
<path class="st11" d="M175.5,76.9c0,1.2-1,2.1-2.1,2.1c-1.2,0-2.1-1-2.1-2.1s1-2.1,2.1-2.1l0,0C174.6,74.8,175.5,75.7,175.5,76.9z"
	/>
<linearGradient id="SVGID_10_" gradientUnits="userSpaceOnUse" x1="988.4839" y1="1970.8425" x2="989.8665" y2="1991.8319" gradientTransform="matrix(0.5125 0 0 0.5125 -343.6771 -878.8494)">
	<stop  offset="0" style="stop-color:#183866"/>
	<stop  offset="1" style="stop-color:#1A7FC1"/>
</linearGradient>
<path class="st12" d="M165.2,133c0,1.2-1,2.1-2.1,2.1c-1.2,0-2.1-1-2.1-2.1c0-1.2,1-2.1,2.1-2.1l0,0
	C164.2,130.9,165.2,131.8,165.2,133L165.2,133z"/>
<circle class="st13" cx="79.1" cy="133" r="2.1"/>
<linearGradient id="SVGID_11_" gradientUnits="userSpaceOnUse" x1="998.5305" y1="1970.8474" x2="999.9057" y2="1991.8367" gradientTransform="matrix(0.5125 0 0 0.5125 -343.6771 -878.8494)">
	<stop  offset="0" style="stop-color:#183866"/>
	<stop  offset="1" style="stop-color:#1A7FC1"/>
</linearGradient>
<path class="st14" d="M170.3,133c0,1.2-1,2.1-2.1,2.1s-2.1-1-2.1-2.1c0-1.2,1-2.1,2.1-2.1l0,0C169.4,130.9,170.3,131.8,170.3,133
	L170.3,133z"/>
<linearGradient id="SVGID_12_" gradientUnits="userSpaceOnUse" x1="1008.7189" y1="1970.8463" x2="1010.0941" y2="1991.8356" gradientTransform="matrix(0.5125 0 0 0.5125 -343.6771 -878.8494)">
	<stop  offset="0" style="stop-color:#183866"/>
	<stop  offset="1" style="stop-color:#1A7FC1"/>
</linearGradient>
<path class="st15" d="M175.5,133c0,1.2-1,2.1-2.1,2.1c-1.2,0-2.1-1-2.1-2.1c0-1.2,1-2.1,2.1-2.1l0,0
	C174.6,130.9,175.5,131.8,175.5,133L175.5,133z"/>
<linearGradient id="SVGID_13_" gradientUnits="userSpaceOnUse" x1="1187.5634" y1="1886.2042" x2="1119.2928" y2="1859.5814" gradientTransform="matrix(0.5125 0 0 0.5125 -343.6771 -878.8494)">
	<stop  offset="2.663895e-07" style="stop-color:#ECC4D7"/>
	<stop  offset="0.16" style="stop-color:#EDCBD5"/>
	<stop  offset="0.42" style="stop-color:#EFD4D1"/>
	<stop  offset="0.7" style="stop-color:#F2EAC9"/>
</linearGradient>
<path class="st16" d="M259.4,76c-0.6,2.4,0.2,5.8-1,8c-1.9,3.8-7.4,6.2-8.2,10.3c-0.1,0.2-6.2,3.2-9.3,2.2c-1.7-0.5-2.5-2.1-1.3-5.8
	c0.4-1.1,2.6-1.5,3.2-2.6l-0.1-0.1c-3.1-2.3-3.4-7.2-2.8-10.4c0.7-3.2,2.1-6.4,3.7-9.4c1.2-2.3,3.9-3.5,6.5-3.5
	c3.2,0.1,6.7,1.4,8.4,4.1C259.9,70.9,260,73.6,259.4,76z"/>
<path class="st17" d="M244.3,58.4c-1.7,0.9-3.5,1.9-5.3,1.6c-0.1,0.9,0.3,1.8,1,2.4l-1.2,0.3c-0.1,0-0.2,0.1-0.2,0.1s0,0.1,0,0.2
	c0.3,0.7,0.7,1.3,1.3,1.6c-0.2,0.4-1,0.4-1.3,0.7c-0.1,0.2-0.1,0.5,0,0.7c0.3,0.7,0.7,1.3,1.3,1.8c-0.7,0.7-0.3,2.1,0.7,2.5
	c1,0.3,2.1-0.3,2.4-1.3c0.1,0.4-0.1,0.9-0.3,1.3c3.2,0.5,6.5,1,9.5-0.4c-0.1,0.3-0.2,0.7-0.2,1c0.7,0.2,1.5,0.3,2.2,0.1
	c0.1,1.5,0,3.1-0.4,4.6c-0.3,1-0.7,1.8-0.8,2.8c-0.2,1-0.1,2,0.5,2.8c0.5-0.1,0.9-0.5,1-1c0.1-0.5,0.4-1,0.6-1.4
	c0.7-0.9,2.4-0.6,2.9,0.4c0.6,1,0.4,2.3-0.2,3.2c-0.7,1.2-1.9,2-3.2,2.3c0.1,1,0.2,2.1,0.4,3.2c2-1.9,4.2-3.5,6-5.6
	c1.8-2.1,3.2-4.7,2.9-7.4c-0.1-1.7-0.9-3.2-1-4.9c0-0.7,0.1-1.5,0.1-2.3c-0.1-2.5-1.8-4.6-4.1-5.4c-1-0.3-2-0.4-2.9-1
	c-1-0.7-1.6-2-2.6-2.6c-1.1-0.7-2.9-1-4.2-1.5C247.6,56.9,245.9,57.6,244.3,58.4z"/>
<linearGradient id="SVGID_14_" gradientUnits="userSpaceOnUse" x1="1100.0063" y1="1906.8114" x2="1112.4573" y2="1906.8114" gradientTransform="matrix(0.5125 0 0 0.5125 -343.6771 -878.8494)">
	<stop  offset="0" style="stop-color:#ECC4D7"/>
	<stop  offset="0.42" style="stop-color:#EFD4D1"/>
	<stop  offset="1" style="stop-color:#F2EAC9"/>
</linearGradient>
<path class="st18" d="M220.6,94c-0.3,0.1-0.4,0.4-0.5,0.7c0,0.4,0.3,0.6,0.6,0.7c0.3,0.1,0.7,0.1,1-0.1l1.9-0.4
	c-1,0.6-1.9,1.4-2.5,2.4c-0.1,0.2-0.1,0.5,0,0.8c0.2,0.3,0.7,0.2,1,0.1l1.7-0.7l-1.1,1.1c-0.4,0.3-0.7,0.7-0.9,1.1
	c-0.1,0.2-0.2,0.4-0.2,0.6c-0.1,0.3,0.1,0.6,0.4,0.7c0.1,0,0.1,0,0.3,0c0.7-0.2,1.3-0.5,1.9-1c-0.4,0.6-0.9,1.1-1.4,1.6
	s-0.8,1.2-0.8,1.9c0,0.1,0,0.1,0.1,0.2s0.1,0.1,0.2,0.1c0.6,0.1,1.2-0.4,1.6-0.7l1.7-1.5c0.3-0.2,0.5-0.5,0.7-0.8
	c0.1-0.1,0.1-0.4,0.2-0.6c0-0.4-0.4-0.7-0.8-0.7l0,0c-0.1,0-0.2,0.1-0.4,0.1c0.1-0.3,0.1-0.7,0.2-1c0.1-0.3,0.1-0.7-0.1-1
	c-0.1-0.3-0.5-0.4-0.8-0.3c0.2-0.4,0.3-0.8,0.4-1.3c0.1-0.4-0.1-0.9-0.6-1.1c-0.1-0.1-0.2-0.1-0.3-0.1c-0.1-0.2,0-0.4,0-0.7
	c0.2-0.6-0.1-1.2-0.7-1.4l0,0l0,0c-0.1-0.1-0.3-0.1-0.4-0.1C222.2,92.9,221.4,93.5,220.6,94z"/>
<path class="st1" d="M251.5,108.2c4.3-3.8,9.7-1,7.8,4.6c-4,11.8-12.6,39-20.7,39c-10.6,0-14.9-18.7-14.9-18.7l4.9-9.9
	c0,0,6.9,15.1,10.4,11c3.5-4.1,5.5-19.6,12.3-25.7L251.5,108.2z"/>
<linearGradient id="SVGID_15_" gradientUnits="userSpaceOnUse" x1="1104.6833" y1="1949.2076" x2="1115.0758" y2="1949.2076" gradientTransform="matrix(0.5125 0 0 0.5125 -343.6771 -878.8494)">
	<stop  offset="0" style="stop-color:#ECC4D7"/>
	<stop  offset="0.42" style="stop-color:#EFD4D1"/>
	<stop  offset="1" style="stop-color:#F2EAC9"/>
</linearGradient>
<path class="st19" d="M227.1,122.5c-0.1-0.9-0.1-1.8-0.1-2.6c0-3.8-1.2-7.6-3.2-10.8c-0.2,0.3-0.3,0.7-0.3,1.1l0.1,10
	c0,0.8,0,1.7-0.1,2.5c-0.1,0.6-0.4,1.2-0.5,1.8c-0.4,1.3-0.5,2.5-0.4,3.8c0,0.7,0.2,1.3,0.5,1.9c0.4,0.6,1,1,1.6,1.1
	c0.2,0,1.1-1.9,1.3-2.1c0.4-0.7,0.8-1.5,1.1-2.3c0.3-0.6,0.8-1.5,0.7-2.1C227.7,124,227.2,123.3,227.1,122.5z"/>
<linearGradient id="SVGID_16_" gradientUnits="userSpaceOnUse" x1="1140.4568" y1="1897.783" x2="1112.1205" y2="1931.0615" gradientTransform="matrix(0.5125 0 0 0.5125 -343.6771 -878.8494)">
	<stop  offset="0" style="stop-color:#ECD2D7"/>
	<stop  offset="0.42" style="stop-color:#EFD4D1"/>
	<stop  offset="1" style="stop-color:#F2EAC9"/>
</linearGradient>
<path class="st20" d="M247.2,90.7c-0.9,1-1.8,2.1-2.7,3.1c-0.7,0.9-1.5,1.6-2.4,2.3c-0.4,0.2-0.7,0.4-1.2,0.5
	c-1.7-0.5-2.5-2.1-1.3-5.8c0.4-1.1,2.6-1.5,3.2-2.6l-0.1-0.1c0.4,0.2,0.9,0.4,1.4,0.4c1,0.1,3.4-0.6,3.7,0.8
	C248,89.8,247.6,90.3,247.2,90.7z"/>
<path class="st1" d="M137.7,169.6l3.8,5.9c0.4,0.5,1.1,0.7,1.6,0.4c0.1-0.1,0.1-0.1,0.2-0.2l10.4-12.1c0.4-0.5,0.4-1.3-0.1-1.7
	c-0.2-0.2-0.5-0.3-0.7-0.3h-0.1c-0.4,0-0.7,0.1-0.9,0.4l-8.2,9.8c-0.4,0.5-1.2,0.6-1.6,0.1c-0.1-0.1-0.1-0.1-0.2-0.3l-2.2-3.4
	c-0.2-0.4-0.7-0.6-1.2-0.5l0,0c-0.7,0.1-1.1,0.7-1,1.3C137.5,169.4,137.6,169.5,137.7,169.6L137.7,169.6z"/>
<path class="st1" d="M91.9,199.4l4.8,4.7c0.4,0.4,0.4,1.3,0,1.7c-0.2,0.2-0.5,0.4-0.9,0.4h-0.2c-0.3,0-0.6-0.1-0.8-0.4l-4.6-4.6
	c-0.4-0.4-1.3-0.4-1.7,0l-4.6,4.6c-0.2,0.2-0.5,0.4-0.8,0.4h-0.2c-0.7,0-1.2-0.5-1.2-1.2c0-0.3,0.1-0.6,0.4-0.9l4.8-4.7
	c0.4-0.4,0.4-1.2,0-1.7l0,0l-4.9-4.9c-0.4-0.4-0.4-1.3,0-1.7c0.2-0.2,0.5-0.4,0.8-0.4l0,0c0.3,0,0.6,0.1,0.8,0.4l4.9,4.9
	c0.4,0.4,1.2,0.4,1.7,0l4.9-4.9c0.2-0.2,0.5-0.4,0.8-0.4l0,0c0.7,0,1.2,0.5,1.2,1.2c0,0.3-0.1,0.6-0.4,0.8l-4.9,4.9
	C91.4,198.3,91.4,199,91.9,199.4L91.9,199.4L91.9,199.4z"/>
<polygon class="st1" points="49.3,184.7 50.4,184.7 51,211.1 50.4,206.7 49.3,206.7 "/>
<path class="st21" d="M49.6,196.3"/>
<path class="st1" d="M50.4,194.3L50.4,194.3c0,0.9-0.3,1.7-0.6,2.6c-2.1,0.6-3.5,1.1-5.4-1c-2-2.1-4.1-6.1-3.5-8.2
	c2.1-0.6,6.1,1.5,8.1,3.7C50.1,192.5,50.4,193.4,50.4,194.3z"/>
<path class="st1" d="M56.5,196c-1.8,1.8-3.2,1.5-4.9,1v9.8h-1.2v-22.1h1.2v7c0.1-0.1,0.2-0.2,0.4-0.4c2.1-2,6.1-4.1,8.2-3.5
	C60.7,189.9,58.5,193.9,56.5,196z"/>
<linearGradient id="SVGID_17_" gradientUnits="userSpaceOnUse" x1="773.8732" y1="-1431.0233" x2="778.4329" y2="-1391.6775" gradientTransform="matrix(0.5125 0 0 -0.5125 -343.6771 -525.7598)">
	<stop  offset="0.1" style="stop-color:#000000;stop-opacity:0.77"/>
	<stop  offset="0.99" style="stop-color:#000000;stop-opacity:0"/>
</linearGradient>
<path class="st22" d="M56.5,196c-1.8,1.8-3.2,1.5-4.9,1v9.8h-1.2v-22.1h1.2v7c0.1-0.1,0.2-0.2,0.4-0.4c2.1-2,6.1-4.1,8.2-3.5
	C60.7,189.9,58.5,193.9,56.5,196z"/>
<path class="st1" d="M50.4,179.4h-5.2c0,3.7,2.4,6.7,5.2,6.7l1.3-3.3L50.4,179.4z"/>
<path class="st1" d="M50.5,180.6L50.5,180.6l-0.1-0.3L50.5,180.6z"/>
<path class="st1" d="M40.5,171.8c-0.7,2.1,1.4,6.1,3.5,8.2c2.1,2.1,3.4,1.6,5.4,1c0.7-2.1,1.3-3.5-0.8-5.5
	C46.5,173.4,42.6,171.2,40.5,171.8z"/>
<path class="st1" d="M56.1,179.9c-0.1,0.1-0.4,0.3-0.5,0.4c-0.4,3.2-2.6,5.6-5.1,5.6v-5.4l0.1-0.1l-0.1-0.3v0.4
	c-0.1,0.1-0.2,0.1-0.4,0.2c-1.8-1.1-3.4-4.5-3.2-7.4c0.1-2.9,1.6-7.2,3.5-8.2c1.8,1.1,3.1,5.4,2.9,8.4v0.2c2.1-1.5,4.9-2.6,6.5-2.1
	C60.3,173.9,58.2,178,56.1,179.9z"/>
<linearGradient id="SVGID_18_" gradientUnits="userSpaceOnUse" x1="791.0165" y1="-1370.6729" x2="767.615" y2="-1368.3931" gradientTransform="matrix(0.5125 0 0 -0.5125 -343.6771 -525.7598)">
	<stop  offset="0.1" style="stop-color:#000000;stop-opacity:0.77"/>
	<stop  offset="0.99" style="stop-color:#000000;stop-opacity:0"/>
</linearGradient>
<path class="st23" d="M56.1,179.9c-0.1,0.1-0.4,0.3-0.5,0.4c-0.4,3.2-2.6,5.6-5.1,5.6v-5.4l0.1-0.1l-0.1-0.3v0.4
	c-0.1,0.1-0.2,0.1-0.4,0.2c-1.8-1.1-3.4-4.5-3.2-7.4c0.1-2.9,1.6-7.2,3.5-8.2c1.8,1.1,3.1,5.4,2.9,8.4v0.2c2.1-1.5,4.9-2.6,6.5-2.1
	C60.3,173.9,58.2,178,56.1,179.9z"/>
<path class="st1" d="M50.5,180.6L50.5,180.6l-0.1-0.3L50.5,180.6z"/>
<polygon class="st1" points="40.1,203.3 41.9,218.2 50.4,218.2 53.9,209.7 50.4,203 "/>
<polygon class="st1" points="60.8,203.3 59,218.2 50.4,218.2 50.4,203 "/>
<path class="st1" d="M54.3,203L54.3,203l-2.9,1.5l-0.8,0.4H39c-0.7,0-1.3-0.6-1.3-1.3v-3.3c0-0.7,0.5-1.2,1.2-1.2l0,0h0.1h11.5
	L54.3,203z"/>
<linearGradient id="SVGID_19_" gradientUnits="userSpaceOnUse" x1="761.0019" y1="-1371.5586" x2="760.1929" y2="-1424.0687" gradientTransform="matrix(0.5125 0 0 -0.5125 -343.6771 -525.7598)">
	<stop  offset="0.36" style="stop-color:#000000;stop-opacity:0.77"/>
	<stop  offset="0.99" style="stop-color:#000000;stop-opacity:0"/>
</linearGradient>
<path class="st24" d="M54.3,203L54.3,203l-2.9,1.5l-0.8,0.4H39c-0.7,0-1.3-0.6-1.3-1.3v-3.3c0-0.7,0.5-1.2,1.2-1.2l0,0h0.1h11.5
	L54.3,203z"/>
<path class="st1" d="M61.9,204.9H50.4v-6h11.5c0.7,0,1.3,0.6,1.3,1.3v3.3C63.2,204.3,62.7,204.9,61.9,204.9z"/>
<linearGradient id="SVGID_20_" gradientUnits="userSpaceOnUse" x1="758.8239" y1="-1415.7581" x2="759.6548" y2="-1443.6458" gradientTransform="matrix(0.5125 0 0 -0.5125 -343.6771 -525.7598)">
	<stop  offset="1.000000e-02" style="stop-color:#000000"/>
	<stop  offset="0.1" style="stop-color:#000000;stop-opacity:0.77"/>
	<stop  offset="0.99" style="stop-color:#000000;stop-opacity:0"/>
</linearGradient>
<polygon class="st25" points="50.4,204.9 50.4,218.2 41.9,218.2 40.3,204.9 "/>
<linearGradient id="SVGID_21_" gradientUnits="userSpaceOnUse" x1="787.3876" y1="-1419.8076" x2="769.3694" y2="-1453.5568" gradientTransform="matrix(0.5125 0 0 -0.5125 -343.6771 -525.7598)">
	<stop  offset="1.000000e-02" style="stop-color:#000000"/>
	<stop  offset="0.1" style="stop-color:#000000;stop-opacity:0.77"/>
	<stop  offset="0.99" style="stop-color:#000000;stop-opacity:0"/>
</linearGradient>
<polygon class="st26" points="60.6,204.9 59,218.2 50.4,218.2 50.4,204.9 "/>
<linearGradient id="SVGID_22_" gradientUnits="userSpaceOnUse" x1="788.3996" y1="-1395.3354" x2="777.8461" y2="-1431.7837" gradientTransform="matrix(0.5125 0 0 -0.5125 -343.6771 -525.7598)">
	<stop  offset="0.1" style="stop-color:#000000;stop-opacity:0.77"/>
	<stop  offset="0.99" style="stop-color:#000000;stop-opacity:0"/>
</linearGradient>
<path class="st27" d="M63.2,200.5v3.3c0,0.7-0.6,1.3-1.3,1.3H50.4v-6h11.5C62.7,199.1,63.2,199.7,63.2,200.5z"/>
<path class="st28" d="M42.9,218.3l-21.6,4.1c-0.7,0-1.3,0.6-1.3,1.3c0,0.7,0.6,1.3,1.3,1.3c0.1,0,0.1,0,0.2,0h0.1h244.2
	c0.7,0,1.3-0.5,1.4-1.3c0-0.7-0.5-1.3-1.2-1.4l-31.6-4h-0.1l-191.1-0.2C43.1,218.2,43,218.2,42.9,218.3z"/>
</svg>
