<?xml version="1.0" encoding="utf-8"?>
<!-- Generator: Adobe Illustrator 25.2.3, SVG Export Plug-In . SVG Version: 6.00 Build 0)  -->
<svg version="1.1" id="calendar-icon"
	 xmlns="http://www.w3.org/2000/svg" xmlns:xlink="http://www.w3.org/1999/xlink" x="0px" y="0px" viewBox="0 0 45 45"
	 style="enable-background:new 0 0 45 45;" xml:space="preserve">
<style type="text/css">
	.st0{fill-rule:evenodd;clip-rule:evenodd;fill:#73080C;}
</style>
<g id="Camada_x0020_1">
	<g id="_2111632098672">
		<path class="st0" d="M30.3,32.8c0.1-0.1,0.1-0.1,0.6-0.1l1.8,0c0.6,0,2.1-0.1,2.5,0.1l0,4.6c-0.3,0.1-3.8,0.1-4.6,0.1
			c-0.3,0-0.2,0-0.3-0.1C30.3,37.4,30.3,32.8,30.3,32.8z M23.4,32.8c0.4-0.1,4.6-0.1,5,0l0,4.7c-0.4,0.1-4.6,0.1-5,0
			C23.5,37.5,23.4,32.8,23.4,32.8z M16.6,32.8c0.4-0.1,4.6-0.1,5,0l0,4.7c-0.4,0.1-4.6,0.1-5,0C16.6,37.5,16.6,32.8,16.6,32.8z
			 M14.7,32.8l0,4.6c-0.1,0.1,0.1,0.1-0.3,0.1l-2.2,0c-0.6,0-2.1,0.1-2.5-0.1l0-4.6c0.3-0.1,3.8-0.1,4.6-0.1
			C14.6,32.7,14.6,32.8,14.7,32.8z M30.3,26.3c0.1-0.1,0-0.1,0.3-0.1l2.2,0c0.5,0,2.1-0.1,2.5,0.1l0,4.5c0,0.3,0,0.1-0.1,0.2l-4.8,0
			C30.4,30.9,30.3,26.3,30.3,26.3z M23.5,26.3c0.4-0.1,4.2-0.1,4.9,0c0.1,0.4,0.1,4.2,0,4.7l-4.9,0L23.5,26.3z M16.6,26.3
			c0.3-0.1,4.6-0.1,4.9,0l0,4.6c-0.4,0.1-4.6,0.1-4.9,0C16.6,30.9,16.6,26.3,16.6,26.3z M14.7,26.3l0,4.6l-4.8,0
			c-0.2-0.1-0.1,0.1-0.1-0.2l0-4.5c0.4-0.2,2.9-0.1,3.7-0.1C13.4,26.2,14.7,26.3,14.7,26.3z M30.4,19.7l4.8,0
			c0.1,0.1,0.1-0.2,0.1,0.2l0,4.5c-0.4,0.2-4.6,0.1-4.9,0c-0.1-0.3-0.1-2.9-0.1-3.5l0-0.9C30.3,19.6,30.3,19.8,30.4,19.7z
			 M23.5,19.7c0.4-0.1,4.6-0.1,4.9,0l0,4.6c-0.4,0.1-4.6,0.1-4.9,0C23.5,24.3,23.5,19.7,23.5,19.7z M16.6,19.7
			c0.4-0.1,4.6-0.1,4.9,0l0,4.6c-0.4,0.1-4.6,0.1-4.9,0C16.6,24.3,16.6,19.7,16.6,19.7z M9.9,19.7l4.8,0c0.2,0.1,0.1,0.7,0.1,1.1
			c0,0.4,0,0.8,0,1.3c0,0.5,0.1,2-0.1,2.4c-0.4,0.1-4.5,0.1-4.9,0c-0.1-0.5,0-2.7,0-3.5c0-0.2,0-0.4,0-0.6c0-0.1,0-0.3,0-0.3
			C9.8,19.6,9.7,19.8,9.9,19.7z M0.1,43.4c0.1,2,3,1.6,4.4,1.6l36.2,0c1.4,0,4.2,0.4,4.3-1.6l0-22c0-0.9,0.1-6.9,0-7.3l-44.8,0
			c-0.1,0.4,0,6.3,0,7.2C0,21.4,0.1,43.4,0.1,43.4z"/>
		<path class="st0" d="M33.3,1.9l1.9,0c0.1,0.4,0.1,5.1,0,5.6l-1.9,0C33.3,7.5,33.3,1.9,33.3,1.9z M9.8,7.5C9.7,7,9.7,2.3,9.8,1.9
			l1.9,0l0,5.6C11.7,7.5,9.8,7.5,9.8,7.5z M2.2,3.8c-0.9,0-1.5,0.3-1.9,0.8C-0.1,5.2,0,6.1,0,6.9c0,1.7,0,3.5,0,5.3l45,0
			c0-1.7,0-3.5,0-5.2c0-1.3,0.3-3.2-2.2-3.2c-1.6,0-4.1,0.1-5.6,0c0-1.1,0.1-2.3-0.4-3C36.5,0.3,35.9,0,35,0c-1.4,0-2.7-0.2-3.4,0.9
			c-0.5,0.7-0.3,1.7-0.3,2.9l-17.6,0c0-1.1,0.1-2.3-0.4-3C12.9,0.3,12.4,0,11.5,0c-1.3,0-2.3-0.1-3.1,0.5c-0.8,0.7-0.6,2-0.6,3.2
			C7.8,3.8,2.2,3.8,2.2,3.8z"/>
	</g>
</g>
</svg>
