<?xml version="1.0" encoding="utf-8"?>
<!-- Generator: Adobe Illustrator 25.2.3, SVG Export Plug-In . SVG Version: 6.00 Build 0)  -->
<svg version="1.1" id="Layer_1" xmlns="http://www.w3.org/2000/svg" xmlns:xlink="http://www.w3.org/1999/xlink" x="0px" y="0px"
	 viewBox="0 0 406 225" style="enable-background:new 0 0 406 225;" xml:space="preserve">
<style type="text/css">
	.st0{opacity:0.18;fill:#73080C;enable-background:new    ;}
	.st1{fill:#73080C;}
	.st2{fill:#FFFFFF;}
	.st3{fill:#703D1B;}
	.st4{fill:#404040;}
	.st5{fill:url(#SVGID_1_);}
	.st6{fill:#F7AF87;}
	.st7{fill:url(#SVGID_2_);}
	.st8{fill:url(#SVGID_3_);}
	.st9{fill:url(#SVGID_4_);}
	.st10{fill:url(#SVGID_5_);}
	.st11{fill:url(#SVGID_6_);}
</style>
<path class="st0" d="M126.8,110.3c0,35-28.4,63.4-63.4,63.4c-11.2,0-22.3-3-32-8.6l2.6,2.3L2.9,178.1l10.5-28.8
	c-21.5-27.6-16.6-67.4,11-89c27.6-21.5,67.4-16.6,89,11C122,82.5,126.8,96.2,126.8,110.3z"/>
<path class="st1" d="M52.6,131.7c0,0-17.4,0.4-26.3,14.9c0,0-4.6,20.7-4,25.1l11.4-5.2c0.3,0.9,17.1,7.6,31.8,6.9
	c27-1.2,39.2-14.9,39.2-14.9s-2.9-19.4-18.9-23.8S52.6,131.7,52.6,131.7z"/>
<path class="st2" d="M52.5,130.8c0,0-3.8,0.6-3.6,3.3s0.6,10.9,4.8,9s7.8-7.9,7.8-7.9L52.5,130.8z"/>
<path class="st2" d="M72.1,130.8c0,0,3.8,0.6,3.7,3.3c-0.1,2.7-0.6,10.9-4.8,9s-7.8-7.9-7.8-7.9L72.1,130.8z"/>
<path class="st3" d="M38.2,91.4c0,0-4.3,27.1,6.5,30.6c2.4,1.4,5.2,1.8,7.9,1v8.6c0,0,10.9,8.2,19.8-0.6v-22.1c0,0-1-13.5-3.7-12.1
	c-0.6,0.3-6.1-0.2-7-10.1c0,0-12.5-5.6-18.3-1.7C37.6,88.9,38.2,91.4,38.2,91.4z"/>
<path class="st4" d="M35.6,90.5c1.3,2.4,3.6,4.2,6.2,4.9c2.7,0.6,5.5-0.5,7-2.9c2.2,3.1,6.5,4.1,9.9,2.2c1.4,2,4.2,2.6,6.6,2.4
	c3.1-0.1,6.1-1.4,8.5-3.5c2.3-2.2,3.4-5.3,3-8.5c-0.5-3.6-3.3-6.6-6.2-8.7c-4.6-3.5-10.1-5.8-15.9-6.5c-5.2-0.6-13.6,0-17.6,3.9
	S32.7,85.7,35.6,90.5z"/>
<linearGradient id="SVGID_1_" gradientUnits="userSpaceOnUse" x1="63.0373" y1="925.3633" x2="55.5872" y2="895.3233" gradientTransform="matrix(1.0109 0 0 1.0109 -4.2783 -801.0129)">
	<stop  offset="0" style="stop-color:#000000;stop-opacity:0"/>
	<stop  offset="0.99" style="stop-color:#000000"/>
</linearGradient>
<path class="st5" d="M52.6,123.1c0,0,6.6-1.7,9-4.8c0,0-3.4,13.2-9,13.3V123.1z"/>
<path class="st4" d="M66,93.4l0.5,9.4l1.9-2.6c0.3-0.4,0.7-0.8,1.1-0.7s0.6,0.4,0.7,0.7c1.5,3.1,1,6.8-1.4,9.3
	c-0.4,0.3-0.7,0.8-1,1.2c-0.1,0.4-0.1,0.8-0.1,1.3c0.2,2.7,4.2,5.9,4.9,4c0.7-2,0.8-4.1,1.5-6.1c1-2.6,2.5-5,4.3-7.1s3.2-4.6,4-7.2
	c0.7-2.7,0.1-5.9-2-7.6c-0.4-0.3-0.8-0.6-1-1c-0.1-0.3-0.2-0.7-0.2-1c-0.2-3.4-1.6-6.5-3.9-9s-5.6-3.8-9-3.7c-0.6,0-1.1,0.1-1.6,0.4
	c-0.9,0.7-1.6,1.7-1.7,2.8c-1.1,5.1,1.3,10.1,2.1,15.2"/>
<path class="st0" d="M267,110.3c0,35-28.4,63.4-63.4,63.4c-11.2,0-22.2-3-31.9-8.6l2.6,2.3l-31.1,10.7l10.5-28.8
	c-21.5-27.6-16.6-67.4,11-89c27.6-21.5,67.4-16.6,89,11C262.2,82.5,266.9,96.2,267,110.3L267,110.3z"/>
<path class="st1" d="M192.5,131.7c0,0-17.4,0.4-26.3,14.9c0,0-6.1,20.8-5.5,25.3l13.5-4.4c6.7,3.8,16.8,6.6,31.1,6
	c27-1.2,39.2-14.9,39.2-14.9s-2.9-19.4-18.9-23.8S192.5,131.7,192.5,131.7z"/>
<path class="st4" d="M230.4,108.5c2.2-11.2,4.2-28.5-3.5-32l-5.1-0.2c0,0-3.7-8.6-18.6-7.2c-14.9,1.4-29.8,13.9-23.1,34.3
	c3.5,10.6-2.7,25.9-2.7,25.9l21.9-0.1l33.7-1.1l0,0C230,122,229.1,115.1,230.4,108.5z"/>
<path class="st6" d="M227.1,91.2c0,0,4.3,27.1-6.5,30.6c-2.4,1.4-5.2,1.8-7.9,1v8.6c0,0-10.9,8.2-19.8-0.6v-22.1c0,0,1-13.5,3.7-12
	c0.6,0.3,6.1-0.2,7-10.1c0,0,12.5-5.6,18.3-1.7C227.7,88.6,227.1,91.2,227.1,91.2z"/>
<linearGradient id="SVGID_2_" gradientUnits="userSpaceOnUse" x1="-2649.9099" y1="925.1539" x2="-2657.3599" y2="895.114" gradientTransform="matrix(-1.0109 0 0 1.0109 -2472.9504 -801.0129)">
	<stop  offset="0" style="stop-color:#000000;stop-opacity:0"/>
	<stop  offset="0.99" style="stop-color:#000000"/>
</linearGradient>
<path class="st7" d="M212.7,122.9c0,0-6.6-1.7-9-4.8c0,0,3.4,13.2,9,13.3V122.9z"/>
<path class="st4" d="M218.1,83.4c-3.3,0-7,0.5-9.3,2.8c-2.9,2.9-2.8,7.6-4.1,11.5c-0.9,3-2.8,5.6-5.4,7.4c-2.6,1.8-5.8,2.5-8.9,2
	c-0.6-0.1-1.2-0.4-1.6-0.9c-0.2-0.5-0.3-1-0.2-1.5c0.3-5.6,1-11.3,3.8-16.1c1.6-2.6,3.8-4.8,6.4-6.4c1.5-1,3.3-1.6,5.1-1.9
	c3.5-0.4,7,1.2,10.2,2.7"/>
<path class="st2" d="M192.4,130.8c0,0-3.8,0.6-3.6,3.3c0.1,2.7,0.6,10.9,4.8,9c4.2-2,7.8-7.9,7.8-7.9L192.4,130.8z"/>
<path class="st2" d="M212,130.8c0,0,3.8,0.6,3.7,3.3s-0.6,10.9-4.8,9c-4.2-2-7.8-7.9-7.8-7.9L212,130.8z"/>
<circle class="st2" cx="202" cy="146" r="2.1"/>
<circle class="st2" cx="202" cy="153.4" r="2.1"/>
<circle class="st2" cx="202" cy="160.8" r="2.1"/>
<path class="st0" d="M406,110.3c0,35-28.4,63.4-63.4,63.4c-11.2,0-22.3-3-32-8.6l2.6,2.3l-31.1,10.7l10.5-28.8
	c-21.5-27.6-16.6-67.4,11-89c27.6-21.5,67.4-16.6,89,11C401.3,82.5,406,96.2,406,110.3L406,110.3z"/>
<path class="st1" d="M331.6,131.7c0,0-17.4,0.4-26.3,14.9c0,0-6.1,20.8-5.5,25.3l13.5-4.4c6.7,3.8,16.8,6.6,31.1,6
	c27-1.2,39.2-14.9,39.2-14.9s-2.9-19.4-18.9-23.8C348.7,130.3,331.6,131.7,331.6,131.7z"/>
<path class="st6" d="M332.9,116.8c0,0-0.2,12.3-1.3,14.8c-1.1,2.5,8.6,10.2,18.4,3.2l0.7-3.1c0,0-1.7-8.6-0.7-16
	C351.1,108.3,332.9,116.8,332.9,116.8z"/>
<linearGradient id="SVGID_3_" gradientUnits="userSpaceOnUse" x1="340.1754" y1="935.8997" x2="344.4954" y2="870.7797" gradientTransform="matrix(1.0109 0 0 1.0109 -4.2783 -801.0129)">
	<stop  offset="0" style="stop-color:#000000;stop-opacity:0"/>
	<stop  offset="0.99" style="stop-color:#000000"/>
</linearGradient>
<path class="st8" d="M332.7,118.4c0,0,1.7,8.3,9,8.9c7.3,0.6,7.9-1.9,7.9-1.9l0.2-10.6L332.7,118.4z"/>
<path class="st6" d="M321.8,91.8c-0.9-0.6-1.9-0.8-3-0.6c-0.4,0.2-0.7,0.4-1,0.7c-1.5,1.6-1.5,4.2-1,6.4c0.3,1.2,0.6,2.4,1.1,3.6
	c0.2,0.5,0.5,1.1,0.8,1.5c1.1,1.3,3,1.5,4.7,1.3c1,0,2-0.5,2.6-1.3c0.2-0.3,0.2-0.7,0.3-1.1C326.7,97.9,325.6,94.1,321.8,91.8z"/>
<path class="st6" d="M363.5,93.6c1.2-0.9,2.9-1.5,4.3-0.9c1.1,0.6,1.8,1.7,1.9,2.9s-0.1,2.4-0.6,3.6c-0.5,1.5-1.2,2.8-2.2,4
	s-2.4,1.9-3.9,2c-1.6,0.1-3-0.7-3.8-2c-0.4-0.9-0.5-1.8-0.5-2.8c-0.1-0.7,0-1.5,0.3-2.2C359.5,96.6,362.3,94.5,363.5,93.6z"/>
<path class="st6" d="M362.2,97.7c-1.6,13.2-8.9,24.1-19.9,24.1s-19.9-10.8-19.9-24.1s7.1-28.3,18.1-28.3S365.5,70.7,362.2,97.7z"/>
<path class="st4" d="M322.4,91.7l0.2,3c0,0.5,0.2,1,0.6,1.1c0.5,0.1,0.9-0.7,0.9-1.3c0-2.4-0.8-5.2,0.7-7.1c0.4-0.4,0.7-0.8,1-1.2
	c0.6-1.3-0.3-2.9,0.2-4.2c0.3-0.7,1.1-1.2,1.6-1.8c0.7-1,1.2-2,1.5-3.1c0.1-0.4,0.4-0.7,0.7-0.9c0.3-0.1,0.6-0.2,1-0.3
	c1.2-0.3,2-1.6,3-2.2c1-0.5,2.1-0.7,3.1-0.6c4.2,0.1,8.6,1.6,12.5,0c1.6,2.3,4,3.8,6.8,4.3c0.2,0,0.4,0.1,0.6,0.2
	c0.2,0.2,0.3,0.5,0.3,0.8c0.4,0.9,1,1.7,1.7,2.4c2.4,3,2.4,7.2,2.2,11.1l-0.3,6.2l2.2-3.6c0.2-0.4,0.5-0.8,0.9-1.1s0.9-0.5,1.2-1
	c0.1-0.2,0.2-0.5,0.2-0.7l0.5-5.3c0.2-1,0.1-1.9-0.1-2.9c-0.2-0.6-0.5-1.1-0.7-1.7c-0.2-1.1-0.2-2.2-0.1-3.3c0.1-1.1-0.2-2.2-1-3
	c0.7-2.4,1.4-4.9,0.8-7.3s-2.8-4.6-5.2-4.2c-0.4,0.1-0.8,0.1-1.1,0.1c-0.3-0.1-0.6-0.3-0.9-0.5c-1.7-1.3-3.8-2.1-5.9-2.2
	c-2.5-0.2-5.1-0.2-7.6,0c-5.7,0.5-11.7-0.7-17.1,1.4c-1.3,0.5-2.5,1.2-3.5,2.1c-1.1,1.1-2,2.3-2.7,3.6c-0.4,0.6-0.7,1.2-0.9,1.9
	c-0.1,0.8-0.1,1.5,0,2.3c0,2.5-1.3,5.1-0.9,7.5c0.2,0.9,0.5,1.8,0.7,2.7c0.1,0.8,0.1,1.7,0,2.5c-0.1,2.1,0.3,4.2,1.1,6.2
	c0.1,0.3,0.3,0.7,0.7,0.7C321.7,92.2,322.1,91.3,322.4,91.7z"/>
<path class="st4" d="M325.3,113.9c0.3,1.2,0.7,2.4,1.3,3.5c1.4,2.4,3.7,4.3,6.4,5.2c2.7,0.9,5.5,1.3,8.3,1.3
	c3.8,0.1,7.5-0.1,11.3-0.7c1.3-0.2,1.2-0.5,2.3-1.3c1.7-1.3,3.7-3.6,4-5.7c1.1-6.3,2.9-15.2,2.6-21.6c-1.7,3.2-1.7,10-4.2,12.6
	c-1.4,1.4-3.4,1.9-5.3,2.2c-6.2,1-12.5,0.9-18.6-0.3c-1.9-0.2-3.6-1-5.1-2.2c-2.2-2.2-2-5.6-2.5-8.7c-0.2-1.3-0.7-3.3-2.2-3.8
	c-0.4,2.7,0.2,5.6,0.2,8.2C323.9,106.5,324.4,110.3,325.3,113.9z"/>
<linearGradient id="SVGID_4_" gradientUnits="userSpaceOnUse" x1="317.7791" y1="890.4092" x2="327.7791" y2="888.9592" gradientTransform="matrix(1.0109 0 0 1.0109 -4.2783 -801.0129)">
	<stop  offset="0" style="stop-color:#000000;stop-opacity:0"/>
	<stop  offset="0.99" style="stop-color:#000000"/>
</linearGradient>
<path class="st9" d="M320.4,96c0-0.3,0-0.6-0.1-0.9c-0.1-0.3-0.3-0.5-0.7-0.5c-0.3,0-0.6,0.3-0.7,0.6c-0.5,1.2-0.6,2.6-0.2,3.8
	c0.3,1.3,1.1,2.4,2.2,3.1c0.5,0.4,1.3,0.5,1.9,0.2c1-0.7,0.6-2.7-0.3-3.3c-0.6-0.3-1-0.3-1.4-0.9C320.7,97.4,320.4,96.7,320.4,96z"
	/>
<linearGradient id="SVGID_5_" gradientUnits="userSpaceOnUse" x1="-2603.2769" y1="890.3986" x2="-2593.2769" y2="888.9487" gradientTransform="matrix(-1.0109 0 0 1.0109 -2262.9045 -801.0129)">
	<stop  offset="0" style="stop-color:#000000;stop-opacity:0"/>
	<stop  offset="0.99" style="stop-color:#000000"/>
</linearGradient>
<path class="st10" d="M365.4,96c0-0.3,0-0.6,0.1-0.9c0.1-0.3,0.3-0.5,0.7-0.5c0.3,0,0.6,0.3,0.7,0.6c0.5,1.2,0.6,2.6,0.2,3.8
	c-0.3,1.3-1.1,2.4-2.2,3.1c-0.5,0.4-1.3,0.5-1.9,0.2c-1-0.7-0.6-2.7,0.3-3.3c0.6-0.3,1-0.3,1.4-0.9C365.1,97.4,365.3,96.7,365.4,96z
	"/>
<path class="st1" d="M354.1,126.6c-1-0.5-2.1-0.6-3.2-0.5c-6.8,0.2-13.9,1.6-20.3-0.7c-1.1,1.1-1.9,2.4-2.3,3.9
	c-0.7,3.1,2,6,4.8,7.4c4.8,2.4,10.4,2.4,15.7,2c2.1-0.1,4.4-0.3,5.9-1.7C357.1,134.7,357.2,128.4,354.1,126.6z"/>
<linearGradient id="SVGID_6_" gradientUnits="userSpaceOnUse" x1="325.1003" y1="965.6607" x2="290.3203" y2="845.6907" gradientTransform="matrix(1.0109 0 0 1.0109 -4.2783 -801.0129)">
	<stop  offset="0" style="stop-color:#000000;stop-opacity:0"/>
	<stop  offset="0.99" style="stop-color:#000000"/>
</linearGradient>
<path class="st11" d="M328.1,131.5c0,0-2.2,5.3,8.8,5.5c0,0-11,0.2-14.1,2.6c-3.1,2.4-10.8,6.1-11.2,11c-0.4,4.8-3.1,17.8-3.1,17.8
	l-8.7,3.4l5.5-25.3C310.4,138.6,318.7,133.2,328.1,131.5z"/>
</svg>
