<?xml version="1.0" encoding="utf-8"?>
<!-- Generator: Adobe Illustrator 25.2.3, SVG Export Plug-In . SVG Version: 6.00 Build 0)  -->
<svg version="1.1" id="Layer_1" xmlns="http://www.w3.org/2000/svg" xmlns:xlink="http://www.w3.org/1999/xlink" x="0px" y="0px"
	 viewBox="0 0 298.4 225" style="enable-background:new 0 0 298.4 225;" xml:space="preserve">
<style type="text/css">
	.st0{opacity:0.64;}
	.st1{fill:#DDDBDB;}
	.st2{fill:#FFD200;}
	.st3{opacity:0.15;fill:#FFD200;enable-background:new    ;}
	.st4{fill:#73080C;}
	.st5{opacity:0.12;fill:#FFFFFF;enable-background:new    ;}
	.st6{opacity:0.44;fill:#FFFFFF;enable-background:new    ;}
	.st7{fill:#24285B;}
	.st8{opacity:0.15;enable-background:new    ;}
	.st9{fill:#FFFFFF;}
	.st10{opacity:0.47;fill:#FFFFFF;enable-background:new    ;}
</style>
<g class="st0">
	<polygon class="st1" points="64.9,89.3 33.8,89.3 33.8,190.8 64.9,190.8 64.9,184.4 95.9,184.4 95.9,118.7 64.9,118.7 	"/>
	<polygon class="st1" points="181.6,27.5 151.8,27.5 151.8,153 181.4,153 181.4,177.4 218.3,177.4 218.3,118.9 181.6,118.9 	"/>
	<rect x="227.8" y="81" class="st1" width="45.3" height="96.4"/>
</g>
<circle class="st2" cx="229.7" cy="31.4" r="15.6"/>
<circle class="st3" cx="229.7" cy="31.4" r="24.2"/>
<polygon class="st4" points="73.9,217.5 12,217.5 12,152.3 73.9,134.1 "/>
<polygon class="st5" points="73.9,217.5 12,217.5 12,152.3 73.9,134.1 "/>
<rect x="72.5" y="43.5" class="st4" width="61.9" height="174"/>
<rect x="134.4" y="92.2" class="st4" width="61.9" height="125.2"/>
<rect x="134.4" y="92.2" class="st5" width="61.9" height="125.2"/>
<rect x="196.3" y="169.6" class="st4" width="90.3" height="47.8"/>
<rect x="134.4" y="92.2" class="st6" width="61.9" height="14.7"/>
<path class="st7" d="M3.8,217.5h290.9c2.1,0,3.8,1.7,3.8,3.8l0,0c0,2.1-1.7,3.8-3.8,3.8H3.8c-2.1,0-3.8-1.7-3.8-3.8l0,0
	C-0.1,219.2,1.6,217.5,3.8,217.5z"/>
<polygon class="st4" points="72.5,43.5 134.4,43.5 103.5,0 "/>
<polygon class="st8" points="72.5,43.5 134.4,43.5 103.5,0 "/>
<rect x="20.9" y="195.8" class="st9" width="12.8" height="21.6"/>
<rect x="96.9" y="195.8" class="st9" width="12.8" height="21.6"/>
<rect x="170.5" y="195.8" class="st9" width="12.8" height="21.6"/>
<rect x="206.8" y="195.8" class="st9" width="12.8" height="21.6"/>
<rect x="23" y="160.3" class="st6" width="39.9" height="5.5"/>
<rect x="23" y="174.3" class="st6" width="39.9" height="5.5"/>
<rect x="42.9" y="190.8" class="st7" width="19.9" height="17.1"/>
<rect x="243.2" y="184.5" class="st7" width="31.7" height="22.2"/>
<rect x="82.7" y="54.4" class="st10" width="7.7" height="115.2"/>
<rect x="100.1" y="54.4" class="st10" width="7.7" height="115.2"/>
<rect x="116.7" y="54.4" class="st10" width="7.7" height="115.2"/>
<rect x="71.1" y="104.4" class="st4" width="65.4" height="13.2"/>
<rect x="71.1" y="104.4" class="st8" width="65.4" height="13.2"/>
<rect x="144" y="117.5" class="st10" width="11.4" height="15"/>
<rect x="171.2" y="117.5" class="st10" width="11.4" height="15"/>
<rect x="144" y="143.6" class="st10" width="11.4" height="15"/>
<rect x="171.2" y="143.6" class="st10" width="11.4" height="15"/>
<rect x="144" y="169.6" class="st10" width="11.4" height="15"/>
<rect x="171.2" y="169.6" class="st10" width="11.4" height="15"/>
<rect x="144" y="78.6" class="st7" width="25.4" height="13.6"/>
<rect x="223.8" y="158.6" class="st7" width="25.4" height="11.2"/>
</svg>
