<?xml version="1.0" encoding="utf-8"?>
<!-- Generator: Adobe Illustrator 25.2.3, SVG Export Plug-In . SVG Version: 6.00 Build 0)  -->
<svg version="1.1" id="Layer_1" xmlns="http://www.w3.org/2000/svg" xmlns:xlink="http://www.w3.org/1999/xlink" x="0px" y="0px"
	 viewBox="0 0 305.5 225" style="enable-background:new 0 0 305.5 225;" xml:space="preserve">
<style type="text/css">
	.st0{opacity:0.18;fill:#73080C;enable-background:new    ;}
	.st1{fill:#F7AF87;}
	.st2{fill:#73080C;}
	.st3{fill:url(#SVGID_1_);}
	.st4{fill:#404040;}
	.st5{fill:url(#SVGID_2_);}
	.st6{fill:url(#SVGID_3_);}
	.st7{fill:url(#SVGID_4_);}
	.st8{fill:url(#SVGID_5_);}
	.st9{fill:url(#SVGID_6_);}
	.st10{fill:url(#SVGID_7_);}
	.st11{fill:url(#SVGID_8_);}
	.st12{fill:url(#SVGID_9_);}
	.st13{fill:url(#SVGID_10_);}
	.st14{fill:url(#SVGID_11_);}
	.st15{fill:url(#SVGID_12_);}
	.st16{fill:url(#SVGID_13_);}
	.st17{fill:url(#SVGID_14_);}
</style>
<path class="st0" d="M19.3,193.5C-6.1,175.1,0.3,131.2,1.9,117c0.9-7.8,2.8-15.6,6.8-22.3C20,75.5,44.2,70.7,62.1,58.1
	c19.9-13.9,32.6-38,54-49.2c11.8-6.2,25.2-7.8,38.4-8.6c23.9-1.3,50,0.9,67.7,17.8c12.8,12.2,19.2,30.2,30.6,43.8
	c10,12.1,23.6,20.3,34.1,31.9c15.6,17.2,23.6,43.6,15.2,65.7c-7.8,20.5-19.9,33.9-26.1,35.9c-20,6.5-63.7,7.3-84.6,8.8
	c-22.4,1.6-42.6-1.9-65.1-1.8C91.6,202.5,44.4,204.4,19.3,193.5"/>
<path class="st1" d="M213.6,128.2c0,0,3.2,8.2-13.8,13.2s-26.4,25.1-26.1,42v10.9c0,0,53,19.5,98,1.5c0,0,4.3-45.5-26.4-56.2
	c0,0-6.4-1.9-4.5-9.4c0,0,14.6-8.3,12-30c-2.6-21.7-11-28.5-19.6-29C198.3,69.2,198.2,115,213.6,128.2z"/>
<path class="st2" d="M276,195.4c0,0,0.6-31.8-4.6-42.6c-4.5-9.1-15.9-11.5-25.7-14.4c-0.5-0.2-1.1-0.3-1.7-0.2
	c-0.7,0.2-1.4,0.5-1.9,1c-10.9,8.2-26.3,6.9-35.7-3c-11.6,3.5-20.7,3.5-26.8,14s-9.1,31.1-8,43.2C171.6,193.5,224,214.7,276,195.4z"
	/>
<linearGradient id="SVGID_1_" gradientUnits="userSpaceOnUse" x1="179.3039" y1="16.177" x2="343.6735" y2="-68.3628" gradientTransform="matrix(0.9595 0 0 -0.9595 -16.3485 168.0118)">
	<stop  offset="0" style="stop-color:#000000;stop-opacity:0"/>
	<stop  offset="0.99" style="stop-color:#000000"/>
</linearGradient>
<path class="st3" d="M183.9,150.6c0,0,8.8-9,12.4-9.1s25.3,61.6,25.3,61.6l-32.4-1.5L183.9,150.6z"/>
<path class="st4" d="M202.9,74.6c2-6.7,7.1-13,13.9-14.6c2.1-0.5,4.2-0.5,6.2-0.9c1.3-0.2,2.5-0.6,3.7-0.9
	c5.1-1.3,10.4-1.3,15.5,0.1c5.1,1.5,9.4,4.8,12.2,9.3c2.5,4.3,3.3,9.5,2.9,14.5c-0.4,5-3.3,13.8-4.6,18.7
	c-2.4-3.2-0.8-12.2-4.2-14.3c-2.4-1.5-5.5-0.8-8.3-0.3c-6.5,1.1-13.2,0.9-19.6-0.7c-3-0.8-6.2-1.8-9.2-1.2c-2.7,0.5-3.6,2.6-5.1,4.8
	c-1,1.6-1.6,9.4-2.5,10.9c-2-0.7-2.4-13.1-2.4-14.9C201.4,81.5,201.9,78,202.9,74.6z"/>
<path class="st1" d="M254.7,98.7c0.7-0.6,1.5-0.9,2.4-0.9c0.7,0.1,1.3,0.6,1.6,1.2c0.3,0.6,0.5,1.3,0.5,2c0.2,2.8-0.7,5.5-2.5,7.7
	c-1,1.2-2.5,2.2-3.9,1.8c-0.3-0.1-0.6-0.2-0.8-0.4c-0.2-0.2-0.3-0.4-0.3-0.7c-0.6-2.2-0.6-4.5-0.1-6.7c0.2-1,0.3-1.9,1.1-2.5
	C253.2,99.7,254,99.2,254.7,98.7z"/>
<path class="st4" d="M107,131.7c1.1-0.2,2.4-0.4,3.1-1.3c0.5-0.8,0.9-1.7,0.9-2.7c1.4-10.5,5.3-41.3-5.1-59
	c-1.4-2.5-5.2-3.1-7.2-5.1c-4.7-4.6-10.7-10.2-19.1-10.2c-20,0.1-29.1,10-37.2,28.2c-5,11.1-6.5,44.5-2.4,47.8
	c4.3,3.4,15.7,3.1,21.1,3.7C76.5,134.7,91.9,134.2,107,131.7z"/>
<linearGradient id="SVGID_2_" gradientUnits="userSpaceOnUse" x1="113.4478" y1="62.3374" x2="138.8715" y2="84.5106" gradientTransform="matrix(0.9595 0 0 -0.9595 -16.3485 168.0118)">
	<stop  offset="0" style="stop-color:#000000;stop-opacity:0"/>
	<stop  offset="0.6" style="stop-color:#000000;stop-opacity:0.36"/>
	<stop  offset="0.99" style="stop-color:#000000"/>
</linearGradient>
<path class="st5" d="M98.5,80.3c0.4-0.5,0.9-0.9,1.4-1.2c1.7-0.8,3.7,0.1,5.1,1.4c1.7,1.8,2.9,4,3.4,6.4c0.5,2.4,0.8,4.8,0.7,7.2
	c0,3,0,6-0.3,8.9c-0.2,4.4-1.1,8.7-2.7,12.8c-1.7,4.1-4.4,7.8-8.2,10c-2.8-10-3.1-20.5-3.3-30.9c0-1.7-0.1-3.3,0-4.9
	c0-0.6-0.2-1.9,0.1-2.5c0.3-0.6,0.9-0.5,1.4-0.8c0.8-0.6,0.7-1.7,0.8-2.6C97.3,82.7,97.8,81.4,98.5,80.3z"/>
<linearGradient id="SVGID_3_" gradientUnits="userSpaceOnUse" x1="65.2327" y1="51.0097" x2="67.4222" y2="79.473" gradientTransform="matrix(0.9595 0 0 -0.9595 -16.3485 168.0118)">
	<stop  offset="0" style="stop-color:#000000;stop-opacity:0"/>
	<stop  offset="0.99" style="stop-color:#000000"/>
</linearGradient>
<path class="st6" d="M45.7,101.7c-0.7,0.1-1.4,0.4-2,0.8c-0.5,0.5-0.9,1-1.2,1.7c-2.3,5.1-2,11,0.7,15.8c0,0,3.4-3.6,3.7-4
	c1.2-1.5,2.2-3.1,3.1-4.8c0.8-1.6,5.1-8.8,2.9-9.6C51.5,100.9,47.3,101.3,45.7,101.7z"/>
<linearGradient id="SVGID_4_" gradientUnits="userSpaceOnUse" x1="96.647" y1="68.9411" x2="95.7441" y2="28.2061" gradientTransform="matrix(0.9595 0 0 -0.9595 -16.3485 168.0118)">
	<stop  offset="0" style="stop-color:#000000;stop-opacity:0"/>
	<stop  offset="0.99" style="stop-color:#000000"/>
</linearGradient>
<path class="st7" d="M50.6,128.2c-1.6-3.7-1.3-7.8-0.7-11.8c0.5-3.4,1.2-7,3.2-9.8c1.9-2.5,4.5-4.3,7.4-5.3c2.9-1,6-1.5,9.1-1.7
	c4.4-0.3,8.9-0.2,13.3,0.2c3.1,0.2,6.2,0.9,9,2.2c3.9,1.9,7,5.1,8.8,9.1c1.7,4,2.3,8.3,1.7,12.6c-0.1,1.8-0.8,3.6-1.9,5.1
	c-1.3,1.3-2.9,2.3-4.7,2.7c-6.5,2.1-13.4,1.9-20.1,1.7c-5.6-0.2-11.2,0.1-16.7-1C55.6,131.6,52,131.6,50.6,128.2z"/>
<path class="st1" d="M119.6,195.8c-45,18-98-1.5-98-1.5v-10.8c-0.4-16.9,9-37,26.1-42c17.1-5.1,15.9-11,15.9-11
	C48.1,117.3,46.1,69.2,81,71.2c8.7,0.5,17,7.2,19.6,29c2.6,21.8-14.4,31.3-14.4,31.3c-0.5,2.2,0.4,4.4,2.2,5.8
	c1.4,1.1,3,1.9,4.8,2.3C123.9,150.3,119.6,195.8,119.6,195.8z"/>
<path class="st4" d="M62.1,103c6.8,0,13.7-1,19.9-3.7c6.2-2.7,11.8-7.3,15-13.3c1.1-1.9,1.7-4,1.8-6.2c0.1-4.1-2.5-7.9-6-10.1
	c-3.4-2.2-7.6-3-11.7-3.2c-8.8-0.4-17.9,2.1-24.5,7.8c-5.6,4.8-9,11.6-9.4,18.9C46.8,101.3,55.6,103,62.1,103z"/>
<path class="st2" d="M123.7,195.4c0,0-3.4-25.9-8.7-36.7c-4.5-9.1-11.9-17.3-21.6-20.3c-0.5-0.2-1.1-0.3-1.7-0.2
	c-0.7,0.2-1.4,0.5-1.9,1c-10.9,8.2-26.3,6.9-35.7-3c-11.6,3.6-21.5,11.5-27.5,22c-6.1,10.5-8.4,23.1-7.3,35.2
	C19.3,193.5,71.7,214.7,123.7,195.4z"/>
<linearGradient id="SVGID_5_" gradientUnits="userSpaceOnUse" x1="79.4847" y1="7.1217" x2="178.0567" y2="-43.5751" gradientTransform="matrix(0.9595 0 0 -0.9595 -16.3485 168.0118)">
	<stop  offset="0" style="stop-color:#000000;stop-opacity:0"/>
	<stop  offset="0.99" style="stop-color:#000000"/>
</linearGradient>
<path class="st8" d="M86.3,202.3c0,0-20,2.2-24,0.2c0,0,10.1-54.3,34.2-62.1c0,0,10.4,1.7,18.6,18.4
	C117.4,163.5,86.3,202.3,86.3,202.3z"/>
<path class="st2" d="M86.4,213.7v-32.9c0,0,7.9-29.6,35.2-33s57,1.1,57,1.1s28.9,3.7,34.1,39.4v28.1
	C212.7,216.4,140,237.4,86.4,213.7z"/>
<path class="st1" d="M122.6,109.6c-1.2-0.7-2.6-1.2-3.9-0.7c-0.5,0.2-1,0.5-1.4,1c-2,2.2-1.9,5.5-1.3,8.4c0.4,1.6,0.8,3.2,1.4,4.8
	c0.3,0.7,0.6,1.4,1.1,2c1.4,1.7,4,1.9,6.2,1.7c1.3-0.2,2.8-0.5,3.4-1.7c0.2-0.5,0.3-0.9,0.3-1.4
	C129.1,117.7,127.7,112.7,122.6,109.6z"/>
<path class="st1" d="M177.7,112c1.6-1.1,3.8-2,5.6-1.2c1.5,0.7,2.4,2.2,2.5,3.8c0.1,1.6-0.2,3.2-0.8,4.7c-0.6,1.9-1.6,3.7-2.9,5.2
	c-1.3,1.5-3.2,2.5-5.2,2.7c-2,0.2-4-0.9-5-2.7c-0.5-1.2-0.7-2.4-0.7-3.7c-0.1-1,0-2,0.3-2.9C172.3,116,176,113.2,177.7,112z"/>
<path class="st1" d="M132.7,151c-0.6,1.1-1,2.3-1.1,3.6c0,0.7,0.2,1.5,0.5,2.2c2.6,6.5,8.1,9.8,13.4,11.3c1.6,0.5,3.2,0.8,4.9,0.8
	c5,0,9.9-3.4,12.9-8.9c0.2-0.3,0.3-0.6,0.3-0.9c0-0.4-0.1-0.8-0.4-1.2c-1.9-4-1.5-9.2-1-13.9c0.1-0.4,0.1-0.8-0.1-1.2
	c-0.1-0.3-0.4-0.5-0.7-0.6c-3.2-1.4-6.7-0.5-10.1-0.6c-4.7-0.2-9.2-2.3-13.9-2.3c-2.1,0-2.3,0.8-2.5,3.4
	C134.6,145.4,133.8,148.3,132.7,151z"/>
<linearGradient id="SVGID_6_" gradientUnits="userSpaceOnUse" x1="160.9525" y1="7.9806" x2="191.7483" y2="51.6575" gradientTransform="matrix(0.9595 0 0 -0.9595 -16.3485 168.0118)">
	<stop  offset="0" style="stop-color:#000000;stop-opacity:0"/>
	<stop  offset="0.99" style="stop-color:#000000"/>
</linearGradient>
<path class="st9" d="M132.7,137.5c0,0,2.7,10.6,9.3,17.6c6.6,7,22.1,5.6,20.3-0.6c-1.5-5.2,1.4-17,1.4-17H132.7z"/>
<path class="st1" d="M202.8,98.3c-0.7-0.7-1.6-1.4-2.6-1.5c-0.8,0-1.6,0.4-2.1,1c-0.5,0.6-0.8,1.4-1,2.2c-0.3,1.9-0.2,3.9,0.4,5.7
	c0.7,2.3,2,4.5,4.2,5.4c0.8,0.4,1.7,0.3,2.4-0.2c0.5-0.5,0.8-1.1,0.8-1.8C205.9,104.9,206.1,101.5,202.8,98.3z"/>
<path class="st1" d="M176,117.5c-2.1,17.4-11.7,31.8-26.2,31.8c-14.5,0-26.2-14.2-26.2-31.8s9.3-37.3,23.8-37.3
	S180.2,81.9,176,117.5z"/>
<path class="st4" d="M119.5,111.7c-1-6.9-1.6-13.8-1.9-20.8c-0.1-3.1-0.1-6.5,2-8.8c0.5-0.5,1-1,1.4-1.7c0.3-0.8,0.5-1.6,0.6-2.5
	c0.8-6.6,5.5-12.1,11-15.8c6-4.1,12.9-6.6,20.1-7.2c2.3-0.3,4.7-0.2,7,0.3c2.3,0.6,4.5,1.4,6.6,2.6c3.3,1.8,6.4,3.9,8.7,6.8
	c2.3,2.9,3.7,6.7,3.2,10.3c3.2,1.4,5.7,4.1,6.8,7.4c1.1,3.4,1.4,7,1,10.5c-0.7,8.4-3.9,17.1-10.7,22.2c0.1-5.9-1.2-11.7-3.8-17
	c-1-1.8-1.9-3.7-2.7-5.5c-0.8-2-1.1-4.2-1.1-6.3c-2.8,1.5-4.5,4.6-7.1,6.4c-1.7,1-3.6,1.7-5.5,2c-6.3,1.2-12.8,1-19-0.7
	c-2.5-0.7-5.6-1.4-7.1,0.7c-1,1.2-0.8,3-0.9,4.6c-0.2,1.7-0.6,3.4-1.2,5l-3.8,11.6C121.6,114.7,119.8,113.4,119.5,111.7z"/>
<linearGradient id="SVGID_7_" gradientUnits="userSpaceOnUse" x1="95.8651" y1="23.4508" x2="101.8994" y2="51.5079" gradientTransform="matrix(0.9595 0 0 -0.9595 -16.3485 168.0118)">
	<stop  offset="0" style="stop-color:#000000;stop-opacity:0"/>
	<stop  offset="0.99" style="stop-color:#000000"/>
</linearGradient>
<path class="st10" d="M88.5,137.6c-12.1,7.8-20.6-5.4-21-6.1c5.8,3.2,12.9,3.2,18.7,0c-0.5,2.2,0.4,4.4,2.2,5.8L88.5,137.6z"/>
<linearGradient id="SVGID_8_" gradientUnits="userSpaceOnUse" x1="223.4804" y1="66.5514" x2="237.0612" y2="65.8743" gradientTransform="matrix(0.9595 0 0 -0.9595 -16.3485 168.0118)">
	<stop  offset="0" style="stop-color:#000000;stop-opacity:0"/>
	<stop  offset="0.99" style="stop-color:#000000"/>
</linearGradient>
<path class="st11" d="M202.7,106.1c-0.5-0.7-1-1.4-0.8-2.3c0.2-0.8,1.1-1.2,1.1-2c0-0.4-0.3-0.9-0.6-1.1c-0.4-0.4-0.9-0.6-1.5-0.7
	c-0.2,0-0.4,0-0.6,0.1c-0.2,0.1-0.3,0.3-0.4,0.6c-0.8,1.9-0.6,4.1,0.2,6.1c0.1,0.4,0.3,0.7,0.6,1c0.4,0.3,0.8,0.6,1.3,0.7
	c0.7,0.2,1.6,0.2,1.7-0.7C203.8,107.2,203,106.6,202.7,106.1z"/>
<linearGradient id="SVGID_9_" gradientUnits="userSpaceOnUse" x1="-2563.3584" y1="66.4006" x2="-2549.7773" y2="65.7234" gradientTransform="matrix(-0.9595 0 0 -0.9595 -2200.8933 168.0118)">
	<stop  offset="0" style="stop-color:#000000;stop-opacity:0"/>
	<stop  offset="0.99" style="stop-color:#000000"/>
</linearGradient>
<path class="st12" d="M254.1,106.3c0.5-0.7,1-1.4,0.8-2.3c-0.2-0.8-1.1-1.2-1.1-2c0-0.4,0.3-0.9,0.6-1.1c0.4-0.4,0.9-0.6,1.5-0.7
	c0.2,0,0.4,0,0.5,0.1c0.2,0.1,0.3,0.3,0.4,0.6c0.8,1.9,0.6,4.1-0.2,6.1c-0.2,0.9-0.9,1.5-1.8,1.7c-0.7,0.2-1.6,0.2-1.7-0.7
	C253,107.3,253.8,106.7,254.1,106.3z"/>
<linearGradient id="SVGID_10_" gradientUnits="userSpaceOnUse" x1="209.4513" y1="47.8944" x2="188.4292" y2="57.2543" gradientTransform="matrix(0.9595 0 0 -0.9595 -16.3485 168.0118)">
	<stop  offset="0" style="stop-color:#000000;stop-opacity:0"/>
	<stop  offset="0.99" style="stop-color:#000000"/>
</linearGradient>
<path class="st13" d="M176,120c0.8,0.1,1.6-0.1,2.3-0.5c0.4-0.2,0.7-0.4,0.9-0.7c0.6-0.9-0.1-2.2,0.4-3.2c0.4-0.7,1.2-1.2,2-1.4
	c0.3-0.1,0.6-0.1,0.9,0c0.4,0.3,0.7,0.8,0.7,1.4c0.1,2.3-0.6,4.5-2.1,6.3c-1.5,1.8-3.6,2.8-5.9,3c-0.1,0-0.2,0-0.3-0.1
	c-0.1-0.1-0.2-0.2-0.2-0.3c-0.5-1.3-0.2-2.8,0.7-3.9"/>
<linearGradient id="SVGID_11_" gradientUnits="userSpaceOnUse" x1="138.9931" y1="49.7546" x2="150.9864" y2="55.7889" gradientTransform="matrix(0.9595 0 0 -0.9595 -16.3485 168.0118)">
	<stop  offset="0" style="stop-color:#000000;stop-opacity:0"/>
	<stop  offset="0.99" style="stop-color:#000000"/>
</linearGradient>
<path class="st14" d="M119.4,117c0.3,0.6,1,0.8,1.6,1.1c1.1,0.7,1.8,1.9,1.9,3.2c0.1,0.9-0.4,1.7-1.2,2.1c-0.8,0.2-1.6-0.3-2.2-1
	c-1.5-1.6-2.2-3.8-2.1-6c0-0.7,0.4-2.5,1.5-2.2C119.8,114.6,119,116.2,119.4,117z"/>
<linearGradient id="SVGID_12_" gradientUnits="userSpaceOnUse" x1="150.0549" y1="57.6327" x2="144.6226" y2="81.1678" gradientTransform="matrix(0.9595 0 0 -0.9595 -16.3485 168.0118)">
	<stop  offset="0" style="stop-color:#000000;stop-opacity:0"/>
	<stop  offset="0.6" style="stop-color:#000000;stop-opacity:0.36"/>
	<stop  offset="0.99" style="stop-color:#000000"/>
</linearGradient>
<path class="st15" d="M122,94.9c-0.8,1.1-1.2,2.3-1.3,3.7c-0.1,1.9-0.1,3.8,0.2,5.7l1.1,9.8c1.4-4.7,4.6-8.8,5.3-13.6
	c0.2-1.5,0.2-3.1,0.7-4.6c0.2-0.6,1.5-2.3,1-2.9c-0.5-0.6-3.2-0.1-3.9,0.1C123.9,93.3,122.8,94,122,94.9z"/>
<linearGradient id="SVGID_13_" gradientUnits="userSpaceOnUse" x1="211.3875" y1="90.3249" x2="189.8161" y2="66.1804" gradientTransform="matrix(0.9595 0 0 -0.9595 -16.3485 168.0118)">
	<stop  offset="0" style="stop-color:#000000;stop-opacity:0"/>
	<stop  offset="0.6" style="stop-color:#000000;stop-opacity:0.36"/>
	<stop  offset="0.99" style="stop-color:#000000"/>
</linearGradient>
<path class="st16" d="M175.9,78.5c0.1-0.1,0.2-0.1,0.4-0.1c0.2,0,0.3,0.2,0.3,0.3c1.7,2.8,3.3,5.7,4.1,8.9c0.4,1.8,0.5,3.6,0.5,5.4
	c-0.2,6.1-2.1,12-5.5,17.1c-0.7-2.2-0.6-4.7-1.1-6.9c-0.7-3.1-2.5-5.8-4.1-8.6c-1.4-2.5-4-6.8-2.1-9.6
	C170.1,82.3,172.8,79.9,175.9,78.5z"/>
<linearGradient id="SVGID_14_" gradientUnits="userSpaceOnUse" x1="256.3094" y1="17.1084" x2="242.4501" y2="79.7383" gradientTransform="matrix(0.9595 0 0 -0.9595 -16.3485 168.0118)">
	<stop  offset="0" style="stop-color:#000000;stop-opacity:0"/>
	<stop  offset="0.99" style="stop-color:#000000"/>
</linearGradient>
<path class="st17" d="M213.6,128.2c0,0,4.1,5,13,5.3c9.6,0.3,14.2-3.3,14.2-3.3s-4.3,9.4-14.9,11.5c-6.7,1.3-14.3-1.5-15.6-5.1
	C210.3,136.7,214.7,132.6,213.6,128.2z"/>
<path class="st2" d="M132.9,148.3c0,0,2.6,12.4,11.9,15.3c9.3,2.9,17.1-6.4,17.4-12.4c0.3-6.1,1.7-4.3,1.7-4.3l2.3,1.4v22.9
	l-17.7-2.6l-17.4,4.9c0,0-4.6-20.9-2-26.6"/>
</svg>
