<?xml version="1.0" encoding="utf-8"?>
<!-- Generator: Adobe Illustrator 25.2.3, SVG Export Plug-In . SVG Version: 6.00 Build 0)  -->
<svg version="1.1" id="logo_capri"
	 xmlns="http://www.w3.org/2000/svg" xmlns:xlink="http://www.w3.org/1999/xlink" x="0px" y="0px" viewBox="0 0 421.9 233.9"
	 style="enable-background:new 0 0 421.9 233.9;" xml:space="preserve">
<style type="text/css">
	.st0{fill:#73080C;}
	.st1{fill-rule:evenodd;clip-rule:evenodd;fill:#73080C;}
</style>
<g id="Camada_x0020_1">
	<g id="_2902039678736">
		<path class="st0" d="M81,146l11.4,17l-1.5,1.1c-1.1-1-2-1.5-2.8-1.5c-0.7,0-2.7,0.9-6,2.9c-6.8,3.9-12.6,6.6-17.3,8
			c-4.7,1.4-10.3,2.1-16.7,2.1c-12.9,0-23.4-3.1-31.7-9.2c-4.9-3.5-8.7-7.9-11.5-13.2C1.6,147,0,140.4,0,133.1
			c0-9.9,2.9-18.5,8.7-25.8c8.7-11,21.8-16.4,39.4-16.4c6.5,0,12,0.7,16.6,2c4.6,1.3,10.4,4,17.3,8c3.3,1.9,5.3,2.8,6,2.8
			c0.7,0,1.6-0.5,2.8-1.5l1.5,1.1l-11.4,17l-1.6-1.1c0.1-0.6,0.1-1.2,0.1-1.6c0-1.1-0.5-2.2-1.5-3.2c-1-1-2.8-2.2-5.3-3.7
			c-7.1-4-14.5-6-22.4-6c-9.3,0-16.8,2.3-22.3,7c-6.5,5.5-9.8,12.6-9.8,21.4s3.3,16,9.8,21.4c5.5,4.7,13,7,22.3,7
			c7.9,0,15.4-2,22.4-6c2.6-1.4,4.3-2.6,5.3-3.7c1-1,1.5-2.1,1.5-3.3c0-0.4,0-1-0.1-1.5L81,146L81,146z"/>
		<path id="_x31_" class="st0" d="M164,153h-36.8l-5.5,11.5c-0.8,1.6-1.1,2.9-1.1,3.8c0,1.8,1.3,3,4,3.7v2h-27v-2
			c1.6-0.3,2.8-0.9,3.6-1.7c0.8-0.8,1.8-2.3,2.9-4.6l30-62.6c1-2,1.4-3.6,1.4-4.8c0-1.8-1.1-3.1-3.5-3.9v-2h28.9v2
			c-2.4,0.7-3.5,1.9-3.5,3.5c0,1.1,0.4,2.5,1.1,3.9l31,62.8c1.3,2.7,2.5,4.5,3.5,5.5c1,1,2.3,1.6,4,1.9v2h-30.1v-2
			c2.6-0.4,3.9-1.7,3.9-3.7c0-0.9-0.4-2.1-1.2-3.7L164,153L164,153z M158.9,141.9l-13.1-28.8l-13.3,28.8H158.9z"/>
		<path id="_x32_" class="st0" d="M225.7,140.8v26.9c0,1.2,0.3,2.1,0.9,2.8c0.6,0.7,1.5,1.2,2.9,1.5v2H204v-2c1.4-0.4,2.4-0.9,3-1.5
			c0.6-0.6,0.8-1.5,0.8-2.8v-69c0-1.2-0.3-2.2-0.8-2.8c-0.6-0.6-1.5-1.2-3-1.5v-2h50.9c5.9,0,10.6,0.4,14.1,1.2
			c3.5,0.8,6.6,2.2,9.2,4.1c2.8,2,4.9,4.7,6.5,8c1.5,3.4,2.3,7.1,2.3,10.9c0,5.5-1.5,10.3-4.4,14.5c-2.5,3.5-5.9,6.1-10.1,7.5
			c-4.2,1.5-10.1,2.2-17.6,2.2H225.7L225.7,140.8z M225.7,127.3h27.2c5.4,0,9.2-0.6,11.4-1.7c1.4-0.8,2.5-2,3.4-3.6
			c0.9-1.7,1.3-3.5,1.3-5.5c0-1.9-0.4-3.7-1.3-5.4c-0.9-1.7-2-2.9-3.4-3.6c-2.1-1.2-6-1.7-11.4-1.7h-27.2L225.7,127.3L225.7,127.3z"
			/>
		<path id="_x33_" class="st0" d="M319.2,140.7v27c0,1.2,0.3,2.1,0.9,2.8c0.6,0.7,1.5,1.2,2.9,1.5v2h-25.4v-2c1.4-0.4,2.4-0.9,3-1.5
			c0.6-0.6,0.8-1.5,0.8-2.8v-69c0-1.2-0.3-2.2-0.8-2.8c-0.6-0.6-1.5-1.2-3-1.5v-2h51c6.2,0,11.1,0.4,14.8,1.1c3.6,0.7,6.8,2,9.5,3.8
			c3.1,2.1,5.5,4.9,7.1,8.4c1.5,3.4,2.2,7.1,2.2,11c0,13.3-7.4,21.1-22.2,23.4l15.8,22.4c2.8,3.9,4.8,6.5,6.1,7.6
			c1.3,1.1,2.9,1.8,4.7,1.9v2h-29.5v-2c2-0.3,3-1,3-2.1c0-0.7-0.9-2.4-2.8-5.2l-16.6-24L319.2,140.7L319.2,140.7z M319.2,127.2h27.5
			c4.1,0,6.9-0.1,8.6-0.4c1.7-0.2,3.2-0.7,4.6-1.5c3-1.6,4.5-4.6,4.5-8.8c0-4.3-1.5-7.2-4.5-8.8c-1.4-0.8-3-1.3-4.6-1.5
			c-1.6-0.2-4.5-0.3-8.6-0.3h-27.5V127.2L319.2,127.2z"/>
		<path id="_x34_" class="st0" d="M400.3,167.6v-69c0-1.2-0.3-2.1-0.8-2.8c-0.6-0.6-1.5-1.2-3-1.5v-2h25.4v2c-1.4,0.4-2.4,0.9-3,1.5
			c-0.6,0.7-0.8,1.6-0.8,2.8v69c0,1.2,0.3,2.2,0.9,2.8c0.6,0.7,1.5,1.2,2.9,1.5v2h-25.4v-2c1.4-0.4,2.4-0.9,3-1.5
			C400,169.8,400.3,168.9,400.3,167.6L400.3,167.6z"/>
		<path class="st0" d="M132.8,216.1h-22.6v14.1c0,0.6,0.1,1,0.4,1.3c0.3,0.3,0.7,0.6,1.4,0.7v0.9H99.8v-0.9c0.7-0.2,1.2-0.4,1.4-0.7
			s0.4-0.7,0.4-1.3v-33.2c0-0.6-0.1-1-0.4-1.3c-0.3-0.3-0.7-0.6-1.4-0.7v-0.9H112v0.9c-0.7,0.2-1.2,0.4-1.4,0.7
			c-0.3,0.3-0.4,0.8-0.4,1.3v12.6h22.6v-12.6c0-0.6-0.1-1-0.4-1.3c-0.3-0.3-0.7-0.6-1.4-0.7v-0.9h12.2v0.9c-0.7,0.2-1.2,0.4-1.4,0.7
			c-0.3,0.3-0.4,0.7-0.4,1.3v33.2c0,0.6,0.1,1,0.4,1.3c0.3,0.3,0.7,0.5,1.4,0.7v0.9H131v-0.9c0.7-0.2,1.1-0.4,1.4-0.7
			c0.3-0.3,0.4-0.8,0.4-1.3V216.1L132.8,216.1z"/>
		<path id="_x31__1_" class="st0" d="M171.8,193.2c6.8,0,12.3,1.9,16.3,5.6c4.2,3.9,6.4,8.9,6.4,15c0,3.8-1,7.3-3.1,10.5
			c-4,6.4-10.5,9.6-19.5,9.6c-6.8,0-12.2-1.9-16.2-5.6c-2.1-2-3.8-4.3-4.9-7.1c-1-2.4-1.5-5-1.5-7.7c0-3.9,1-7.5,3-10.8
			C156.2,196.5,162.7,193.3,171.8,193.2L171.8,193.2z M171.8,199.9c-3.8,0-6.9,1.1-9.4,3.3c-3,2.6-4.4,6.1-4.4,10.3
			c0,4.3,1.5,7.7,4.4,10.3c2.5,2.2,5.6,3.3,9.4,3.3c3.8,0,6.9-1.1,9.4-3.3c1.5-1.3,2.6-2.9,3.4-4.9c0.7-1.7,1-3.5,1-5.3
			c0-4.5-1.5-8-4.4-10.5C178.8,201,175.6,199.9,171.8,199.9L171.8,199.9z"/>
		<path id="_x32__1_" class="st0" d="M220.8,200.4v29.7c0,0.6,0.1,1,0.4,1.4c0.3,0.3,0.7,0.5,1.4,0.7v0.9h-12.2v-0.9
			c0.7-0.2,1.2-0.4,1.4-0.7c0.3-0.3,0.4-0.8,0.4-1.4v-29.7h-12.1c-0.6,0-1,0.1-1.3,0.4c-0.3,0.3-0.6,0.7-0.7,1.4h-0.9v-10.1h0.9
			c0.2,0.7,0.5,1.2,0.8,1.4c0.3,0.3,0.7,0.4,1.3,0.4h32.8c0.6,0,1-0.1,1.3-0.4c0.3-0.3,0.6-0.7,0.7-1.4h0.9v10.1H235
			c-0.2-0.7-0.4-1.2-0.7-1.4c-0.3-0.3-0.8-0.4-1.3-0.4H220.8L220.8,200.4z"/>
		<path id="_x33__1_" class="st0" d="M250.3,215.9v10.8h25.2c0.6,0,1-0.1,1.3-0.4c0.3-0.3,0.6-0.7,0.7-1.4h0.9V235h-0.9
			c-0.2-0.7-0.4-1.2-0.7-1.4c-0.3-0.3-0.7-0.4-1.3-0.4h-35.6v-0.9c0.7-0.2,1.2-0.4,1.4-0.7s0.4-0.8,0.4-1.4V197c0-0.6-0.1-1-0.4-1.4
			s-0.7-0.6-1.4-0.7v-0.9h34.9c0.6,0,1-0.1,1.3-0.4c0.3-0.3,0.6-0.7,0.7-1.4h0.9v10.1h-0.9c-0.2-0.7-0.4-1.1-0.7-1.4
			c-0.3-0.3-0.7-0.4-1.3-0.4h-24.5v9.3h15.9c0.6,0,1-0.1,1.3-0.4c0.3-0.3,0.6-0.7,0.7-1.4h0.9v9.9h-0.9c-0.2-0.7-0.4-1.1-0.7-1.4
			c-0.3-0.3-0.7-0.4-1.3-0.4L250.3,215.9L250.3,215.9z"/>
		<path id="_x34__1_" class="st0" d="M295,226.7h24.1c0.6,0,1-0.1,1.4-0.4c0.3-0.3,0.6-0.7,0.7-1.4h0.9V235h-0.9
			c-0.2-0.7-0.4-1.2-0.7-1.4c-0.3-0.3-0.8-0.4-1.4-0.4h-34.5v-0.9c0.7-0.2,1.2-0.4,1.4-0.7c0.3-0.3,0.4-0.8,0.4-1.4V197
			c0-0.6-0.1-1-0.4-1.4c-0.3-0.3-0.7-0.6-1.4-0.7v-0.9h12.2v0.9c-0.7,0.2-1.2,0.4-1.4,0.7c-0.3,0.3-0.4,0.8-0.4,1.4V226.7L295,226.7
			z"/>
		<path class="st1" d="M85.8,20.6l6.3,17.8l18.9,0.5L96,50.3l5.4,18.1L85.8,57.7L70.2,68.4l5.4-18.1l-15-11.5l18.9-0.5
			C79.5,38.4,85.8,20.6,85.8,20.6z"/>
		<path class="st1" d="M148.4,20.6l5.9,18.3l19.3,0l-15.6,11.3l6,18.3l-15.6-11.3l-15.6,11.3l6-18.3l-15.6-11.3l19.3,0L148.4,20.6
			L148.4,20.6z"/>
		<path class="st1" d="M211,0l8.5,26.2l27.5-0.1l-22.3,16.1l8.6,26.2L211,52.2l-22.2,16.2l8.6-26.2L175,26.1l27.5,0.1
			C202.5,26.2,211,0,211,0z"/>
		<path class="st1" d="M273.6,20.6l5.9,18.3l19.3,0l-15.6,11.3l6,18.3l-15.6-11.3L258,68.4l6-18.3l-15.6-11.3l19.3,0L273.6,20.6
			L273.6,20.6z"/>
		<path class="st1" d="M336.2,20.6l5.9,18.3l19.3,0l-15.6,11.3l6,18.3l-15.6-11.3l-15.6,11.3l6-18.3L311,38.8l19.3,0L336.2,20.6z"/>
	</g>
</g>
</svg>
