<?xml version="1.0" encoding="utf-8"?>
<!-- Generator: Adobe Illustrator 25.2.3, SVG Export Plug-In . SVG Version: 6.00 Build 0)  -->
<svg version="1.1" id="Layer_1" xmlns="http://www.w3.org/2000/svg" xmlns:xlink="http://www.w3.org/1999/xlink" x="0px" y="0px"
	 viewBox="0 0 294 225" style="enable-background:new 0 0 294 225;" xml:space="preserve">
<style type="text/css">
	.st0{opacity:0.18;fill:#73080C;enable-background:new    ;}
	.st1{fill:none;stroke:#FFFFFF;stroke-width:1.1637;stroke-miterlimit:24.2434;}
	.st2{fill:#FFFFFF;}
	.st3{fill:#73080C;}
	.st4{fill:url(#SVGID_1_);}
	.st5{fill:url(#SVGID_2_);}
	.st6{fill:#FDB9A9;}
	.st7{fill:#473F47;}
	.st8{fill:url(#SVGID_3_);}
	.st9{opacity:0.38;fill:#FFFFFF;enable-background:new    ;}
	.st10{fill:url(#SVGID_4_);}
</style>
<path class="st0" d="M50.9,210.9c3.9,1.1,7.9,1.9,12,2.5c22.6,3.6,45.8,1.5,68.5,4.2c24,2.9,47.4,11.2,71.6,5.2
	c19.4-4.8,36.7-17,49.3-32.4c17.7-21.4,27.4-48.4,34.8-75.2c8.3-30,12.7-66.1-8.5-88.8c-17-18.2-44.6-21.1-69.4-20.1
	c-13.1,0.5-26.3,1.8-39.4,1.4c-13.1-0.4-23.3-4.7-35.4-7.1c-19.3-3.8-43.9,9.1-57.3,21.9c-16,15.3-25,36.6-39.8,53
	c-10,11-22.7,19.9-29.5,33.2c-3.3,7.1-5.4,14.6-6.3,22.3c-2.4,16.2-2.6,33.5,5,48C15.1,195.8,32.4,205.9,50.9,210.9z"/>
<path class="st1" d="M210.3,30.5c0,0,55.9,24.9,57.9,59.5c1.9,34.6-102.5,28.4-125.3,43.3S21,170.9,22.9,144.9s25.4-35,25.4-35"/>
<path class="st0" d="M63.8,142.3l34.1-91.1c1.1-3,4-5,7.3-5H249c4.3,0,7.8,3.5,7.8,7.8c0,0.8-0.1,1.6-0.4,2.3l-33,103.4
	c-1.1,3.4-4.5,5.7-8.1,5.3L70.4,152.7c-4.3-0.4-7.5-4.1-7.1-8.4C63.3,143.6,63.5,142.9,63.8,142.3z"/>
<path class="st2" d="M252.5,47.2l-33.1,103.5c-1.1,3.4-4.5,5.7-8.1,5.3l-43.4-3.7l-101.4-8.7c-4.3-0.3-7.5-4.1-7.1-8.3
	c0,0,0,0,0-0.1c0.1-0.7,0.2-1.5,0.5-2.1l8.1-21.4l14.7-39.2l11.4-30.3c1.1-3,4-5,7.3-5h143.8c4.3,0,7.8,3.5,7.8,7.8
	C252.9,45.7,252.8,46.4,252.5,47.2z"/>
<polygon class="st0" points="110.1,137.2 120.7,108.1 164.9,108.1 153.3,138 "/>
<path class="st3" d="M252.5,47.2l-33.1,103.5c-1.1,3.4-4.5,5.7-8.1,5.3l-43.4-3.7l40-108.6l0.3-0.8l44.5,0.5c0,0.1,0,0.3,0,0.4
	C253,44.8,252.9,46,252.5,47.2z"/>
<path class="st0" d="M112,55.4l-10.9,36.2c-0.3,1.2-1.4,2-2.7,2l-29-0.8l14.7-39.2l25.5-1.5c1.4-0.1,2.5,1,2.6,2.4
	C112.2,54.8,112.1,55.1,112,55.4z"/>
<path class="st2" d="M45.5,82.7l11.3-32c0.4-1.1,1.3-1.8,2.4-1.9l47.6-2.8c1.4,0,2.5,1,2.6,2.4c0,0.3,0,0.6-0.1,0.9L98.4,85.6
	c-0.3,1.2-1.4,2-2.7,2l-48-1.4c-1.4-0.1-2.4-1.3-2.4-2.7C45.3,83.2,45.4,83,45.5,82.7z"/>
<polygon class="st3" points="252.8,43.3 252.8,43.7 252.8,44.1 208,43.7 94.1,42.5 94.1,41.7 208.3,42.8 252.8,43.3 "/>
<polygon class="st3" points="61.1,79.3 55,79.3 58.2,71.1 64.3,71.1 "/>
<polygon class="st3" points="68.6,79.3 62.5,79.3 69,62.5 75.1,62.5 "/>
<polygon class="st3" points="76.1,79.3 70,79.3 74,69.1 80.1,69.1 "/>
<polygon class="st3" points="83.6,79.3 77.5,79.3 86.1,57.1 92.2,57.1 "/>
<linearGradient id="SVGID_1_" gradientUnits="userSpaceOnUse" x1="-546.2772" y1="741.7347" x2="-519.6427" y2="792.1506" gradientTransform="matrix(2.4243 0 -0.9212 2.3759 2072.5061 -1717.7263)">
	<stop  offset="1.000000e-02" style="stop-color:#000000"/>
	<stop  offset="8.000000e-02" style="stop-color:#000000;stop-opacity:0.69"/>
	<stop  offset="0.21" style="stop-color:#000000;stop-opacity:0.32"/>
	<stop  offset="1" style="stop-color:#000000;stop-opacity:0"/>
</linearGradient>
<polygon class="st4" points="68.6,79.3 62.5,79.3 69,62.5 75.1,62.5 "/>
<linearGradient id="SVGID_2_" gradientUnits="userSpaceOnUse" x1="-540.9663" y1="738.9322" x2="-514.3318" y2="789.3407" gradientTransform="matrix(2.4243 0 -0.9212 2.3759 2072.5061 -1717.7263)">
	<stop  offset="1.000000e-02" style="stop-color:#000000"/>
	<stop  offset="8.000000e-02" style="stop-color:#000000;stop-opacity:0.69"/>
	<stop  offset="0.21" style="stop-color:#000000;stop-opacity:0.32"/>
	<stop  offset="1" style="stop-color:#000000;stop-opacity:0"/>
</linearGradient>
<polygon class="st5" points="83.6,79.3 77.5,79.3 86.1,57.1 92.2,57.1 "/>
<polygon class="st3" points="91.2,79.3 85.1,79.3 96,50.9 102.1,50.9 "/>
<path class="st2" d="M231.9,69.5c1.5-5.6-1.8-11.3-7.4-12.8c-5.6-1.5-11.3,1.8-12.8,7.4c-1.5,5.6,1.8,11.3,7.4,12.8
	c5.3,1.4,10.8-1.5,12.6-6.7l0.1-0.3L231.9,69.5z"/>
<path class="st2" d="M209.1,135.7c1.2-5.7-2.5-11.2-8.1-12.4c-5.1-1.1-10.2,1.8-12,6.6c0,0.1,0,0.2,0,0.3c0,0.1,0,0.2-0.1,0.3
	c-1.5,5.6,1.7,11.3,7.3,12.9c5,1.4,10.2-1.1,12.3-5.8c0.1-0.3,0.2-0.7,0.3-1C208.9,136.4,209,136,209.1,135.7z"/>
<path class="st2" d="M219.8,99.1c0-5.8-4.7-10.5-10.5-10.5c-5.8,0-10.5,4.7-10.5,10.5v0.7c0,5.8,4.7,10.5,10.5,10.5
	c5.8,0,10.5-4.7,10.5-10.5V99.1z"/>
<path class="st3" d="M221.5,66.6L221.5,66.6l2.5-7.9c-0.7-0.2-1.4-0.3-2.1-0.4c-3.7-0.1-7.1,2.2-8.2,5.8c-0.2,0.7-0.3,1.4-0.4,2.1
	c0,0.7,0,1.4,0.2,2.2c0.3,1.4,1,2.7,2,3.8c2,2.2,5,3.1,7.9,2.5c0.7-0.2,1.4-0.4,2-0.7c0.6-0.3,1.2-0.8,1.8-1.2
	c1.1-1,1.8-2.2,2.3-3.6L221.5,66.6z"/>
<path class="st3" d="M209.5,99.4L209.5,99.4v-8.3c-1.4,0-2.9,0.4-4.1,1.1c-0.7,0.4-1.3,0.8-1.8,1.3c-3.2,3.2-3.2,8.4,0,11.6
	c1,1,2.3,1.8,3.8,2.2c1.4,0.4,2.9,0.4,4.3,0c0.7-0.2,1.4-0.4,2-0.8L209.5,99.4z"/>
<path class="st3" d="M198.9,133.5l2.6-7.9c-1.4-0.4-2.9-0.5-4.3-0.2c-3.7,0.8-6.3,3.9-6.5,7.7c0,0.7,0,1.4,0.2,2.1
	c0.1,0.7,0.4,1.4,0.7,2c1,1.9,2.7,3.4,4.7,4.1L198.9,133.5L198.9,133.5z"/>
<path class="st6" d="M94,102c-0.1,0.3-0.3,0.6-0.6,0.9c-0.4,0.2-0.8,0.3-1.3,0.3c-0.5,0-0.9,0.2-1.3,0.4c-0.1,0.2-0.1,0.5,0,0.7
	l0.5,2.9c0.1,0.2,0.1,0.5,0,0.7c-0.1,0.2-0.4,0.4-0.7,0.5c-1,0.4-2.3,0.8-3.1,0c-0.4-0.4-0.7-1-0.8-1.6c-1.1-3.2-1.6-6.6-1.6-10
	c-0.1-2.1,0.8-4.1,2.4-5.5c1.5-1,3.3-1.5,5.1-1.2c0.8,0.1,1.5,0.6,1.9,1.3c0.2,0.5,0,1,0,1.6c0,0.8,0,1.6,0.2,2.4
	c0.1,0.4,0.2,0.7,0.3,1.1c0.1,0.3,0.2,0.6,0.3,1c0,0.6-0.2,1.2-0.5,1.8c-0.3,0.6-0.5,1.3-0.7,2C94,101.5,94,101.7,94,102z"/>
<path class="st6" d="M96.3,123.4c0,0,3.6,3.8,6.6,3.8c3,0,16.2-12.5,16.2-12.5c1.4-0.7,2.5-1.9,3-3.4c0.1-0.5,0.1-1.1,0.2-1.6
	c0.2-1,0.7-2,1.4-2.9c0.2-0.2,0.3-0.6,0.3-0.9c-0.1-0.4-0.6-0.5-1-0.6c-1.2-0.4-2.6-0.3-3.7,0.3c-0.8,0.7-1.4,1.6-1.6,2.6
	c-0.4-0.5-0.8-0.9-1.4-1.1c-0.4,0.2-0.5,0.6-0.4,1c0.1,0.4,0.3,0.7,0.5,1.1c0.2,1.4-0.3,2.8-1.5,3.6c-0.7,0.5-1.4,1-2.2,1.4
	l-8.1,4.7c-0.8,0.5-1.8,1-2.7,0.5c-0.4-0.2-0.7-0.6-1.1-0.8c-0.7-0.2-1.4,0.1-1.9,0.6C97.7,120.5,96.8,121.9,96.3,123.4z"/>
<path class="st6" d="M64,176.2c-0.3,2.2-1.5,4.1-3.3,5.3c-3.3,1.6-7.6,1.9-11.1,2.7c-2.2,0.5-4.3,1-6.4,1.5c-1.8,0.5-3.7,0.4-4.9,2
	c-0.7,0.9-1.2,2.2-2.4,2.5c-0.8,0.1-1.7-0.2-2.1-1c-0.4-0.7-0.7-1.5-0.7-2.4c-0.1-0.3-0.1-0.6,0-0.9c0.1-0.3,0.3-0.6,0.5-0.9
	c1.2-1.1,2.7-1.9,4.3-2.3c1.4-0.5,2.7-1.1,4-1.8c1.1-0.5,2.2-0.9,3.3-1.3l6.5-2.4c1.5-0.6,3.8-0.8,4.4-2.5c0.2-0.9,0.3-1.7,0.3-2.6
	c0.1-1.8,0.7-3.5,1.6-5c0.1-0.3,0.3-0.5,0.5-0.6c0.3-0.1,0.6-0.2,0.9-0.2c0.8-0.1,1.7,0,2.5,0.3c1,0.5,1.8,1.4,2.2,2.5
	c0.3,1.1,0.5,2.2,0.4,3.4C64.4,173.8,64.3,175,64,176.2z"/>
<path class="st3" d="M34.7,184.4c-0.1,0.5-0.5,0.8-0.6,1.3c-0.1,0.4-0.1,0.8,0,1.1l0.3,1.8c0,0.7,0.7,1.3,1.4,1.3c0,0,0.1,0,0.1,0
	c0.2,0,0.3,0.1,0.4,0.2c0,0.1,0,0.2,0,0.3l-0.5,2.3c-0.2,0.9-0.5,1.9-1,2.7c-0.1,0-0.3,0-0.4,0c-1.1,0-1.6-2.9-2-4
	c-0.3-1.1-0.4-2.3-0.3-3.4c0-0.6,0.1-1.2,0.2-1.8c0-0.6,0.1-1.2,0.3-1.8c0.1-0.3,0.4-0.5,0.8-0.4C33.9,184,34.9,183.9,34.7,184.4z"
	/>
<path class="st6" d="M83.1,176.5c1.3,1.8,1.6,4.1,1,6.3c-1.5,3.3-4.5,6.4-6.7,9.3c-1.4,1.8-2.7,3.6-3.9,5.3c-1,1.5-2.5,2.7-2.4,4.7
	c0,1.2,0.5,2.5-0.2,3.4c-0.6,0.6-1.4,0.9-2.2,0.6c-0.8-0.3-1.5-0.7-2.1-1.3c-0.2-0.2-0.4-0.5-0.6-0.7c-0.1-0.3-0.2-0.7-0.2-1
	c0.2-1.6,0.8-3.2,1.8-4.5c0.7-1.3,1.3-2.6,1.8-4c0.5-1.1,1-2.1,1.7-3.1l3.4-6c0.8-1.4,2.4-3.1,1.8-4.8c-0.4-0.8-0.9-1.5-1.4-2.2
	c-1-1.4-1.7-3.1-2-4.8c-0.1-0.3-0.1-0.5,0-0.8c0.1-0.3,0.3-0.5,0.5-0.7c0.6-0.6,1.3-1.1,2.1-1.4c1.1-0.3,2.3-0.1,3.3,0.5
	c1,0.6,1.8,1.4,2.5,2.3C81.8,174.4,82.5,175.4,83.1,176.5z"/>
<path class="st3" d="M66.1,201.8c0.2,0.4,0.2,0.9,0.4,1.4c0.2,0.3,0.5,0.6,0.8,0.8l1.4,1.1c0.2,0.1,0.3,0.3,0.5,0.3
	c0.5,0.1,1,0,1.5-0.4c0.1-0.1,0.3-0.2,0.5,0c0.1,0,0.1,0.1,0.1,0.2l1.1,2.1c0.5,0.8,0.8,1.8,1,2.7c-0.1,0.1-0.2,0.3-0.3,0.3
	c-0.9,0.7-3.1-1.2-4.1-1.8c-1-0.6-1.8-1.4-2.5-2.3c-0.4-0.5-0.7-1-1-1.5c-0.4-0.5-0.7-1-0.9-1.5c-0.1-0.3,0-0.7,0.3-0.9
	C65.2,202,65.9,201.3,66.1,201.8z"/>
<path class="st3" d="M100.7,118.8c-0.1,0.2-0.2,0.4-0.4,0.6c-1.4,1.3-2.7,2.6-4.1,3.9c-0.4,0.4-0.9,0.8-1.4,1.1
	c-0.4,0.3-0.9,0.4-1.4,0.7c-0.2,0.1-0.3,0.2-0.4,0.3c-0.9,0.9-1.7,1.9-2.1,3.1c-0.3,0.7-0.7,1.5-0.9,2.3c-0.7,2-1.2,4-1.6,6.1
	c-2.1,11.9,0.6,24,2,36c0.2,1.3,0.3,2.6,0.4,4c0,0.6,0.1,1.1,0.1,1.7c0.1,0.5,0,1-0.2,1.5c-0.3,0.3-0.7,0.6-1.1,0.7
	c-6,2.4-12.8,4.4-18.9,2.2c-4-1.4-7.1-4.4-10.6-6.8s-7.8-4.2-11.8-3.1c0-2.9,1.1-5.7,3-7.9c0.7-0.9,1.4-1.7,2.2-2.4l1.6-1.6
	c5.3-5.2,9.9-9.7,12.8-17.1c1.2-3,1.4-6.5,3.4-9.1c1.8-2.2,3.2-2.5,3.6-5.5c0.5-3.7,1.4-7.4,2.5-11c1.1-3.3,2.8-6.3,5-8.9
	c1-1.2,2.1-2.3,3.4-3.1c1.3-0.8,2.9-1.1,4.4-0.9c1.6,0.3,2.8,1.3,3.4,2.8c1.4,4,4.9,5.8,6.9,9.6
	C100.7,118.4,100.8,118.6,100.7,118.8z"/>
<path class="st7" d="M95.6,89.9c-0.3,1.3-1.2,2.3-2.4,2.8c-2.8,1.1-6.6,0.6-5.8,4.6c0.7,2.9,0.5,5.9-0.7,8.7c-0.8,1-1.3,2.2-1.6,3.4
	c0,0.5,0.1,1.1,0.2,1.6c0.8,4.8-2.3,9.4-7.1,10.3c-0.3,0.1-0.7,0.1-1,0.1c-1-0.1-2.1,0.1-3,0.5c-0.9,0.7-1.5,1.7-1.8,2.8
	c-0.4,1.2-1.1,2.2-2,2.9c-1.9,1.3-4.5,0.5-6.6-0.4c-1.6-0.6-3.1-1.4-4.5-2.4c-1.4-1.1-2.3-2.6-2.4-4.4c0.2-1.1,0.1-2.2-0.1-3.4
	c-0.4-0.6-0.8-1.2-1.3-1.8c-0.8-2-0.6-4.2,0.6-6c0.2-0.3,0.3-0.7,0.4-1c0-0.3-0.1-0.7-0.2-1c-0.4-2.4,0.8-4.9,3-6
	c2.2-1,4.5-1.7,6.9-2.1c3.6-0.9,6.5-3.4,7.9-6.8c1.4-2.9,2.5-6.1,5.7-7.6c4.9-1.9,10.3-1.2,14.6,1.7C95.4,87.2,95.9,88.6,95.6,89.9z
	"/>
<linearGradient id="SVGID_3_" gradientUnits="userSpaceOnUse" x1="-137.9341" y1="807.1641" x2="-106.0344" y2="814.2088" gradientTransform="matrix(2.4243 0 0 2.4243 389.5308 -1825.2457)">
	<stop  offset="1.000000e-02" style="stop-color:#000000"/>
	<stop  offset="0.13" style="stop-color:#000000;stop-opacity:0.69"/>
	<stop  offset="0.25" style="stop-color:#000000;stop-opacity:0.32"/>
	<stop  offset="1" style="stop-color:#000000;stop-opacity:0"/>
</linearGradient>
<path class="st8" d="M94.9,124.5c-0.4,0.3-0.9,0.4-1.4,0.7c-0.2,0.1-0.3,0.2-0.4,0.3c-1.6,1.4-2.6,3.3-3.1,5.3
	c-0.7,2-1.3,4.1-1.6,6.2c-0.8,5.4-1,10.9-0.5,16.4c0.3,2,0.2,4-0.2,6c-2.4-2.8-3.9-6.2-4.3-9.8c-0.2-2-0.2-4-0.6-6
	c-0.3-1.4-0.9-2.8-1.1-4.2c0-0.1,0-0.1,0-0.2c-0.4-2.6,0.6-2.9,2.1-4.4c1.4-1.5,2.5-3.4,3.1-5.3c1.2-3.6,2.4-7.1,3.7-10.5
	C90.3,119.8,93.8,122.7,94.9,124.5z"/>
<path class="st9" d="M90.9,177c-6.2,1.9-12.8,1.7-18.8-0.5c-2.3-0.8-4.4-2-6.2-3.6c-0.7-0.6-1.3-1.4-2-2c-1.1-0.9-2.3-1.6-3.6-2.2
	c-2.8-1.3-5.7-2.2-8.5-3.3l-0.3-0.1c0.7-0.9,1.4-1.7,2.2-2.4l1.6-1.6h0.4c1.8,0.2,3.5,0.7,5.2,1.4c2.6,1.5,5.1,3.3,7.5,5.2
	c2.3,1.6,4.8,2.9,7.4,4.1c1.6,0.8,3.3,1.5,5.1,1.9c1.8,0.2,3.6,0.3,5.3,0.1c1.5,0,3-0.3,4.4-1.1C90.6,174.4,90.7,175.7,90.9,177z"/>
<polygon class="st0" points="122.7,99.4 133.3,70.3 177.5,70.3 166,100.2 "/>
<polygon class="st3" points="181.8,15.3 200.1,23.7 197,34.5 "/>
<polygon class="st3" points="181.8,15.3 210.3,15.3 201.6,20.5 "/>
<polygon class="st3" points="204.9,28.5 200.1,23.7 181.8,15.3 201.6,20.5 "/>
<linearGradient id="SVGID_4_" gradientUnits="userSpaceOnUse" x1="-147.8954" y1="692.3088" x2="-144.7996" y2="715.4651" gradientTransform="matrix(2.4243 0 0 2.4243 549.4886 -1674.6216)">
	<stop  offset="1.000000e-02" style="stop-color:#000000"/>
	<stop  offset="8.000000e-02" style="stop-color:#000000;stop-opacity:0.69"/>
	<stop  offset="0.21" style="stop-color:#000000;stop-opacity:0.32"/>
	<stop  offset="1" style="stop-color:#000000;stop-opacity:0"/>
</linearGradient>
<polygon class="st10" points="204.9,28.5 200.1,23.7 181.8,15.3 201.6,20.5 "/>
<polygon class="st3" points="204.9,28.5 200.1,23.7 181.8,15.3 "/>
</svg>
