<?xml version="1.0" encoding="utf-8"?>
<!-- Generator: Adobe Illustrator 25.2.3, SVG Export Plug-In . SVG Version: 6.00 Build 0)  -->
<svg version="1.1" id="Layer_1" xmlns="http://www.w3.org/2000/svg" xmlns:xlink="http://www.w3.org/1999/xlink" x="0px" y="0px"
	 viewBox="0 0 269 225" style="enable-background:new 0 0 269 225;" xml:space="preserve">
<style type="text/css">
	.st0{opacity:0.18;fill:#73080C;enable-background:new    ;}
	.st1{opacity:0.58;fill:#73080C;enable-background:new    ;}
	.st2{fill:#F6C8C9;}
	.st3{fill:#703D1B;}
	.st4{fill:#73080C;}
	.st5{fill:url(#SVGID_1_);}
	.st6{fill:url(#SVGID_2_);}
	.st7{fill:url(#SVGID_3_);}
	.st8{fill:url(#SVGID_4_);}
	.st9{fill:url(#SVGID_5_);}
	.st10{fill:#5E3118;}
	.st11{fill:url(#SVGID_6_);}
	.st12{fill:url(#SVGID_7_);}
	.st13{fill:url(#SVGID_8_);}
	.st14{fill:url(#SVGID_9_);}
	.st15{fill:url(#SVGID_10_);}
	.st16{fill:url(#SVGID_11_);}
	.st17{fill:url(#SVGID_12_);}
	.st18{fill:url(#SVGID_13_);}
	.st19{fill:url(#SVGID_14_);}
</style>
<path class="st0" d="M265.4,164.9c-1.6,10.9-4.6,19.4-10.1,26.6c-3.8,5.1-9,9.6-15.7,13.7c-0.5,0.3-1,0.7-1.5,1
	c-5.9,3.4-12.2,6-18.7,7.9c-9.6,2.6-19.3,4.1-29.3,4.5c-24.4,1-48.9-2.9-73.1-0.2c-15.4,1.7-30.6,6-46.1,6.6
	c-24.5,1-44.5-10.4-56.4-31.5c-0.1-0.3-0.4-0.7-0.5-1c-0.1-0.4-0.4-0.7-0.5-1c-3.6-6.9-6.5-14.2-8.7-21.7c-4.3-14-6.9-29.3-2.4-43.3
	c4.6-14.3,15.7-25.3,25.7-36.5C40.2,76.5,51,61.8,60.4,46.2c5.9-9.8,11.3-20.1,19.2-28.4c8.4-9,19.2-13.2,30.7-16.6
	c12.8-3.8,24.6,2.4,36.3,7C173.2,18.6,204,18.5,228.1,34c20.2,13,32.8,35.6,37.9,59.2S269.1,141.1,265.4,164.9z"/>
<path class="st1" d="M255.4,191.5c-3.8,5.1-9,9.6-15.7,13.7c-0.5,0.3-1,0.7-1.5,1c-2.5,1.2-5.1,2.3-7.6,3.3l-11,4.6
	c-9.6,2.6-19.3,4.1-29.3,4.5c-24.4,1-48.9-2.9-73.1-0.2c-15.4,1.7-30.6,6-46.1,6.6c-24.5,1-44.5-10.4-56.4-31.5
	c-0.1-0.3-0.4-0.7-0.5-1c-0.1-0.4-0.4-0.7-0.5-1L255.4,191.5L255.4,191.5z"/>
<path d="M150.2,87.9c-0.5,2.1-1,4.6-0.4,6.6c0.7,2.4-0.6,1.4-2.1,3.6c-1.4,2-3.5,3.3-5.9,3.7c-2.4,0.4-4.8,0.3-7.1-0.4
	c-1.9-0.5-5.6,1.3-6.4-0.5c-0.4-0.9-0.5-1.8-0.5-2.7c-0.1-2,1.5-6.6,2-8.5c0.1-0.6,0.3-1.2,0.3-1.8c0-1.3-1-2.4-1.6-3.7
	c-0.5-1.2-0.7-2.5-0.4-3.7c0.3-1.5,1.2-2.8,1.5-4.3c0.1-0.7,0.1-1.5,0.1-2.2c-0.1-1.3,0.1-2.7,0.8-3.9c4.6-8,15-2.8,17-1.1
	s2.9,4.5,2.9,7.1s0.8,8,0.2,10.6C150.3,87.2,150.2,87.6,150.2,87.9z"/>
<path class="st2" d="M157.1,135.9c0,0,0.7,3.2,0.3,5.1c-0.4,1.8-2.2,4-3.2,4.1c-1,0.1-1.6-0.4-1.6-1.1c0-0.7,2.7-3.2,2.3-4
	c-0.4-0.8-1.5,1.6-1.8,1c-0.3-0.6-0.2-1.5,0.7-2.6c0.9-1.1,0-2.7,0-2.7S156.5,134.6,157.1,135.9z"/>
<path class="st3" d="M114.1,106.2c0,0-1.5-2.7-2.2-3.1c-0.7-0.4-1.8-1.5-2.2-1.2c-0.6,0.4,2.1,2.8-0.3,2.6c-0.4,0-2.3,0-3.2,0.9
	c-0.7,0.7-0.7,1.8,0,2.5c0.1,0.1,0.1,0.1,0.1,0.1c0.6,0.4,2.7,0.6,3.9,0.6c1.1-0.1,2.2,0.1,3.2,0.6"/>
<path class="st3" d="M130.5,94.7c-0.6,1.7-1,3.5-1.2,5.3c-0.1,1.8-1,9.6-1.3,10c-0.3,0.4-14.3-4.3-14.3-4.3s-0.9,1.2-0.1,3.5
	c0,0,10.4,9.4,16.7,9.8c6.2,0.4,5.5-14.6,5.5-14.6"/>
<path class="st4" d="M130.2,94.8l-5,14.9l0.4,4.4c0.3,2.6,2.3,4.8,4.9,5.2l0,0L130.2,94.8z"/>
<linearGradient id="SVGID_1_" gradientUnits="userSpaceOnUse" x1="227.3315" y1="1000.3348" x2="211.9621" y2="1002.2385" gradientTransform="matrix(0.8851 0 0 0.8851 -64.2474 -779.1819)">
	<stop  offset="1.000000e-02" style="stop-color:#000000"/>
	<stop  offset="0.83" style="stop-color:#000000;stop-opacity:7.000000e-02"/>
	<stop  offset="1" style="stop-color:#000000;stop-opacity:0"/>
</linearGradient>
<path class="st5" d="M130.2,94.8l-5,14.9l0.4,4.4c0.3,2.6,2.3,4.8,4.9,5.2l0,0L130.2,94.8z"/>
<path class="st4" d="M149.2,139c0,0,1.1,20.7,2.6,37.6c0,0-20.1,2.9-28.2-0.3c0,0,1.8-33.4,2.1-38.2L149.2,139z"/>
<path class="st4" d="M148.9,95.3c0-1-0.7-1.9-1.8-2c-0.7-0.1-1.8-0.2-3.2-0.5c-3.7-0.7-5.1-0.4-7.7,0.1c-4.9,1-5.4,1.2-6.1,1.8
	c-0.7,0.7-4.1,11.7-2.4,16.9c0.4,1.1,1.4,3.7,1.5,5.1c1.1,8.1-0.4,19.8-0.4,19.8s-6.5,5.4,8.9,6.9c5.7,0.6,11.2-3.4,11.2-3.4
	L148.9,95.3z"/>
<linearGradient id="SVGID_2_" gradientUnits="userSpaceOnUse" x1="248.9348" y1="1010.7692" x2="226.0534" y2="1014.143" gradientTransform="matrix(0.8851 0 0 0.8851 -64.2474 -779.1819)">
	<stop  offset="1.000000e-02" style="stop-color:#000000"/>
	<stop  offset="0.83" style="stop-color:#000000;stop-opacity:7.000000e-02"/>
	<stop  offset="1" style="stop-color:#000000;stop-opacity:0"/>
</linearGradient>
<path class="st6" d="M148.9,95.3c0-1-0.8-1.9-1.8-2.1c-0.7-0.1-1.8-0.3-3.1-0.5c-3.7-0.7-5.1-0.4-7.7,0.1c-4.9,1-5.4,1.2-6.1,1.8
	c-1.8,1.5-0.1,39.3-0.1,39.3s-7.6,7.8,7.9,9.3c5.7,0.6,11.2-3.4,11.2-3.4L148.9,95.3z"/>
<linearGradient id="SVGID_3_" gradientUnits="userSpaceOnUse" x1="229.3761" y1="979.2554" x2="228.2221" y2="997.9472" gradientTransform="matrix(0.8851 0 0 0.8851 -64.2474 -779.1819)">
	<stop  offset="1.000000e-02" style="stop-color:#000000"/>
	<stop  offset="0.83" style="stop-color:#000000;stop-opacity:7.000000e-02"/>
	<stop  offset="1" style="stop-color:#000000;stop-opacity:0"/>
</linearGradient>
<path class="st7" d="M135.3,93.1c2,2,4.2,3.8,6.5,5.5c0.3,0.1,0.4,0.5,0.3,0.8l-0.4,0.4c0,0-4.9-3.9-7.4-6.3L135.3,93.1z"/>
<linearGradient id="SVGID_4_" gradientUnits="userSpaceOnUse" x1="251.632" y1="1007.5317" x2="231.3599" y2="1009.6927" gradientTransform="matrix(0.8851 0 0 0.8851 -65.0263 -776.6683)">
	<stop  offset="1.000000e-02" style="stop-color:#000000"/>
	<stop  offset="0.83" style="stop-color:#000000;stop-opacity:7.000000e-02"/>
	<stop  offset="1" style="stop-color:#000000;stop-opacity:0"/>
</linearGradient>
<polygon class="st8" points="148.8,100.9 148.8,131.2 141.5,127.3 146,109.1 "/>
<path class="st3" d="M154.2,122.8c-0.3,0-0.7,0-1,0l-27.9-0.1c-0.6,0.1-1.2-0.1-1.8-0.3c-0.5-0.3-0.8-0.9-0.7-1.5
	c0.3-0.5,0.7-0.8,1.3-0.9c4.4-1.3,9.2-0.9,13.8-0.8c3.8,0.1,7.9-0.1,11.5-1.5c1.7-0.7,3.5-1,5.2-1c1,0,1.6-0.2,2.1,0.6
	c0.4,0.6,0.2,2.1,0.1,2.8c-0.1,1-0.7,1.9-1.5,2.4C155,122.7,154.6,122.8,154.2,122.8z"/>
<path class="st4" d="M148.2,93.8c0,0,2.4,2.4,5.4,12c1.1,3.6,3.3,11.5,3.3,11.5s-4.3,0.4-7.4,0.4c-1.4-8.3-5.1-10.3-5.8-14.1
	C143.1,99.8,146.3,93,148.2,93.8z"/>
<linearGradient id="SVGID_5_" gradientUnits="userSpaceOnUse" x1="250.8186" y1="998.0836" x2="239.1023" y2="1000.9575" gradientTransform="matrix(0.8851 0 0 0.8851 -64.2474 -779.1819)">
	<stop  offset="1.000000e-02" style="stop-color:#000000"/>
	<stop  offset="0.83" style="stop-color:#000000;stop-opacity:7.000000e-02"/>
	<stop  offset="1" style="stop-color:#000000;stop-opacity:0"/>
</linearGradient>
<path class="st9" d="M148.2,93.8c0,0,2.4,2.4,5.4,12c1.1,3.6,3.3,11.5,3.3,11.5s-4.7,0.4-7.9,0.4c-1.4-8.3-4.7-10.4-5.4-14.3
	C143.1,99.8,146.3,93,148.2,93.8z"/>
<path class="st3" d="M142.4,83l0.1,9.8c-0.8,1.2-2.2,1.8-3.6,1.7c-3.6-0.4-3.5-1.5-3.5-1.5s0-5.4-0.1-6.7"/>
<path class="st10" d="M142.5,86.2l-0.1-2.9l-7.1,3.7c0.1,0.4,0.1,4.5,0.1,5.7C137.5,93.2,141.6,89.5,142.5,86.2z"/>
<path class="st3" d="M144.1,73.3c0,0-0.3,9.6-3.1,12.9c-2.9,3.5-5.7,2.9-7,2.6c-3.2-0.7-3.7-9.5-3.7-11.9
	C129.9,70.7,138.5,65.1,144.1,73.3z"/>
<path class="st3" d="M142.8,79.2c0-0.6,0.5-1,1-1c0.2,0,0.4,0.1,0.5,0.1c1.4,0.7,0.1,3.2-0.4,3.8c-0.4,0.4-1,0.6-1.6,0.5"/>
<rect x="62.4" y="125.6" class="st4" width="131.7" height="73.3"/>
<linearGradient id="SVGID_6_" gradientUnits="userSpaceOnUse" x1="202.1916" y1="945.9438" x2="228.072" y2="1129.6785" gradientTransform="matrix(0.8851 0 0 0.8851 -65.0263 -776.6683)">
	<stop  offset="1.000000e-02" style="stop-color:#000000"/>
	<stop  offset="0.83" style="stop-color:#000000;stop-opacity:7.000000e-02"/>
	<stop  offset="1" style="stop-color:#000000;stop-opacity:0"/>
</linearGradient>
<rect x="62.4" y="125.6" class="st11" width="131.7" height="73.3"/>
<linearGradient id="SVGID_7_" gradientUnits="userSpaceOnUse" x1="218.6909" y1="983.713" x2="218.2572" y2="1075.1504" gradientTransform="matrix(0.8851 0 0 0.8851 -65.0263 -776.6683)">
	<stop  offset="1.000000e-02" style="stop-color:#000000"/>
	<stop  offset="0.83" style="stop-color:#000000;stop-opacity:7.000000e-02"/>
	<stop  offset="1" style="stop-color:#000000;stop-opacity:0"/>
</linearGradient>
<polygon class="st12" points="62.5,165.1 194.3,149.4 194.3,125.6 62.4,125.6 "/>
<path class="st4" d="M61.2,121.4h135c1.2,0,2.3,1,2.3,2.3l0,0c0,1.2-1,2.3-2.3,2.3h-135c-1.2,0-2.3-1-2.3-2.3l0,0
	C58.9,122.5,60,121.4,61.2,121.4z"/>
<linearGradient id="SVGID_8_" gradientUnits="userSpaceOnUse" x1="220.0452" y1="987.2261" x2="218.3179" y2="1031.504" gradientTransform="matrix(0.8851 0 0 0.8851 -65.0263 -776.6683)">
	<stop  offset="1.000000e-02" style="stop-color:#000000"/>
	<stop  offset="0.83" style="stop-color:#000000;stop-opacity:7.000000e-02"/>
	<stop  offset="1" style="stop-color:#000000;stop-opacity:0"/>
</linearGradient>
<path class="st13" d="M61.2,121.4h135c1.2,0,2.3,1,2.3,2.3l0,0c0,1.2-1,2.3-2.3,2.3h-135c-1.2,0-2.3-1-2.3-2.3l0,0
	C58.9,122.5,60,121.4,61.2,121.4z"/>
<path d="M133.1,71.4c0.2,1.2,0.7,2.4,1.2,3.6c0.6,1.2,1.5,2.1,2.6,2.6c1.4,0.4,2.9,0.4,4.3,0c0.7-0.2,1.3-0.3,2.1-0.1
	c0.6,0.2,1.2,0.8,1.8,0.6c0.7-0.2,0.7-0.8,0.8-1.4c0.1-1.3-0.1-2.6-0.7-3.8c-0.4-0.7-0.9-1.2-1.5-1.8c-2.8-2.5-7.1-3.3-10.4-1.5
	c-0.4,0.2-1.8,1-1.8,1.6C131.6,72.2,133.1,71.2,133.1,71.4z"/>
<path class="st4" d="M222.6,102.1c1.6-3.2,4.7-6.2,8.3-5.9c0.6,0,1.2,0.2,1.7,0.6c0.5,0.5,0.8,1.2,1,1.9c1.5,6.9-6.1,13.1-5.3,20.1
	c0.3,2.9,2,5.4,3.3,7.9c1.3,2.5,2.2,5.7,1,8.2c-0.9,1.8-2.6,2.9-4,4.3c-1.5,1.3-2.8,3.1-2.6,5c0.1,1,0.6,1.9,0.6,2.9
	c0,1.9-1.8,3.4-3.5,4.2c-1.8,0.8-3.7,1.3-5,2.7c-1.4,1.5-1.8,3.7-2.8,5.6c-0.1,0.3-0.4,0.6-0.7,0.8c-0.7,0.3-1.6,0-2-0.7
	c-0.4-0.7-0.5-1.5-0.5-2.3l-1-17.3c-0.2-3.5-0.4-7.1,0.1-10.7c0.7-5.2,3.1-10.1,5.5-14.6C218.9,110.8,220.4,106.3,222.6,102.1z"/>
<linearGradient id="SVGID_9_" gradientUnits="userSpaceOnUse" x1="298.9069" y1="1030.549" x2="345.0592" y2="1020.8466" gradientTransform="matrix(0.8851 0 0 0.8851 -64.2474 -779.1819)">
	<stop  offset="1.000000e-02" style="stop-color:#000000"/>
	<stop  offset="0.83" style="stop-color:#000000;stop-opacity:7.000000e-02"/>
	<stop  offset="1" style="stop-color:#000000;stop-opacity:0"/>
</linearGradient>
<path class="st14" d="M231.5,126.8c1.3,2.6,2.2,5.7,1,8.2c-0.9,1.8-2.6,2.9-4,4.3c-0.5,0.5-1,1-1.5,1.6c-0.5,0.7-0.9,1.4-1.1,2.2
	c-0.1,0.4-0.1,0.8-0.1,1.2c0.1,1,0.6,1.9,0.6,2.9c0,1.9-1.8,3.4-3.5,4.2c-1.5,0.7-3.2,1.2-4.5,2.3c-0.1,0.1-0.3,0.3-0.4,0.4
	c-1.4,1.5-1.8,3.7-2.8,5.6c-0.1,0.3-0.4,0.6-0.7,0.8c-0.7,0.3-1.6,0-2-0.7c-0.2-0.4-0.4-0.8-0.4-1.3c-0.1-0.3-0.1-0.7-0.1-1l-1-17.3
	c-0.2-3.5-0.4-7.1,0.1-10.7c0.7-5.2,3.1-10.1,5.5-14.6c1.8-3.3,3.1-6.8,4.6-10.2c0.4-0.9,0.8-1.8,1.2-2.6c1-2.1,2.6-3.8,4.6-5.1
	c1.1-0.6,2.4-0.9,3.7-0.8c0.6,0,1.2,0.2,1.7,0.6c0.5,0.5,0.8,1.1,1,1.8c1.5,6.9-6.1,13.1-5.3,20.1
	C228.5,121.8,230.3,124.2,231.5,126.8z"/>
<path class="st4" d="M193.7,150.6c-3.5-2.4-7.4-5.3-7.9-9.6c-0.2-1,0-2.1,0.7-2.9c0.7-0.8,2-1,2.7-0.2c0.5,0.6,0.9,1.7,1.6,1.4
	c0.5-0.2,0.4-0.9,0.2-1.4c-1.2-3.7-3.5-7.4-2.9-11.2c0.1-1.2,1.1-2.6,2.3-2.1c0.4,0.1,0.7,0.4,0.9,0.8c1.2,1.9,1.3,4.8,3.4,5.7
	c0.1-1,0.6-2,1.3-2.6c1.2,1.7,1.2,3.9,1.6,5.9c1,4,3.8,7.1,6.5,10.4c2.6,3.2,5.1,6.8,5,11c-1,0.7-2.6-0.4-3.5,0.4
	c-0.7,0.7-0.1,1.8-0.2,2.8c-0.1,1.1-1.6,1.8-2.6,1.4c-1-0.4-1.2-2.2-1.8-3.1C199.2,154.2,196.3,152.4,193.7,150.6z"/>
<linearGradient id="SVGID_10_" gradientUnits="userSpaceOnUse" x1="307.4084" y1="1037.1466" x2="282.8217" y2="1044.9086" gradientTransform="matrix(0.8851 0 0 0.8851 -64.2474 -779.1819)">
	<stop  offset="1.000000e-02" style="stop-color:#000000"/>
	<stop  offset="0.83" style="stop-color:#000000;stop-opacity:7.000000e-02"/>
	<stop  offset="1" style="stop-color:#000000;stop-opacity:0"/>
</linearGradient>
<path class="st15" d="M193.7,150.6c-3.5-2.4-7.4-5.3-7.9-9.6c-0.2-1,0-2.1,0.7-2.9c0.7-0.8,2-1,2.7-0.2c0.5,0.6,0.9,1.7,1.6,1.4
	c0.5-0.2,0.4-0.9,0.2-1.4c-1.2-3.7-3.5-7.4-2.9-11.2c0.1-1.2,1.1-2.6,2.3-2.1c0.4,0.1,0.7,0.4,0.9,0.8c1.2,1.9,1.3,4.8,3.4,5.7
	c0.1-1,0.6-2,1.3-2.6c1.2,1.7,1.2,3.9,1.6,5.9c1,4,3.8,7.1,6.5,10.4c2.6,3.2,5.1,6.8,5,11c-1,0.7-2.6-0.4-3.5,0.4
	c-0.7,0.7-0.1,1.8-0.2,2.8c-0.1,1.1-1.6,1.8-2.6,1.4c-1-0.4-1.2-2.2-1.8-3.1C199.2,154.2,196.3,152.4,193.7,150.6z"/>
<path class="st4" d="M195,144.5c-2.6-5.6,1.5-11.7,4.9-16.9c0.7-1,1.2-2.2,1.4-3.5c0-1.2-0.3-2.3-0.8-3.3c-2.1-5.2-3.7-11-2.1-16.4
	c0.9-3,2.7-5.7,4.1-8.5c2.1-4.4,3.2-9.2,3-14.1c-0.1-2.5-0.5-5.1,0-7.5c0.5-2.4,2.2-4.9,4.6-5.3c2.7-0.4,5.2,1.7,6.6,4.1
	c4,7.3,1.2,16.3,2.6,24.5c1.1,6.8,5.2,13.5,3.5,20.1c-1.1,4.6-5,8.5-5.1,13.3c2.9-0.2,5.6,2.3,6,5.2s-1.5,5.8-4,7.1
	c-2.2,1.1-5.3,1.8-5.6,4.2c-0.1,1.2,0.7,2.4,0.9,3.7c0.7,4.3-5.2,12-8.5,7.4c-1.7-2.3-2-4.8-4.2-6.9
	C199.8,149.2,196.5,147.7,195,144.5z"/>
<linearGradient id="SVGID_11_" gradientUnits="userSpaceOnUse" x1="307.2983" y1="1094.2213" x2="309.8856" y2="995.022" gradientTransform="matrix(0.8851 0 0 0.8851 -64.2474 -779.1819)">
	<stop  offset="1.000000e-02" style="stop-color:#000000"/>
	<stop  offset="0.83" style="stop-color:#000000;stop-opacity:7.000000e-02"/>
	<stop  offset="1" style="stop-color:#000000;stop-opacity:0"/>
</linearGradient>
<path class="st16" d="M219.7,143.3c-2.2,1.1-5.3,1.8-5.6,4.2c-0.1,1.2,0.7,2.4,0.9,3.7c0.5,3.2-2.7,8.5-5.7,8.8
	c-1.1,0.1-2.2-0.4-2.8-1.4c-1.7-2.3-2-4.8-4.2-7c-2.5-2.4-5.7-4-7.2-7.3c-2.6-5.6,1.5-11.8,4.9-16.9c0.7-1,1.2-2.2,1.4-3.5
	c0-1.2-0.3-2.3-0.8-3.3c-2.1-5.2-3.7-11-2.1-16.4c0.9-3,2.7-5.7,4.1-8.5c2.1-4.4,3.2-9.2,3-14.1c-0.1-2.5-0.5-5.1,0-7.5
	s2.2-4.9,4.6-5.3c2.7-0.4,5.2,1.7,6.6,4.1c2.6,4.6,2.4,10,2.2,15.4l0,0c-0.1,3-0.1,6,0.4,9c1.1,6.8,5.2,13.5,3.5,20.1
	c-1.2,4.6-5,8.5-5.1,13.3c2.9-0.2,5.6,2.3,6,5.2S222.3,142,219.7,143.3z"/>
<linearGradient id="SVGID_12_" gradientUnits="userSpaceOnUse" x1="283.4315" y1="1069.5372" x2="338.0587" y2="1006.8541" gradientTransform="matrix(0.8851 0 0 0.8851 -64.2474 -779.1819)">
	<stop  offset="1.000000e-02" style="stop-color:#000000"/>
	<stop  offset="0.83" style="stop-color:#000000;stop-opacity:7.000000e-02"/>
	<stop  offset="1" style="stop-color:#000000;stop-opacity:0"/>
</linearGradient>
<path class="st17" d="M227.3,139.3c0,0.5-0.1,1-0.2,1.5c-0.2,0.8-0.6,1.5-1.1,2.2c-0.9,1.2-2.1,2.2-3.6,2.7c-2.3,0.8-4.4,2.4-5,4.8
	c-0.1,0.6,0.4,1.8,1.1,3c-0.1,0.1-0.3,0.3-0.4,0.4c-1.4,1.5-1.8,3.7-2.8,5.6c-0.1,0.3-0.4,0.6-0.7,0.8c-0.7,0.3-1.6,0-2-0.7
	c-0.2-0.4-0.4-0.8-0.4-1.3c1.9-1.8,3.3-5,2.9-7.3c-0.2-1.2-1-2.4-0.9-3.7c0.3-2.4,3.4-3.1,5.6-4.2c2.6-1.3,4.4-4.2,4-7.1
	c-0.4-2.9-3-5.4-6-5.2c0.1-4.8,4-8.7,5.1-13.3c1.1-4.3-0.3-8.7-1.7-13.1c0.4-0.9,0.8-1.8,1.2-2.6c1-2.1,2.6-3.8,4.6-5.1
	c-1,2.4-1.6,4.9-1.3,7.4c1.9,18.4-3.3,21.2-4.1,25.9C224.6,130.5,227.3,136.4,227.3,139.3z"/>
<linearGradient id="SVGID_13_" gradientUnits="userSpaceOnUse" x1="311.0969" y1="1087.2092" x2="313.1329" y2="1009.2082" gradientTransform="matrix(0.8851 0 0 0.8851 -64.2474 -779.1819)">
	<stop  offset="1.000000e-02" style="stop-color:#000000"/>
	<stop  offset="0.83" style="stop-color:#000000;stop-opacity:7.000000e-02"/>
	<stop  offset="1" style="stop-color:#000000;stop-opacity:0"/>
</linearGradient>
<path class="st18" d="M219.7,143.3c-2.2,1.1-5.3,1.8-5.6,4.2c-0.1,1.2,0.7,2.4,0.9,3.7c0.5,3.2-2.7,8.5-5.7,8.8
	c-0.4-1.5-1.1-3-2.1-4.3c-2.1-2.7-5.1-4.6-6.2-8.1c-1.8-5.9,3-11.5,7-16.2c0.9-0.9,1.5-2.1,1.8-3.2c0.1-1.2,0-2.3-0.4-3.4
	c-1.4-5.4-2.3-11.4,0-16.5c1.2-2.9,3.4-5.2,5.1-7.9c2.4-3.5,3.9-7.6,4.6-11.8c-0.1,3-0.1,6,0.4,9c1.1,6.8,5.2,13.5,3.5,20.1
	c-1.2,4.6-5,8.5-5.1,13.3c2.9-0.2,5.6,2.3,6,5.2S222.3,142,219.7,143.3z"/>
<path class="st4" d="M210.9,200.2h-4.5c-3.5,0-6.5-2.8-6.6-6.3l-1.5-31.3c-0.1-2.1,1.5-3.8,3.6-4c0.1,0,0.1,0,0.2,0h13.7
	c2.1,0,3.7,1.7,3.7,3.7c0,0.1,0,0.1,0,0.2l-2.1,31.4C217.3,197.5,214.4,200.2,210.9,200.2z"/>
<linearGradient id="SVGID_14_" gradientUnits="userSpaceOnUse" x1="289.5133" y1="1106.6713" x2="312.9827" y2="1074.6021" gradientTransform="matrix(0.8851 0 0 0.8851 -64.2474 -779.1819)">
	<stop  offset="1.000000e-02" style="stop-color:#000000"/>
	<stop  offset="0.83" style="stop-color:#000000;stop-opacity:7.000000e-02"/>
	<stop  offset="1" style="stop-color:#000000;stop-opacity:0"/>
</linearGradient>
<path class="st19" d="M210.9,200.2h-4.6c-3.5,0-6.5-2.8-6.6-6.3l-1.5-31.1c-0.1-2.2,1.6-4.1,3.8-4.3c0.1,0,0.1,0,0.2,0h13.2
	c2.2,0,4,1.8,4,4c0,0.1,0,0.1,0,0.3l-2.1,31.2C217.3,197.5,214.4,200.2,210.9,200.2z"/>
<path class="st4" d="M84.4,115h11.3c1.5,0,2.7,1.2,2.7,2.7v1c0,1.5-1.2,2.7-2.7,2.7H84.4c-1.5,0-2.7-1.2-2.7-2.7v-1
	C81.7,116.3,82.9,115,84.4,115z"/>
</svg>
