<?xml version="1.0" encoding="utf-8"?>
<!-- Generator: Adobe Illustrator 25.2.3, SVG Export Plug-In . SVG Version: 6.00 Build 0)  -->
<svg version="1.1" id="Layer_1" xmlns="http://www.w3.org/2000/svg" xmlns:xlink="http://www.w3.org/1999/xlink" x="0px" y="0px"
	 viewBox="0 0 265.5 225" style="enable-background:new 0 0 265.5 225;" xml:space="preserve">
<style type="text/css">
	.st0{opacity:0.18;fill:#73080C;enable-background:new    ;}
	.st1{fill:#73080C;}
	.st2{opacity:0.19;}
	.st3{fill:#020202;}
	.st4{fill:#FF681C;}
	.st5{opacity:0.19;fill:#020202;enable-background:new    ;}
	.st6{opacity:0.27;}
	.st7{fill:#FFBAA8;}
	.st8{fill:#473F47;}
	.st9{fill:url(#SVGID_1_);}
	.st10{fill:#FFFFFF;}
	.st11{opacity:0.1;fill:#020202;enable-background:new    ;}
	.st12{fill:url(#SVGID_2_);}
</style>
<path class="st0" d="M156.3,2.8c-18,6-31.7,20.4-48.1,29.9C88.5,44.2,65.2,48.4,46.3,61C26.5,74.1,13.3,95.4,6,118
	c-6.2,19.4-8.4,40.6-2.7,60.2s20.1,37.2,39.5,43.6c19.9,6.6,41.5,1.1,62.4,0.2c28.6-1.2,57.7,6.5,85.8,0.9
	c23.6-4.8,44.5-18.5,58.3-38.3c3.6-4.9,6.3-10.5,7.9-16.4c1.8-7.1,1.4-14.5,1.7-21.8c0.7-17.8,5.3-35.2,6.6-53
	c1-13.5-0.2-27.9-6.4-40.1C251.9,39.3,239,33.7,227,24.7C205.9,8.9,184.3-6.5,156.3,2.8z"/>
<g id="Q83r0t">
	<path class="st1" d="M238.7,116.1c-1.2-0.3-2.1-1.1-2.7-2.1c-0.4-0.8-0.8-1.6-1.3-2.3c-0.8-1.5-2.5-2.4-4.2-2.2
		c-1.7,0.1-3.2,1.4-3.6,3c-0.3,0.9-0.5,1.8-0.8,2.7c-0.7,2.3-3.2,3.7-5.6,2.9c0,0,0,0,0,0c-1.7-0.5-3.4-1-5.1-1.5
		c-2.4-0.7-3.8-3.1-3.2-5.5c0,0,0-0.1,0-0.1c0.2-0.9,0.6-1.8,0.8-2.7c0.5-1.6-0.1-3.4-1.5-4.4c-1.3-1.1-3.1-1.3-4.5-0.4
		c-0.8,0.4-1.5,0.9-2.3,1.3c-2.2,1.2-5,0.4-6.2-1.9c0,0,0-0.1,0-0.1c-0.9-1.6-1.8-3.2-2.6-4.8c-1.3-2.1-0.6-4.8,1.6-6.1
		c0.1-0.1,0.2-0.1,0.3-0.2c0.7-0.4,1.5-0.8,2.2-1.2c1.5-0.7,2.4-2.4,2.1-4c-0.1-1.7-1.2-3.2-2.9-3.6c-0.9-0.3-1.8-0.5-2.7-0.8
		c-2.4-0.6-3.8-3.1-3.2-5.5c0-0.1,0.1-0.3,0.1-0.4c0.5-1.6,1-3.2,1.4-4.9c0.6-2.3,3-3.7,5.3-3.2c1,0.2,1.9,0.5,2.8,0.8
		c1.7,0.6,3.6,0.1,4.7-1.3c1.2-1.4,1.3-3.4,0.3-4.9c-0.4-0.7-0.8-1.4-1.2-2.2c-1.2-2.1-0.4-4.8,1.7-6c0,0,0,0,0,0
		c1.7-1,3.5-1.9,5.2-2.8c2.2-1.1,4.8-0.3,6,1.9c0.5,0.8,0.9,1.6,1.3,2.4c0.8,1.5,2.4,2.3,4,2c1.7-0.1,3.1-1.3,3.6-2.9
		c0.3-0.8,0.5-1.7,0.7-2.5c0.6-2.4,3.1-3.9,5.6-3.3c0.1,0,0.3,0.1,0.4,0.1l4.7,1.4c2.4,0.6,3.9,3.1,3.3,5.5c0,0.1,0,0.2-0.1,0.3
		c-0.2,0.8-0.5,1.6-0.7,2.4c-0.7,2.2,0.5,4.6,2.8,5.3c1.1,0.4,2.4,0.2,3.4-0.4c0.7-0.4,1.4-0.8,2.2-1.2c2.2-1.2,5-0.4,6.2,1.8
		c0,0,0,0,0,0c0.9,1.6,1.8,3.3,2.7,4.9c1.2,2.1,0.5,4.8-1.6,6c-0.1,0-0.1,0.1-0.2,0.1c-0.8,0.4-1.6,0.8-2.4,1.3
		c-1.4,0.7-2.2,2.2-2.1,3.8c0,1.6,1,3.1,2.5,3.7c0.9,0.4,1.9,0.6,2.9,0.9c2.2,0.5,3.6,2.7,3.1,5c0,0.1-0.1,0.3-0.1,0.4
		c-0.5,1.9-1,3.7-1.6,5.5c-0.6,2.3-2.9,3.6-5.2,3.1c-0.2,0-0.3-0.1-0.4-0.1c-0.8-0.2-1.7-0.5-2.5-0.7c-1.6-0.4-3.3,0.2-4.3,1.6
		c-1,1.3-1.2,3-0.4,4.4c0.4,0.8,0.9,1.6,1.3,2.4c1.2,2.1,0.5,4.9-1.7,6.1c0,0-0.1,0-0.1,0.1c-1.6,1-3.3,1.8-5,2.7
		C241.1,116.4,239.9,116.5,238.7,116.1z M213.8,79.7c-2.3,7.7,2.2,15.8,9.9,18.1c7.7,2.3,15.8-2.2,18.1-9.9c2.3-7.7-2.1-15.8-9.8-18
		C224.2,67.6,216.1,72,213.8,79.7C213.8,79.7,213.8,79.7,213.8,79.7z"/>
</g>
<g id="Q83r0t-2">
	<path class="st1" d="M177.1,193.4c-2.7,0.1-5.4-1-7.3-2.9c-1.4-1.4-2.8-2.9-4.3-4.2c-3-2.9-6.6-3.7-10.5-2c-3.7,1.4-6,5-5.9,8.9
		c0,2.1,0,4.3,0,6.4c-0.1,5.6-4.7,10-10.2,9.9c0,0-0.1,0-0.1,0c-4,0-8,0-12,0c-5.6,0.1-10.3-4.4-10.4-10c0-0.1,0-0.2,0-0.2
		c0-2.1,0-4.3,0-6.4c0-3.8-2.4-7.3-6-8.6c-3.4-1.6-7.5-0.8-10.1,1.9c-1.5,1.4-2.8,2.8-4.3,4.2c-4.1,4.1-10.6,4.1-14.7,0
		c0,0-0.1-0.1-0.1-0.1c-3-2.9-5.9-5.8-8.7-8.7c-4.3-4.4-4.3-10.4,0-14.7c1.3-1.4,2.8-2.7,4.1-4.1c2.8-2.6,3.6-6.6,2.1-10.1
		c-1.3-3.6-4.7-6.1-8.5-6.1c-2.1-0.1-4.3,0-6.4-0.1c-6.4-0.2-10.4-4.5-10.4-10.9c0-3.8,0-7.6,0-11.4c-0.2-5.4,4-10,9.5-10.3
		c2.2-0.2,4.4-0.1,6.6-0.1c4.4,0,7.5-1.9,9.3-6c1.6-3.8,0.7-7.5-2.5-10.7c-1.3-1.3-2.7-2.6-3.9-3.9c-3.9-3.9-3.9-10.2,0-14.1
		c0,0,0,0,0,0c3.1-3.2,6.3-6.4,9.6-9.4c4-3.7,10.2-3.7,14.2,0.1c1.5,1.4,2.9,2.9,4.4,4.3c2.6,2.7,6.7,3.5,10.1,1.9
		c3.6-1.3,6-4.8,6-8.6c0-1.9,0-4,0-6c0.1-6.4,4.5-10.7,10.9-10.7h11.2c6.2,0,10.5,4.2,10.7,10.4c0.1,1.9,0,3.9,0,5.8
		c-0.2,4,2.2,7.7,5.9,9.1c3.7,1.6,7.5,0.8,10.6-2.2c1.3-1.3,2.6-2.6,3.9-3.9c4.1-4.1,10.6-4.1,14.7,0c0,0,0,0,0,0c3.1,3,6.1,6,9.1,9
		c4,3.8,4.1,10.2,0.3,14.1c-0.1,0.1-0.2,0.2-0.3,0.3c-1.4,1.5-3,2.9-4.4,4.3c-2.6,2.5-3.4,6.2-2.1,9.5c1,3.6,4.2,6.1,7.8,6.4
		c2.2,0.2,4.5,0.1,6.8,0.1c6,0.1,9.8,3.7,10,9.7c0.1,4.3,0.1,8.7,0,13c-0.2,6.2-4.1,9.9-10.3,9.9c-1.9,0-4-0.1-6,0
		c-3.8,0.1-7.1,2.5-8.3,6.1c-1.5,3.4-0.7,7.4,2,9.9c1.4,1.5,2.9,2.9,4.4,4.4c4,3.9,4.1,10.3,0.2,14.2c-0.1,0.1-0.1,0.1-0.2,0.2
		c-3,3.1-6,6-9.1,9C182.4,192.3,179.8,193.4,177.1,193.4z M89.8,130c-0.1,23.7,19.1,43,42.9,43.1c23.7,0.1,43-19.1,43.1-42.9
		c0.1-23.7-19.1-43-42.9-43.1c-23.7-0.1-43,19-43.1,42.7C89.8,129.9,89.8,130,89.8,130z"/>
</g>
<g id="Q83r0t-3" class="st2">
	<path class="st3" d="M177.1,193.4c-2.7,0.1-5.4-1-7.3-2.9c-1.4-1.4-2.8-2.9-4.3-4.2c-3-2.9-6.6-3.7-10.5-2c-3.7,1.4-6,5-5.9,8.9
		c0,2.1,0,4.3,0,6.4c-0.1,5.6-4.7,10-10.2,9.9c0,0-0.1,0-0.1,0c-4,0-8,0-12,0c-5.6,0.1-10.3-4.4-10.4-10c0-0.1,0-0.2,0-0.2
		c0-2.1,0-4.3,0-6.4c0-3.8-2.4-7.3-6-8.6c-3.4-1.6-7.5-0.8-10.1,1.9c-1.5,1.4-2.8,2.8-4.3,4.2c-4.1,4.1-10.6,4.1-14.7,0
		c0,0-0.1-0.1-0.1-0.1c-3-2.9-5.9-5.8-8.7-8.7c-4.3-4.4-4.3-10.4,0-14.7c1.3-1.4,2.8-2.7,4.1-4.1c2.8-2.6,3.6-6.6,2.1-10.1
		c-1.3-3.6-4.7-6.1-8.5-6.1c-2.1-0.1-4.3,0-6.4-0.1c-6.4-0.2-10.4-4.5-10.4-10.9c0-3.8,0-7.6,0-11.4c-0.2-5.4,4-10,9.5-10.3
		c2.2-0.2,4.4-0.1,6.6-0.1c4.4,0,7.5-1.9,9.3-6c1.6-3.8,0.7-7.5-2.5-10.7c-1.3-1.3-2.7-2.6-3.9-3.9c-3.9-3.9-3.9-10.2,0-14.1
		c0,0,0,0,0,0c3.1-3.2,6.3-6.4,9.6-9.4c4-3.7,10.2-3.7,14.2,0.1c1.5,1.4,2.9,2.9,4.4,4.3c2.6,2.7,6.7,3.5,10.1,1.9
		c3.6-1.3,6-4.8,6-8.6c0-1.9,0-4,0-6c0.1-6.4,4.5-10.7,10.9-10.7h11.2c6.2,0,10.5,4.2,10.7,10.4c0.1,1.9,0,3.9,0,5.8
		c-0.2,4,2.2,7.7,5.9,9.1c3.7,1.6,7.5,0.8,10.6-2.2c1.3-1.3,2.6-2.6,3.9-3.9c4.1-4.1,10.6-4.1,14.7,0c0,0,0,0,0,0c3.1,3,6.1,6,9.1,9
		c4,3.8,4.1,10.2,0.3,14.1c-0.1,0.1-0.2,0.2-0.3,0.3c-1.4,1.5-3,2.9-4.4,4.3c-2.6,2.5-3.4,6.2-2.1,9.5c1,3.6,4.2,6.1,7.8,6.4
		c2.2,0.2,4.5,0.1,6.8,0.1c6,0.1,9.8,3.7,10,9.7c0.1,4.3,0.1,8.7,0,13c-0.2,6.2-4.1,9.9-10.3,9.9c-1.9,0-4-0.1-6,0
		c-3.8,0.1-7.1,2.5-8.3,6.1c-1.5,3.4-0.7,7.4,2,9.9c1.4,1.5,2.9,2.9,4.4,4.4c4,3.9,4.1,10.3,0.2,14.2c-0.1,0.1-0.1,0.1-0.2,0.2
		c-3,3.1-6,6-9.1,9C182.4,192.3,179.8,193.4,177.1,193.4z M89.8,130c-0.1,23.7,19.1,43,42.9,43.1c23.7,0.1,43-19.1,43.1-42.9
		c0.1-23.7-19.1-43-42.9-43.1c-23.7-0.1-43,19-43.1,42.7C89.8,129.9,89.8,130,89.8,130z"/>
</g>
<path class="st4" d="M102.3,112c0.6,0.9,0.9,2,0.7,3.1c-0.1,1-0.2,2.1-0.4,3.1c-0.5,2-1.3,4.1-0.7,6.1c0.5,1.2,1.2,2.3,2,3.4
	c0.7,1.2,1.1,2.5,1,3.9c-0.1,1.4-0.9,2.6-2.1,3.3c-1.6-3-4.2-5.3-6.3-7.9s-3.9-5.9-3.3-9.2c0.4-2.2,1.6-4.1,3.5-5.3
	C98.1,111.6,100.9,110.3,102.3,112z"/>
<path class="st5" d="M102.3,112c0.6,0.9,0.9,2,0.7,3.1c-0.1,1-0.2,2.1-0.4,3.1c-0.5,2-1.3,4.1-0.7,6.1c0.5,1.2,1.2,2.3,2,3.4
	c0.7,1.2,1.1,2.5,1,3.9c-0.1,1.4-0.9,2.6-2.1,3.3c-1.6-3-4.2-5.3-6.3-7.9s-3.9-5.9-3.3-9.2c0.4-2.2,1.6-4.1,3.5-5.3
	C98.1,111.6,100.9,110.3,102.3,112z"/>
<g id="Q83r0t-4">
	<path class="st1" d="M174.2,193.5c-2.7,0.1-5.4-1-7.3-2.9c-1.4-1.4-2.8-2.8-4.3-4.2c-3-2.9-6.6-3.7-10.5-2c-3.7,1.4-6,5-5.9,8.9
		c0,2.1,0,4.3,0,6.4c-0.1,5.6-4.7,10-10.3,9.9c0,0,0,0-0.1,0c-4,0-8,0-12,0c-5.6,0.1-10.3-4.4-10.4-10c0-0.1,0-0.2,0-0.2
		c0-2.1,0-4.3,0-6.4c0-3.8-2.4-7.3-6-8.6c-3.4-1.6-7.5-0.8-10.1,1.9c-1.5,1.4-2.8,2.8-4.3,4.2c-4.1,4.1-10.6,4.1-14.7,0
		c0,0-0.1-0.1-0.1-0.1c-2.9-2.9-5.9-5.8-8.7-8.7c-4.3-4.4-4.3-10.4,0-14.7c1.3-1.4,2.8-2.7,4.1-4.1c2.8-2.6,3.6-6.6,2.1-10.1
		c-1.3-3.7-4.7-6.1-8.6-6.1c-2.1-0.1-4.3,0-6.4-0.1c-6.4-0.2-10.5-4.4-10.5-10.8c0-3.8,0-7.6,0-11.4c-0.2-5.4,4-10,9.5-10.3
		c2.2-0.2,4.4-0.1,6.6-0.1c4.1,0.2,7.8-2.2,9.2-6c1.6-3.8,0.7-7.5-2.5-10.7c-1.3-1.3-2.6-2.6-3.9-3.9c-3.9-3.9-3.9-10.2,0-14.1
		c0,0,0,0,0,0c3.1-3.2,6.3-6.4,9.6-9.4c4-3.7,10.3-3.6,14.2,0.2c1.5,1.4,2.9,2.9,4.4,4.3c2.6,2.7,6.7,3.4,10.1,1.8
		c3.6-1.3,6-4.8,6-8.6c0-1.9,0-4,0-6c0.1-6.4,4.5-10.7,10.9-10.7h11.1c6.2,0,10.5,4.2,10.7,10.4c0.1,1.9,0,3.9,0,5.8
		c-0.2,4,2.2,7.6,5.9,9.1c3.7,1.6,7.5,0.8,10.6-2.2c1.3-1.3,2.6-2.6,3.9-3.9c4.1-4,10.6-4,14.7,0c3.1,3,6.1,6,9.1,9
		c4,3.8,4.1,10.2,0.3,14.2c-0.1,0.1-0.2,0.2-0.3,0.3c-1.4,1.5-3,2.9-4.4,4.4c-2.6,2.4-3.4,6.2-2.1,9.5c1,3.6,4.2,6.1,7.8,6.4
		c2.3,0.2,4.5,0.1,6.8,0.1c6,0.1,9.8,3.7,10,9.7c0.1,4.3,0.1,8.7,0,13c-0.2,6.2-4.1,9.9-10.3,10c-2,0-4-0.1-6,0
		c-3.8,0.1-7.1,2.5-8.3,6.1c-1.5,3.4-0.7,7.4,2,9.9c1.4,1.5,3,2.9,4.4,4.4c4,3.9,4.1,10.3,0.2,14.3c-0.1,0.1-0.1,0.1-0.2,0.2
		c-3,3.1-6,6-9.1,9C179.6,192.4,176.9,193.5,174.2,193.5z M87,130.1c-0.1,23.7,19.2,43,42.9,43.1c23.7,0.1,43-19.2,43.1-42.9
		c0.1-23.7-19.1-43-42.9-43.1c-23.7-0.1-43,19-43.1,42.7C87,130,87,130,87,130.1z"/>
</g>
<path class="st5" d="M137.8,186.3c0.6,0.8,1.4,1.6,2.2,2.2c0.5,0.3,0.9,0.6,1.3,1.1c0.2,0.4,0.3,0.7,0.3,1.1
	c0.4,2.2,2.5,4.2,4.7,3.7l1-7.3c0.1-0.6,0.1-1.1,0-1.7c-0.2-0.5-0.6-0.9-1-1.3c-2.6-2.6-4.9-5.5-6.8-8.7c-0.4-0.9-1.1-1.7-1.9-2.2
	c-0.8-0.5,0-1-0.9-0.8c-2.3,0.7-3.9,0.6-9.4,0.6c0,0,1.7,2.3,2.5,3.3l4,5C134.3,182.1,137,186.3,137.8,186.3z"/>
<g id="Q83r0t-5" class="st6">
	<path class="st3" d="M238.7,116.1c-1.2-0.3-2.1-1.1-2.7-2.1c-0.4-0.8-0.8-1.6-1.3-2.3c-0.8-1.5-2.5-2.4-4.2-2.2
		c-1.7,0.1-3.2,1.4-3.6,3c-0.3,0.9-0.5,1.8-0.8,2.7c-0.7,2.3-3.2,3.7-5.6,2.9c0,0,0,0,0,0c-1.7-0.5-3.4-1-5.1-1.5
		c-2.4-0.7-3.8-3.1-3.2-5.5c0,0,0-0.1,0-0.1c0.2-0.9,0.6-1.8,0.8-2.7c0.5-1.6-0.1-3.4-1.5-4.4c-1.3-1.1-3.1-1.3-4.5-0.4
		c-0.8,0.4-1.5,0.9-2.3,1.3c-2.2,1.2-5,0.4-6.2-1.9c0,0,0-0.1,0-0.1c-0.9-1.6-1.8-3.2-2.6-4.8c-1.3-2.1-0.6-4.8,1.6-6.1
		c0.1-0.1,0.2-0.1,0.3-0.2c0.7-0.4,1.5-0.8,2.2-1.2c1.5-0.7,2.4-2.4,2.1-4c-0.1-1.7-1.2-3.2-2.9-3.6c-0.9-0.3-1.8-0.5-2.7-0.8
		c-2.4-0.6-3.8-3.1-3.2-5.5c0-0.1,0.1-0.3,0.1-0.4c0.5-1.6,1-3.2,1.4-4.9c0.6-2.3,3-3.7,5.3-3.2c1,0.2,1.9,0.5,2.8,0.8
		c1.7,0.6,3.6,0.1,4.7-1.3c1.2-1.4,1.3-3.4,0.3-4.9c-0.4-0.7-0.8-1.4-1.2-2.2c-1.2-2.1-0.4-4.8,1.7-6c0,0,0,0,0,0
		c1.7-1,3.5-1.9,5.2-2.8c2.2-1.1,4.8-0.3,6,1.9c0.5,0.8,0.9,1.6,1.3,2.4c0.8,1.5,2.4,2.3,4,2c1.7-0.1,3.1-1.3,3.6-2.9
		c0.3-0.8,0.5-1.7,0.7-2.5c0.6-2.4,3.1-3.9,5.6-3.3c0.1,0,0.3,0.1,0.4,0.1l4.7,1.4c2.4,0.6,3.9,3.1,3.3,5.5c0,0.1,0,0.2-0.1,0.3
		c-0.2,0.8-0.5,1.6-0.7,2.4c-0.7,2.2,0.5,4.6,2.8,5.3c1.1,0.4,2.4,0.2,3.4-0.4c0.7-0.4,1.4-0.8,2.2-1.2c2.2-1.2,5-0.4,6.2,1.8
		c0,0,0,0,0,0c0.9,1.6,1.8,3.3,2.7,4.9c1.2,2.1,0.5,4.8-1.6,6c-0.1,0-0.1,0.1-0.2,0.1c-0.8,0.4-1.6,0.8-2.4,1.3
		c-1.4,0.7-2.2,2.2-2.1,3.8c0,1.6,1,3.1,2.5,3.7c0.9,0.4,1.9,0.6,2.9,0.9c2.2,0.5,3.6,2.7,3.1,5c0,0.1-0.1,0.3-0.1,0.4
		c-0.5,1.9-1,3.7-1.6,5.5c-0.6,2.3-2.9,3.6-5.2,3.1c-0.2,0-0.3-0.1-0.4-0.1c-0.8-0.2-1.7-0.5-2.5-0.7c-1.6-0.4-3.3,0.2-4.3,1.6
		c-1,1.3-1.2,3-0.4,4.4c0.4,0.8,0.9,1.6,1.3,2.4c1.2,2.1,0.5,4.9-1.7,6.1c0,0-0.1,0-0.1,0.1c-1.6,1-3.3,1.8-5,2.7
		C241.1,116.4,239.9,116.5,238.7,116.1z M213.8,79.7c-2.3,7.7,2.2,15.8,9.9,18.1c7.7,2.3,15.8-2.2,18.1-9.9c2.3-7.7-2.1-15.8-9.8-18
		C224.2,67.6,216.1,72,213.8,79.7C213.8,79.7,213.8,79.7,213.8,79.7z"/>
</g>
<g id="Q83r0t-6">
	<path class="st1" d="M237,116.9c-1.2-0.3-2.1-1.1-2.7-2.1c-0.4-0.8-0.8-1.6-1.3-2.3c-0.8-1.5-2.5-2.4-4.2-2.2
		c-1.7,0.1-3.2,1.4-3.6,3c-0.3,0.9-0.5,1.8-0.8,2.7c-0.7,2.3-3.2,3.7-5.6,2.9c0,0,0,0,0,0c-1.7-0.5-3.4-1-5.1-1.5
		c-2.4-0.7-3.8-3.1-3.2-5.6c0,0,0-0.1,0-0.1c0.2-0.9,0.6-1.8,0.8-2.7c0.5-1.6-0.1-3.4-1.5-4.4c-1.3-1.1-3.1-1.3-4.5-0.4
		c-0.8,0.4-1.5,0.9-2.3,1.3c-2.2,1.2-5,0.4-6.2-1.8c0,0,0,0,0-0.1c-0.9-1.6-1.8-3.2-2.6-4.8c-1.3-2.1-0.6-4.8,1.6-6.1
		c0.1-0.1,0.2-0.1,0.3-0.1c0.7-0.4,1.5-0.8,2.2-1.2c1.5-0.8,2.3-2.4,2.1-4c-0.1-1.7-1.2-3.2-2.9-3.6c-0.9-0.3-1.8-0.5-2.7-0.8
		c-2.4-0.6-3.8-3.1-3.2-5.5c0-0.1,0.1-0.3,0.1-0.4c0.5-1.6,0.9-3.2,1.4-4.9c0.6-2.3,3-3.7,5.3-3.2c1,0.2,1.9,0.5,2.8,0.8
		c1.7,0.6,3.6,0,4.7-1.4c1.2-1.4,1.3-3.4,0.3-4.9c-0.4-0.7-0.8-1.4-1.2-2.2c-1.2-2.1-0.4-4.8,1.8-6c0,0,0,0,0,0
		c1.7-1,3.5-1.9,5.2-2.8c2.2-1.1,4.8-0.3,6,1.9c0.5,0.8,0.9,1.6,1.3,2.4c0.8,1.5,2.4,2.3,4,2c1.7-0.1,3.1-1.3,3.6-2.9
		c0.3-0.8,0.5-1.7,0.8-2.5c0.6-2.4,3.1-3.9,5.6-3.3c0.1,0,0.3,0.1,0.4,0.1l4.7,1.4c2.4,0.6,3.9,3.1,3.3,5.5c0,0.1,0,0.2-0.1,0.2
		c-0.2,0.8-0.5,1.6-0.7,2.5c-0.7,2.2,0.5,4.6,2.8,5.3c1.1,0.4,2.3,0.2,3.4-0.4c0.7-0.4,1.4-0.8,2.2-1.2c2.2-1.2,5-0.4,6.2,1.8
		c0,0,0,0,0,0c0.9,1.6,1.8,3.3,2.7,4.9c1.2,2.1,0.5,4.8-1.7,6c-0.1,0-0.1,0.1-0.2,0.1c-0.8,0.5-1.6,0.9-2.4,1.3
		c-1.4,0.7-2.2,2.2-2.1,3.8c0,1.6,1,3.1,2.5,3.7c1,0.4,1.9,0.6,2.9,0.9c2.2,0.5,3.6,2.7,3.1,5c0,0.1-0.1,0.3-0.1,0.4
		c-0.5,1.9-1,3.7-1.6,5.5c-0.6,2.3-2.9,3.6-5.2,3.1c-0.2,0-0.3-0.1-0.4-0.1c-0.8-0.2-1.7-0.5-2.5-0.7c-1.6-0.4-3.3,0.2-4.3,1.6
		c-1,1.3-1.2,3-0.4,4.4c0.4,0.8,0.9,1.6,1.3,2.4c1.2,2.1,0.5,4.8-1.6,6.1c-0.1,0-0.2,0.1-0.2,0.1c-1.6,1-3.3,1.8-5,2.7
		C239.4,117.1,238.2,117.3,237,116.9z M212.1,80.5c-2.3,7.7,2.2,15.8,9.9,18.1c7.7,2.3,15.8-2.2,18.1-9.9c2.3-7.7-2.1-15.8-9.8-18
		C222.5,68.3,214.4,72.7,212.1,80.5C212.1,80.4,212.1,80.5,212.1,80.5z"/>
</g>
<path class="st7" d="M166.4,148c0.3-0.3,0.6-0.5,1-0.7c0.4-0.2,0.8-0.1,1.1,0.2c0.2,0.3,0.3,0.7,0.2,1.1c-0.1,0.4-0.3,0.7-0.4,1.1
	c0,0.3-0.1,0.7-0.2,1c-0.3,0.5-0.7,0.9-1.3,1.1c-2.2,1.3-4.3,2.9-5.9,4.9c-0.2,0.2-0.3,0.4-0.5,0.5c-0.7,0.3-1.5,0.3-2.2-0.1
	c-1.4-0.8-2.7-1.9-3.6-3.3c-0.1-0.1-0.2-0.3-0.3-0.5c0-0.2,0-0.3,0.1-0.5c1-2.5,3.6-1.7,5.7-2C162.4,150.5,164.6,149.5,166.4,148z"
	/>
<path class="st8" d="M99.3,161.5c0,0,5.7,7.1,13.5,3.6c7.8-3.5,16.9-14.9,16.9-14.9s11.9,4.3,19.9,4.1l5.4,0.2
	c1.5-0.8,2.2-2.5,1.9-4.2c0,0-23.6-8.9-25.8-9.1c-2.7-0.4-5.4,0.1-7.8,1.3c-3.2,1.5-15.3,7.2-15.3,7.2L99.3,161.5z"/>
<path class="st5" d="M99.3,161.5c0,0,5.7,7.1,13.5,3.6c7.8-3.5,16.9-14.9,16.9-14.9s11.9,4.3,19.9,4.1l5.4,0.2
	c1.5-0.8,2.2-2.5,1.9-4.2c0,0-23.6-8.9-25.8-9.1c-2.7-0.4-5.4,0.1-7.8,1.3c-3.2,1.5-15.3,7.2-15.3,7.2L99.3,161.5z"/>
<path class="st8" d="M100.8,154.3c0,0-1.8,9.4,6.2,12.3c8,2.9,23.5,0.7,23.5,0.7s5.6,11.3,11.4,16.8l3.7,3.9
	c1.6,0.4,3.4-0.3,4.3-1.7c0,0-10.8-22.7-12.2-24.5c-1.7-2.1-3.9-3.7-6.5-4.5c-3.3-1.1-22.1-7.8-22.1-7.8L100.8,154.3z"/>
<path class="st7" d="M158.4,191.4c0.4,0,0.8,0.1,1.1,0.2c0.4,0.1,0.6,0.5,0.7,0.9c0,0.4-0.3,0.7-0.6,0.9c-0.3,0.2-0.7,0.3-1,0.5
	c-0.3,0.2-0.6,0.4-0.9,0.6c-0.6,0.1-1.1,0.1-1.7-0.1c-2.5-0.7-5.1-0.9-7.6-0.7c-0.2,0-0.5,0-0.7,0c-0.7-0.2-1.3-0.8-1.5-1.6
	c-0.5-1.6-0.6-3.2-0.3-4.9c0-0.2,0.1-0.4,0.1-0.5c0.1-0.1,0.2-0.2,0.4-0.3c2.4-1.1,3.7,1.3,5.5,2.5
	C153.8,190.3,156.1,191.2,158.4,191.4z"/>
<polygon class="st1" points="132.9,121.3 129.3,141.3 113.7,145.3 113.5,143.9 127.7,140 131.2,121.1 "/>
<polygon class="st1" points="128.1,133.9 122.3,134.9 113.5,143.9 127.7,140 "/>
<linearGradient id="SVGID_1_" gradientUnits="userSpaceOnUse" x1="-20.9603" y1="232.0724" x2="-25.1744" y2="218.2313" gradientTransform="matrix(1.3196 0 0 -1.3196 152.0159 435.9283)">
	<stop  offset="1.000000e-02" style="stop-color:#000000"/>
	<stop  offset="0.13" style="stop-color:#000000;stop-opacity:0.69"/>
	<stop  offset="0.25" style="stop-color:#000000;stop-opacity:0.32"/>
	<stop  offset="1" style="stop-color:#000000;stop-opacity:0"/>
</linearGradient>
<polygon class="st9" points="128.1,133.9 122.3,134.9 113.5,143.9 127.7,140 "/>
<polygon class="st1" points="128,134.5 125.7,134.9 120.1,141.3 126.6,140 "/>
<polygon class="st1" points="126.9,140.5 130.4,120.7 140.5,116 141.2,116.3 127.7,140 "/>
<path class="st7" d="M102.1,115.9c0.4,0.4,1,0.6,1.3,1.2s0,1.4-0.1,2.1c-0.2,1,0.1,1.9-0.1,3c0,0.2-0.1,0.4-0.2,0.6
	c-0.1,0.1-0.3,0.2-0.5,0.3c-0.7,0.3-1.4,0.4-2.1,0.5c-0.1,0-0.3,0-0.4,0.1c-0.1,0.1-0.1,0.2-0.1,0.4c-0.1,1.8,0.2,3.6,1,5.3
	c0.2,0.5,0.5,1.2,0.2,1.7c-0.1,0.2-0.3,0.3-0.5,0.4c-1.3,0.5-2.7-0.2-3.8-1.1c-0.9-0.8-1.8-1.7-2.5-2.7c-0.2-0.3-0.4-0.6-0.5-0.9
	c-0.1-0.4-0.1-0.9,0-1.3c0.2-1.5,0.2-3,0-4.5c-0.2-1.9-0.7-3.9-0.2-5.8c0.1-0.6,0.4-1.2,0.9-1.7c0.6-0.4,1.2-0.6,1.9-0.7
	c1.4-0.2,2.9-0.2,4.1,0.6C100.7,113.5,101.6,115.4,102.1,115.9z"/>
<path class="st10" d="M93.9,126.7c0,0,6.2,2,8.3,4c2.1,2,5.2,3.3,4.9,7.8c-0.3,4.6,2.1,11,2.1,11s-1.2,8.2-6.9,11.2
	s-4.2,2.1-4.2,2.1s-5.6-13.9-7.5-17.7C88.6,141.3,88.3,127,93.9,126.7z"/>
<path class="st5" d="M104.2,157.7c0.1,0.4,0.1,0.9-0.1,1.3c-0.2,0.3-0.5,0.6-0.8,0.8c-0.7,0.6-1.5,1.1-2.4,1.4
	c-0.9,0.3-1.9,0.2-2.7-0.3c-0.4-0.3-0.7-0.8-1-1.2c-2.3-3.5-4.2-7.3-5.6-11.2c-1.5-4-1.9-8.2-1.2-12.4l3.8,4.3
	c1.6,1.9,3.3,3.6,5.2,5.1c1.9,1.5,4.3,2.3,6.8,2.2c2.8-0.2,3,1.5,1.8,3.9s-2.5,1.1-4.5,0.8C102.6,153.8,103.9,156,104.2,157.7z"/>
<path class="st4" d="M97.9,125.8c0.2,0.9,0.3,1.9,0.3,2.9c0,0.4-0.1,0.8-0.3,1.1c-0.2,0.3-0.5,0.6-0.8,0.9c-0.8,0.6-1.7,1.2-2.7,1.6
	c-0.9,0.3-1.8,0.7-2.6,1.2l-0.1,0c-1.3,0.8-2.2,2-2.6,3.4c-0.1,0.3-0.9-0.6-0.9-0.7c-0.2-0.4-0.4-0.8-0.6-1.3
	c-0.3-1.1-0.6-2.2-0.6-3.3c-0.4-2.4-3.4-6.5-1.9-8.9c0.5-0.8,1.4-1.3,2-2l0,0c1.4-1.6,1.2-4,1.9-5.9c0.6-1.8,1.9-3.2,3.6-4
	c2.3-1,6.8-1,7,2.4c0.1,1.5-0.8,2.5-1.6,3.6c-0.9,1.1-1.4,2.5-1.5,3.9C96.6,122.5,97.5,124.1,97.9,125.8z"/>
<path class="st10" d="M97.4,133.8c0,0,5.2,9.1,6,9.7c0.8,0.6-6.1,6.2-6.1,6.2s-6.5-8.6-7-12.8C89.9,132.8,93.9,130.4,97.4,133.8z"/>
<path class="st7" d="M97.1,148.4c0,0,0.8,3.1,4.6,2.4l17-3.1c1.1-0.8,2.6-1.2,3.3-2.3c0.3-0.5,0.4-1.2,0.8-1.7
	c0.5-0.7,1.1-1.2,1.9-1.4c0.8-0.3,1.6-0.4,2.4-0.5c0.2-0.4,0.1-1-0.2-1.3c-0.4-0.3-0.9-0.5-1.4-0.5c-2-0.2-4.1,0.5-5.6,1.8
	c-0.4,0.4-0.9,0.8-1.5,1.1c-0.4,0.2-0.8,0.3-1.3,0.3c-5,0.6-10,0.3-15,0.9c-1.2,0.1-2.3,0.4-3.4,1C97.8,145.8,97.1,147.1,97.1,148.4
	z"/>
<path class="st11" d="M91.6,118.7c-0.1,1.8,0.6,3.6,0.4,5.3c-0.2,1.2-0.6,2.4-1,3.5c-0.4,1.6-0.6,3.6,0.3,5c0.2,0.3,0.3,0.6,0.5,1
	c-1.3,0.8-2.2,2-2.6,3.4c-0.1,0.3-0.9-0.6-0.9-0.7c-0.2-0.4-0.4-0.8-0.6-1.3c-0.3-1.1-0.6-2.2-0.6-3.3c-0.4-2.4-3.4-6.5-1.9-8.9
	c0.5-0.8,1.4-1.3,2-2l0,0c0.2-0.2,0.4-0.3,0.6-0.5c0.8-1,1.5-2,2.1-3.2c1.2-1.8,3-3.1,5-3.8C93,114.4,91.7,116.5,91.6,118.7z"/>
<polygon class="st1" points="141.2,116.3 131.2,121.1 127.7,140 129.3,141.3 137,135.7 "/>
<linearGradient id="SVGID_2_" gradientUnits="userSpaceOnUse" x1="-12.4595" y1="212.6054" x2="-13.4965" y2="237.3533" gradientTransform="matrix(1.3196 0 0 -1.3196 152.0159 435.9283)">
	<stop  offset="1.000000e-02" style="stop-color:#000000"/>
	<stop  offset="0.13" style="stop-color:#000000;stop-opacity:0.69"/>
	<stop  offset="0.25" style="stop-color:#000000;stop-opacity:0.32"/>
	<stop  offset="1" style="stop-color:#000000;stop-opacity:0"/>
</linearGradient>
<polygon class="st12" points="141.2,116.3 131.2,121.1 127.7,140 129.3,141.3 137,135.7 "/>
<polygon class="st1" points="120.8,137 123.4,136.7 121,139.7 118.2,139.8 "/>
</svg>
