<?xml version="1.0" encoding="utf-8"?>
<!-- Generator: Adobe Illustrator 25.2.3, SVG Export Plug-In . SVG Version: 6.00 Build 0)  -->
<svg version="1.1" id="Camada_1" xmlns="http://www.w3.org/2000/svg" xmlns:xlink="http://www.w3.org/1999/xlink" x="0px" y="0px"
	 viewBox="0 0 44 45" style="enable-background:new 0 0 44 45;" xml:space="preserve">
<style type="text/css">
	.st0{fill:#73080C;}
</style>
<g>
	<g transform="scale(5.12,5.12)">
		<path class="st0" d="M3.4,0C1.5,0,0,1.5,0,3.4s1.5,3.4,3.4,3.4c0.7,0,1.3-0.2,1.8-0.5l2.5,2.5l0.9-0.9L6.1,5.5
			c0.4-0.6,0.7-1.3,0.7-2.1C6.8,1.5,5.3,0,3.4,0z M3.4,0.8C4.9,0.8,6,2,6,3.4S4.9,6,3.4,6S0.8,4.9,0.8,3.4S2,0.8,3.4,0.8z"/>
	</g>
</g>
</svg>
