<?xml version="1.0" encoding="utf-8"?>
<!-- Generator: Adobe Illustrator 25.2.3, SVG Export Plug-In . SVG Version: 6.00 Build 0)  -->
<svg version="1.1" id="Layer_1" xmlns="http://www.w3.org/2000/svg" xmlns:xlink="http://www.w3.org/1999/xlink" x="0px" y="0px"
	 viewBox="0 0 258.4 225" style="enable-background:new 0 0 258.4 225;" xml:space="preserve">
<style type="text/css">
	.st0{opacity:0.24;fill:#73080C;enable-background:new    ;}
	.st1{fill:#73080C;}
	.st2{fill:url(#SVGID_1_);}
	.st3{fill:url(#SVGID_2_);}
	.st4{fill:url(#SVGID_3_);}
	.st5{fill:url(#SVGID_4_);}
	.st6{fill:url(#SVGID_5_);}
	.st7{fill:url(#SVGID_6_);}
	.st8{fill:url(#SVGID_7_);}
	.st9{fill:url(#SVGID_8_);}
	.st10{fill:url(#SVGID_9_);}
	.st11{fill:url(#SVGID_10_);}
</style>
<path class="st0" d="M239.6,218.2c-4.3,12.3-34.4,4.3-43.3,3.7c-8.4-0.6-16.7-1-25.1-1.3c-22.9-0.8-45.9-0.5-68.8,0.9
	c-5.4,0.3-10.9,0.7-16.3,1.1c-10.8,0.9-21.8,2-32.5,0.4c-0.8-0.1-1.7-0.3-2.6-0.4c-9.7-1.9-19.4-6.6-25.4-14.3
	c-1.1-1.4-2.1-2.9-2.9-4.5c-5.7-11-3.8-24.3-6.5-36.4C14,156.5,8,146.9,4.3,136.5C-9.5,97.4,11,54.6,50,40.8c1.3-0.5,2.6-0.9,4-1.3
	c18.4-5.4,38.3-3.6,56.5-9.2c19.3-6,35.3-19.7,54.4-26.2c16.9-5.7,35.1-5.4,51.8,0.8c19.4,7.2,37,27.4,30.8,47.2
	c-2.6,8.2-8.9,15.2-9.7,23.7c-1.6,16.7,17.6,28.5,20.2,45c3,18.7-15.3,32.8-26.7,47.9c-3.1,4.1-5.9,8.8-6.7,13.9
	C222.5,196.1,242.8,209,239.6,218.2z"/>
<path class="st1" d="M136,86.1c0,0,7.1,1.8,6.3,3.8c-0.8,2-4,4-8.5,6.3l0.2,2.2c0,0,11.9-3.6,13.4-8.5c0.8-2.9,0.2-6-1.6-8.4
	L136,86.1z"/>
<linearGradient id="SVGID_1_" gradientUnits="userSpaceOnUse" x1="169.8514" y1="-35.4928" x2="161.0928" y2="-20.0347" gradientTransform="matrix(0.9416 -0.1522 -0.1522 -0.9416 -22.3155 86.4375)">
	<stop  offset="0" style="stop-color:#000000;stop-opacity:0"/>
	<stop  offset="0.95" style="stop-color:#000000"/>
</linearGradient>
<path class="st2" d="M136,86.1c0,0,7.1,1.8,6.3,3.8c-0.8,2-4,4-8.5,6.3l0.2,2.2c0,0,11.9-3.6,13.4-8.5c0.8-2.9,0.2-6-1.6-8.4
	L136,86.1z"/>
<path class="st1" d="M134.2,78.6c0,0-4.8,2.9-5.6,3.5c-0.8,0.6-0.8,2.7,1.1,5c2.7,3.3,5,2.5,5,2.5l4.7-4.8L134.2,78.6z"/>
<linearGradient id="SVGID_2_" gradientUnits="userSpaceOnUse" x1="156.9417" y1="-23.765" x2="168.436" y2="-23.765" gradientTransform="matrix(0.9416 -0.1522 -0.1522 -0.9416 -22.3155 86.4375)">
	<stop  offset="0" style="stop-color:#000000;stop-opacity:0"/>
	<stop  offset="0.95" style="stop-color:#000000"/>
</linearGradient>
<path class="st3" d="M134.2,78.6c0,0-4.8,2.9-5.6,3.5c-0.8,0.6-0.8,2.7,1.1,5c2.7,3.3,5,2.5,5,2.5l4.7-4.8L134.2,78.6z"/>
<path class="st1" d="M130.3,81.6c4.4-7.4,10.2-13.8,17.2-18.8c11.7-8.6,29-15,34.7-13.1c5.8,1.8-1.5,15.5-25.5,28.6
	c-0.5,0.3-4,2.2-4.5,2.4l-16.7,7C135.5,87.7,132.4,87.5,130.3,81.6z"/>
<linearGradient id="SVGID_3_" gradientUnits="userSpaceOnUse" x1="192.2107" y1="-15.4915" x2="180.6061" y2="4.3128" gradientTransform="matrix(0.9416 -0.1522 -0.1522 -0.9416 -22.3155 86.4375)">
	<stop  offset="2.000000e-02" style="stop-color:#FFFFFF;stop-opacity:0"/>
	<stop  offset="0.32" style="stop-color:#FFFFFF;stop-opacity:0.39"/>
	<stop  offset="0.68" style="stop-color:#FFFFFF;stop-opacity:0.68"/>
	<stop  offset="1" style="stop-color:#FFFFFF"/>
</linearGradient>
<path class="st4" d="M130.3,81.6c4.4-7.4,10.2-13.8,17.2-18.8c11.7-8.6,29-15,34.7-13.1c5.8,1.8-1.5,15.5-25.5,28.6
	c-0.5,0.3-4,2.2-4.5,2.4l-16.7,7C135.5,87.7,132.4,87.5,130.3,81.6z"/>
<path class="st1" d="M140,69.3c0,0-5.2-5.1-11-2.6c-5.8,2.5-14.2,15-14.2,15l2.9,0.2c0,0,9.6-9.1,11.4-8.4c1.7,0.7,1.9,7,1.9,7
	s4-0.5,6.9-5.2C140.7,70.5,140,69.3,140,69.3z"/>
<linearGradient id="SVGID_4_" gradientUnits="userSpaceOnUse" x1="165.1467" y1="0.5971" x2="149.1444" y2="-28.0099" gradientTransform="matrix(0.9416 -0.1522 -0.1522 -0.9416 -22.3155 86.4375)">
	<stop  offset="2.000000e-02" style="stop-color:#FFFFFF;stop-opacity:0"/>
	<stop  offset="0.32" style="stop-color:#FFFFFF;stop-opacity:0.39"/>
	<stop  offset="0.68" style="stop-color:#FFFFFF;stop-opacity:0.68"/>
	<stop  offset="1" style="stop-color:#FFFFFF"/>
</linearGradient>
<path class="st5" d="M140,69.3c0,0-5.2-5.1-11-2.6c-5.8,2.5-14.2,15-14.2,15l2.9,0.2c0,0,9.6-9.1,11.4-8.4c1.7,0.7,1.9,7,1.9,7
	s4-0.5,6.9-5.2C140.7,70.5,140,69.3,140,69.3z"/>
<linearGradient id="SVGID_5_" gradientUnits="userSpaceOnUse" x1="53.1061" y1="44.0713" x2="206.0986" y2="44.0713" gradientTransform="matrix(0.9511 0 0 -0.9511 -24.7749 194.5349)">
	<stop  offset="2.000000e-02" style="stop-color:#FFFFFF;stop-opacity:0"/>
	<stop  offset="0.32" style="stop-color:#FFFFFF;stop-opacity:0.39"/>
	<stop  offset="0.68" style="stop-color:#FFFFFF;stop-opacity:0.68"/>
	<stop  offset="1" style="stop-color:#FFFFFF"/>
</linearGradient>
<path class="st6" d="M171.2,220.7c-22.9-0.8-45.9-0.5-68.8,0.9c-5.4,0.3-10.9,0.7-16.3,1.1c-10.8,0.9-21.8,2-32.5,0.4
	c-0.8-0.1-1.7-0.3-2.6-0.4c-9.7-1.9-19.4-6.6-25.4-14.3c2.9-32.9,21.7-54.2,29.8-64.8c13.6-17.8,68.3-59.9,73.9-61.5l0,0
	c5.5-1.6,4.2,0.7,4.2,0.7l1.1,6.9l0,0c-1.1,0.7-87,60.1-47,97.2C108.7,206.2,141.7,215.9,171.2,220.7z"/>
<linearGradient id="SVGID_6_" gradientUnits="userSpaceOnUse" x1="143.7021" y1="8.377" x2="81.252" y2="114.9805" gradientTransform="matrix(0.9511 0 0 -0.9511 -24.7749 194.5349)">
	<stop  offset="2.000000e-02" style="stop-color:#FFFFFF;stop-opacity:0"/>
	<stop  offset="0.32" style="stop-color:#FFFFFF;stop-opacity:0.39"/>
	<stop  offset="0.68" style="stop-color:#FFFFFF;stop-opacity:0.68"/>
	<stop  offset="1" style="stop-color:#FFFFFF"/>
</linearGradient>
<path class="st7" d="M60.4,169.5c-10.6,26,10.9,41.2,42,52c-5.4,0.3-10.9,0.7-16.3,1.1c-10.8,0.9-21.8,2-32.5,0.4
	c-5.9-13.1-8.4-25.2-8.1-33.7c1.8-46.9,82.5-106.4,83.8-107.3l0,0l5.3,7.5l0,0C133.7,89.8,86,106.6,60.4,169.5z"/>
<linearGradient id="SVGID_7_" gradientUnits="userSpaceOnUse" x1="204.5601" y1="-15.5477" x2="202.5598" y2="4.8523" gradientTransform="matrix(0.9416 -0.1522 -0.1522 -0.9416 -22.3155 86.4375)">
	<stop  offset="2.000000e-02" style="stop-color:#FFFFFF;stop-opacity:0"/>
	<stop  offset="0.32" style="stop-color:#FFFFFF;stop-opacity:0.39"/>
	<stop  offset="0.68" style="stop-color:#FFFFFF;stop-opacity:0.68"/>
	<stop  offset="1" style="stop-color:#FFFFFF"/>
</linearGradient>
<circle class="st8" cx="170.3" cy="61.2" r="3.9"/>
<linearGradient id="SVGID_8_" gradientUnits="userSpaceOnUse" x1="204.4084" y1="-14.0103" x2="202.739" y2="3.0363" gradientTransform="matrix(0.9416 -0.1522 -0.1522 -0.9416 -22.3155 86.4375)">
	<stop  offset="2.000000e-02" style="stop-color:#FFFFFF;stop-opacity:0"/>
	<stop  offset="0.32" style="stop-color:#FFFFFF;stop-opacity:0.39"/>
	<stop  offset="0.68" style="stop-color:#FFFFFF;stop-opacity:0.68"/>
	<stop  offset="1" style="stop-color:#FFFFFF"/>
</linearGradient>
<circle class="st9" cx="170.3" cy="61.2" r="3.2"/>
<linearGradient id="SVGID_9_" gradientUnits="userSpaceOnUse" x1="253.1128" y1="40.5001" x2="218.674" y2="101.4868" gradientTransform="matrix(0.9511 0 0 -0.9511 -24.7749 194.5349)">
	<stop  offset="2.000000e-02" style="stop-color:#FFFFFF;stop-opacity:0"/>
	<stop  offset="0.32" style="stop-color:#FFFFFF;stop-opacity:0.39"/>
	<stop  offset="0.68" style="stop-color:#FFFFFF;stop-opacity:0.68"/>
	<stop  offset="1" style="stop-color:#FFFFFF"/>
</linearGradient>
<path class="st10" d="M199.2,114.6c-7-3.3-15.1-4.3-22.5-2.1c-7.4,2.2-13.8,7.9-16.1,15.2c-0.7,2-1,4.2-2.3,5.9
	c-1.6,2.2-4.4,3.3-6.5,5c-6.7,5.4-5.5,16.9,0.9,22.6c6.4,5.7,16,6.4,24.3,4.3c8.7,9.8,23.3,13.8,35.8,9.9c2.4,3.7,7.8,4.5,11.9,3
	s7.4-4.7,10.5-7.8l9.5-9.5c5.3-5.3,10.7-10.8,14.5-17.3c3.8-6.5,5.8-14.4,3.9-21.7c-3.1-11.6-14.9-18.5-26.5-15.4
	c-2.5,0.7-4.9,1.8-7.1,3.3c-1.2-7.8-7.7-8.9-15.1-7.4C212.5,103,196.3,113.2,199.2,114.6z"/>
<linearGradient id="SVGID_10_" gradientUnits="userSpaceOnUse" x1="57.9418" y1="92.5502" x2="95.2854" y2="131.4454" gradientTransform="matrix(0.9511 0 0 -0.9511 -24.7749 194.5349)">
	<stop  offset="2.000000e-02" style="stop-color:#FFFFFF;stop-opacity:0"/>
	<stop  offset="0.32" style="stop-color:#FFFFFF;stop-opacity:0.39"/>
	<stop  offset="0.66" style="stop-color:#FFFFFF;stop-opacity:0.68"/>
	<stop  offset="1" style="stop-color:#FFFFFF"/>
</linearGradient>
<path class="st11" d="M45.9,75.2c3.6-2,7.7-3.4,11.7-2.6s7.6,4.5,7.2,8.5c4.3-0.4,8.1,2.7,8.6,6.9c0.3,3-1.2,6-3.8,7.5
	c4.3,3.2,4.1,10.2,0.6,14.2s-9.3,5.4-14.6,5c-5.3-0.4-10.4-2.3-15.5-3.7c-1.4-0.5-2.8-0.7-4.3-0.4c-1.6,0.4-2.8,1.5-4.1,2.5
	c-5.9,4.5-13.4,6.2-20.6,4.7c-2.3-0.4-4.5-1.4-6.3-2.9c-2.4-2.2-3.6-5.5-3.9-8.8c-1-8.8,3.5-18.4,11.7-21.7c0,0,1.1-4.6,1.4-5.1
	c0.9-1.7,2.2-3.3,3.8-4.5c2.8-2.2,6.4-3.3,9.7-4.4C33.9,68.5,44,65.5,45.9,75.2z"/>
</svg>
