<?xml version="1.0" encoding="utf-8"?>
<!-- Generator: Adobe Illustrator 25.2.3, SVG Export Plug-In . SVG Version: 6.00 Build 0)  -->
<svg version="1.1" id="Camada_1"
	 xmlns="http://www.w3.org/2000/svg" xmlns:xlink="http://www.w3.org/1999/xlink" x="0px" y="0px" viewBox="0 0 233.5 225"
	 style="enable-background:new 0 0 233.5 225;" xml:space="preserve">
<style type="text/css">
	.st0{fill:#73080C;fill-opacity:0.1804;}
	.st1{fill:#73080C;}
	.st2{fill:#473F47;}
	.st3{fill:#020202;fill-opacity:0.102;}
	.st4{fill:#FCBDBA;}
	.st5{fill:#FFFFFF;}
	.st6{fill:#020202;fill-opacity:0.2784;}
	.st7{fill:#FC682D;}
	.st8{fill:url(#SVGID_1_);}
</style>
<g id="Camada_x0020_1">
	<path class="st0" d="M116.6,0.8c-30.4,4-59,22.4-73.7,49.4C38.6,58,35.5,66.4,30.9,74C25.8,82.4,19,89.7,13.7,98
		C-2.6,122.8-4,155.9,7.8,182.8c8.9,20.3,25.9,32.1,48.1,32.2c10.9,0,21.2-3.8,31.9-4.3c14.8-0.7,30.4,4,44.6,7.5
		c15.9,3.9,32.1,7.7,48.5,6.7c16.3-1,33.1-7.5,42.8-20.6c9.6-13,11.1-30.5,8.8-46.5c-2.3-16-7.8-31.4-10.8-47.3
		c-3.4-18.4-3.5-37.6-10-55.1c-10-26.9-35.1-46.9-63-53.1C142.2,0.7,135.6,0,129,0C124.8,0,120.6,0.3,116.6,0.8L116.6,0.8L116.6,0.8
		z"/>
	<path class="st1" d="M163.3,37.1v143.1c0,6.9-5.6,12.5-12.5,12.5l-61.9,0c-6.9,0-12.5-5.6-12.5-12.5l0-143.1c0,0,0,0,0,0
		c0-6.9,5.6-12.5,12.5-12.5h61.9C157.7,24.6,163.3,30.2,163.3,37.1C163.3,37.1,163.3,37.1,163.3,37.1L163.3,37.1z"/>
	<path class="st2" d="M90.1,26.7h59.3c6.7,0,12.1,5.4,12.1,12.1l0,139.4c0,6.7-5.4,12.1-12.1,12.1l-59.3,0
		c-6.7,0-12.1-5.4-12.1-12.1l0-139.4C78.1,32.1,83.5,26.7,90.1,26.7L90.1,26.7z"/>
	<path class="st1" d="M159.3,40.1v135c-0.1,6.3-5.2,11.4-11.5,11.4c0,0-0.1,0-0.1,0l-55.6,0c0,0,0,0,0,0c-2,0-4-0.5-5.8-1.5
		c-3.6-2-5.9-5.8-5.9-9.9l0-135c0.1-6.3,5.2-11.4,11.5-11.4c0,0,0.1,0,0.1,0l9.4,0v1.7c0,2.2,1.4,4.2,3.5,5c0.7,0.3,1.4,0.4,2.1,0.4
		l25.8,0c0,0,0,0,0,0c3.1,0,5.6-2.5,5.6-5.5v-1.6h9.1c0,0,0,0,0.1,0c3,0,5.9,1.1,8,3.2C158,34,159.3,37,159.3,40.1L159.3,40.1z"/>
	<path class="st3" d="M159.3,104.2v39.4h-34.1c0,0,0,0,0,0c-2,0-3.6-1.6-3.6-3.6c0,0,0,0,0,0l0,0v-32.3c0,0,0,0,0,0
		c0-2,1.6-3.6,3.6-3.6l0,0L159.3,104.2z"/>
	<path class="st2" d="M61.5,137.7h25.4c0.9,0,1.7,0.7,1.7,1.7l0,0c0,0.9-0.7,1.7-1.7,1.7l-25.4,0c-0.9,0-1.7-0.7-1.7-1.7l0,0
		C59.8,138.4,60.6,137.7,61.5,137.7L61.5,137.7L61.5,137.7z"/>
	<path class="st4" d="M65.6,128.8l-0.8,5l2.1,0.2l2.3-5.3L65.6,128.8L65.6,128.8z"/>
	<path class="st1" d="M67.6,133.3c-0.1-0.1-0.2-0.2-0.3-0.3c-0.1,0.1-0.3,0.1-0.5,0.1c-0.1,0-0.2,0-0.2,0l-1-0.2
		c-0.2,0-0.4-0.1-0.5-0.1c0,0,0,0,0,0c0,0,0,0,0,0l0,0l-0.2,0.4c-0.4,0.8-0.6,1.6-0.7,2.5c1.7,0.4,3.5,0.6,5.2,0.6
		c0.3,0,0.6,0,0.9,0c0,0,0.1,0,0.1,0c0.3,0,0.6-0.1,0.8-0.4c0-0.1,0.1-0.2,0.1-0.3c0-0.1,0-0.2-0.1-0.3c-0.2-0.4-0.5-0.7-1-0.9
		c-0.5-0.2-1.1-0.4-1.6-0.7C68.1,133.7,67.8,133.5,67.6,133.3L67.6,133.3L67.6,133.3z"/>
	<path class="st4" d="M79.7,130.3l-0.7,5l2.1,0.2l2.2-5.3L79.7,130.3z"/>
	<path class="st3" d="M151.1,60.5V76c0,4.2-3.4,7.7-7.7,7.7H98.6l-18.2,20.9V52.8h63.1c0,0,0,0,0,0
		C147.7,52.8,151.1,56.3,151.1,60.5L151.1,60.5z"/>
	<path class="st5" d="M90.8,46.3h50.8c4.2,0,7.7,3.4,7.7,7.7l0,15.5c0,4.2-3.4,7.7-7.7,7.7l-50.8,0c-4.2,0-7.7-3.4-7.7-7.7l0-15.5
		C83.2,49.7,86.6,46.3,90.8,46.3L90.8,46.3z"/>
	<path class="st3" d="M92.1,73.2c0,0-0.1,0-0.1,0c-0.2,0-0.4,0-0.6-0.1c-0.4-0.3-0.6-0.7-0.7-1.1c-1.3-3.9-3.8-7.6-7.7-8.8
		c-1,4.1-0.9,8.4-0.9,12.7c0,1.1,0.1,2.4,1,3.1c0.5,0.3,1.2,0.5,1.8,0.5c0.1,0,0.1,0,0.2,0c0.3,0,0.6,0,1,0c4.1,0,8.1-0.9,11.7-2.7
		c1.2-0.6,3.6-2.9,1.4-3.6c-0.7-0.2-2.2,0.1-2.9,0.1L92.1,73.2L92.1,73.2z"/>
	<circle class="st1" cx="148" cy="46.2" r="5.5"/>
	<path class="st6" d="M153.6,46.2c0-3-2.5-5.5-5.5-5.5c-3,0-5.5,2.5-5.5,5.5c0,3,2.5,5.5,5.5,5.5C151.1,51.7,153.6,49.2,153.6,46.2z
		"/>
	<path class="st1" d="M97.7,56.1h35.9c0.8,0,1.5,0.7,1.5,1.5h0c0,0.8-0.7,1.5-1.5,1.5H97.7c-0.8,0-1.5-0.7-1.5-1.5h0
		C96.2,56.8,96.9,56.1,97.7,56.1L97.7,56.1z"/>
	<path class="st1" d="M97.7,64.2h35.9c0.8,0,1.5,0.7,1.5,1.5l0,0c0,0.8-0.7,1.5-1.5,1.5l-35.9,0c-0.8,0-1.5-0.7-1.5-1.5l0,0
		C96.2,64.9,96.9,64.2,97.7,64.2L97.7,64.2z"/>
	<path class="st2" d="M65.4,94l3.1,17.4l-3.1,18.7l5.1,0.4l7.4-21l-2.5-16.7L65.4,94L65.4,94z"/>
	<path class="st2" d="M82.9,92.8l5.6,23.1L84,131.8l-4.5-0.2l0.6-13.6L72.2,96L82.9,92.8z"/>
	<path class="st4" d="M98.4,73.6c0.7-0.4,1.4-0.7,2.2-0.9c0.1,0,0.2-0.1,0.3-0.1c0.1,0,0.3,0,0.4,0.1c0.1,0.1,0.2,0.3,0.2,0.4
		c0,0.2,0.1,0.4,0.1,0.6c0,0.3-0.1,0.6-0.2,1c0.8,0.5,1.7,0.9,2.7,1.2c0.4,0.1,0.7,0.3,0.9,0.6c0,0.1,0,0.2,0,0.3
		c0,0.3-0.1,0.5-0.3,0.7c-0.3,0.2-0.6,0.4-1,0.4c-2.3,0.5-6.1,0-6.6-2.8c-0.1-0.6,0.1-0.7,0.6-1.1C97.9,73.9,98.2,73.7,98.4,73.6z"
		/>
	<path class="st4" d="M81,52.3c0.5,1.1,0.9,2.2,1,3.4c0,0.1,0,0.2,0,0.3c0,1.1-0.5,2.1-1.4,2.7c-0.3,0.1-0.6,0.3-0.8,0.5
		c-0.8,0.9,0.1,2.4-0.4,3.6c-0.3,0.6-0.9,0.9-1.5,0.9c-0.2,0-0.4,0-0.6-0.1c-0.8-0.3-1.3-1-1.6-1.8c-0.2-0.7-0.3-1.5-0.3-2.2
		c0-0.1,0-0.2,0-0.3l-0.1-5c0-0.2,0-0.5,0-0.7c0-0.9,0.2-1.8,0.5-2.6c0.6-1,1.7-1.6,2.8-1.6c0.1,0,0.1,0,0.2,0
		C80.2,49.4,80.6,51.3,81,52.3L81,52.3z"/>
	<path class="st5" d="M98.5,77.3c0,0-9.6,8.6-10.3,8.6c-0.7,0-5-5.4-5-5.4l-0.4,12.2c-1.2,0.7-2.4,1.3-3.7,1.8
		c-2.1,0.9-4.7,1.6-7,1.4c-4.7-0.4-6.7-2-6.7-2l2.9-28.8c0,0,5.5-3.9,7.3-3.3c0.7,0.1,1.3,0.2,2,0.2c0.7,0,1.4-0.1,2-0.2
		c2.7-0.4,5.4,3.3,5.4,3.3l3.6,11.8l8.4-3c0.9,0.6,1.5,1.6,1.5,2.7C98.6,76.9,98.6,77.1,98.5,77.3L98.5,77.3L98.5,77.3z"/>
	<path class="st7" d="M82.1,46.9c0-0.1,0-0.2,0-0.3c0-0.5-0.2-1.1-0.4-1.5c-0.7-0.9-2-1-3.1-0.7c-0.7,0.2-1.5,0.5-2.2,0.8
		c-0.4,0.2-0.8,0.2-1.2,0.2c-0.1,0-0.3,0-0.4,0c0,0-0.1,0-0.1,0c-1.4,0-2.8,0.5-3.8,1.5c-1.5,1.4-1.8,3.4-2,5.4
		c-0.2,2.2,0.8,4,2.2,5.6c1.2,1.4,3.4,2.9,5,1c0.6-0.8,0.9-1.8,0.9-2.8c0-0.2,0-0.3,0-0.5c-0.8-0.1-1.4-0.6-1.6-1.4
		c0-0.1,0-0.2,0-0.3c0-0.4,0.2-0.7,0.5-1c0.2-0.1,0.3-0.1,0.5-0.1c0.4,0,0.7,0.2,0.9,0.5c0,0.1,0.1,0.2,0.1,0.2
		c0.2-0.5,0.4-1,0.5-1.5c0.2-0.5,0.8-0.9,1.2-0.6c0.2,0.2,0.4,0.6,0.7,0.5c0.1,0,0.2-0.1,0.2-0.2c0.6-0.6,1.1-1.2,1.5-1.9
		c0.4-0.8,0.5-1.7,0.5-2.6C82,47.1,82.1,47,82.1,46.9L82.1,46.9z"/>
	<path class="st7" d="M63.1,45.8c-0.2,0-0.4,0-0.6,0c-1.9,0-3.6,1-4.4,2.7c-1.1,2.3-0.3,5-0.1,7.5c0,0.2,0.1,0.5,0.1,0.7
		c0,1.6-0.9,3-2.4,3.6c-1.8,1.1-3.8,1.8-5.3,3.3c-1.1,1.3-1.8,2.8-1.9,4.5c0,0.2,0,0.3,0,0.5c0,0.6,0.1,1.1,0.4,1.6
		c0.3,0.5,0.7,0.9,1.2,1.1c2.1,1.5,4.6,2.3,7.2,2.3c0.7,0,1.4-0.1,2-0.2c3.2-0.7,6-3.1,6.7-6.3c0.7-3.4-1-6.7-1.6-10.1
		c-0.1-0.3-0.1-0.6-0.1-0.9c0-0.5,0.1-1,0.4-1.5c0.5-0.7,1.5-0.9,2.3-1.3C71.1,50.9,66.2,46.2,63.1,45.8L63.1,45.8z"/>
	<path class="st1" d="M69,49L69,49c0.9,0,1.7,0.7,1.7,1.6l0,0.1c0,0.9-0.7,1.6-1.6,1.6l-0.1,0c-0.9,0-1.6-0.7-1.6-1.6l0-0.1
		C67.4,49.7,68.1,49,69,49L69,49z"/>
	<path class="st1" d="M81.7,134.8c-0.1-0.1-0.2-0.2-0.3-0.3c-0.1,0.1-0.3,0.1-0.5,0.1c-0.1,0-0.2,0-0.2,0l-1.1-0.2
		c-0.2,0-0.4-0.1-0.5-0.1l-0.1,0l-0.2,0.4c-0.4,0.8-0.6,1.6-0.6,2.5c1.5,0.3,3.1,0.5,4.7,0.5c0.5,0,0.9,0,1.4,0c0,0,0.1,0,0.1,0
		c0.3,0,0.6-0.1,0.7-0.4c0-0.1,0.1-0.2,0.1-0.3c0-0.1,0-0.2-0.1-0.3c-0.2-0.4-0.6-0.7-1-0.8c-0.5-0.2-1.1-0.4-1.6-0.6
		C82.3,135.1,82,135,81.7,134.8L81.7,134.8L81.7,134.8z"/>
	<path class="st1" d="M82.2,141h-3.2l-2.6,7H63l2.6-7h-3.2l-22.6,61.2H43l2.2-6h13.3l-2.2,6h3.2l2.2-6h0.1v-0.3L82,141.5v60.7h3.2
		V141H82.2z M75.5,150.3l-3.3,9.1H58.8l3.4-9.1H75.5z M54.6,170.9l3.4-9.1h13.3l-3.4,9.1H54.6z M67,173.2l-3.3,9.1H50.3l3.4-9.1H67z
		 M46.1,193.8l3.3-9.1h13.3l-3.4,9.1H46.1z"/>
	
		<linearGradient id="SVGID_1_" gradientUnits="userSpaceOnUse" x1="22393.0957" y1="-14227.5615" x2="18808.4707" y2="-16452.4922" gradientTransform="matrix(2.834646e-02 0 0 -2.834646e-02 -418.3688 -320.2081)">
		<stop  offset="0" style="stop-color:#000000"/>
		<stop  offset="1.176470e-02" style="stop-color:#000000"/>
		<stop  offset="7.843140e-02" style="stop-color:#000000;stop-opacity:0.6902"/>
		<stop  offset="0.2118" style="stop-color:#000000;stop-opacity:0.3216"/>
		<stop  offset="1" style="stop-color:#000000;stop-opacity:0"/>
	</linearGradient>
	<path class="st8" d="M82.2,141h-3.2l-2.6,7H63l2.6-7h-3.2l-22.6,61.2H43l2.2-6h13.3l-2.2,6h3.2l2.2-6h0.1v-0.3L82,141.5v60.7h3.2
		V141H82.2z M75.5,150.3l-3.3,9.1H58.8l3.4-9.1H75.5z M54.6,170.9l3.4-9.1h13.3l-3.4,9.1H54.6z M67,173.2l-3.3,9.1H50.3l3.4-9.1H67z
		 M46.1,193.8l3.3-9.1h13.3l-3.4,9.1H46.1z"/>
	<path class="st5" d="M125.2,99.9h48.5c2,0,3.6,1.6,3.6,3.6v32.3c0,2-1.6,3.6-3.6,3.6l-48.5,0c-2,0-3.6-1.6-3.6-3.6l0-32.3
		C121.6,101.5,123.2,99.9,125.2,99.9L125.2,99.9z"/>
	<path class="st3" d="M93.2,104.6h21.6c1.1,0,1.9,0.9,1.9,1.9l0,0c0,1.1-0.9,1.9-1.9,1.9l-21.6,0c-1.1,0-1.9-0.9-1.9-1.9l0,0
		C91.2,105.4,92.1,104.6,93.2,104.6L93.2,104.6z"/>
	<path class="st3" d="M93.2,112.3h21.6c1.1,0,1.9,0.9,1.9,1.9l0,0c0,1.1-0.9,1.9-1.9,1.9l-21.6,0c-1.1,0-1.9-0.9-1.9-1.9l0,0
		C91.2,113.1,92.1,112.3,93.2,112.3L93.2,112.3z"/>
	<path class="st3" d="M93.2,120h21.6c1.1,0,1.9,0.9,1.9,1.9l0,0c0,1.1-0.9,1.9-1.9,1.9l-21.6,0c-1.1,0-1.9-0.9-1.9-1.9l0,0
		C91.2,120.9,92.1,120,93.2,120L93.2,120z"/>
	<path class="st1" d="M168.7,133.9h-38.6v-28.5h0.7v27.8h37.9V133.9z"/>
	<path class="st1" d="M130.6,123.7l-0.4-0.6l9.7-6l14.3,2.2l12.6-7.3l0.4,0.6l-12.9,7.4l-0.1,0l-14.2-2.2L130.6,123.7z"/>
	<circle class="st1" cx="140.4" cy="117.5" r="1.5"/>
	<circle class="st1" cx="154.3" cy="119.6" r="1.5"/>
	<circle class="st1" cx="166.8" cy="112.5" r="1.5"/>
	<path class="st6" d="M142,117.5c0-0.8-0.7-1.5-1.5-1.5s-1.5,0.7-1.5,1.5s0.7,1.5,1.5,1.5S142,118.3,142,117.5z"/>
	<path class="st6" d="M155.9,119.6c0-0.8-0.7-1.5-1.5-1.5s-1.5,0.7-1.5,1.5s0.7,1.5,1.5,1.5S155.9,120.5,155.9,119.6z"/>
	<path class="st6" d="M168.3,112.5c0-0.8-0.7-1.5-1.5-1.5s-1.5,0.7-1.5,1.5s0.7,1.5,1.5,1.5S168.3,113.4,168.3,112.5z"/>
</g>
</svg>
