<?xml version="1.0" encoding="utf-8"?>
<!-- Generator: Adobe Illustrator 25.2.3, SVG Export Plug-In . SVG Version: 6.00 Build 0)  -->
<svg version="1.1" id="Layer_1" xmlns="http://www.w3.org/2000/svg" xmlns:xlink="http://www.w3.org/1999/xlink" x="0px" y="0px"
	 viewBox="0 0 263.5 225" style="enable-background:new 0 0 263.5 225;" xml:space="preserve">
<style type="text/css">
	.st0{opacity:0.18;fill:#73080C;enable-background:new    ;}
	.st1{fill:url(#SVGID_1_);}
	.st2{fill:url(#SVGID_2_);}
	.st3{fill:#FF681C;}
	.st4{fill:#FCBDBA;}
	.st5{fill:#473F47;}
	.st6{fill:#73080C;}
	.st7{fill:url(#SVGID_3_);}
	.st8{fill:url(#SVGID_4_);}
	.st9{fill:url(#SVGID_5_);}
	.st10{fill:url(#SVGID_6_);}
	.st11{fill:url(#SVGID_7_);}
	.st12{fill:url(#SVGID_8_);}
	.st13{fill:url(#SVGID_9_);}
	.st14{fill:#FFFFFF;}
	.st15{fill:#FDB9A9;}
	.st16{fill:url(#SVGID_10_);}
	.st17{fill:#DE9F93;}
	.st18{fill:url(#SVGID_11_);}
	.st19{fill:url(#SVGID_12_);}
	.st20{fill:url(#SVGID_13_);}
	.st21{fill:url(#SVGID_14_);}
	.st22{fill:#262836;}
	.st23{fill:url(#SVGID_15_);}
	.st24{fill:#A67C52;}
	.st25{fill:#2F3554;}
</style>
<path class="st0" d="M258.3,151.4c-1.9,7.5-5.2,15.1-8.1,21.8c-11.1,25.4-29.7,42.7-58.9,39.2c-14.1-1.7-27.9-6.4-42-6
	c-13.6,0.4-26.5,5.5-39.4,9.8c-23.9,7.9-50.4,13-74.1,4.3c-23.7-8.7-42.1-35.6-33.7-59.3c6.6-18.6,27-31,29.2-50.6
	C34.1,85.1,4,63.1,10.3,38.3C13,27.9,21.7,20.1,30.9,14.5C52.1,1.5,78.1-2.7,102.4,1.7c23.1,4.2,42.3,23.6,65.6,24.5
	c15,0.6,29.5-8,44.4-6.6c18.5,1.8,32.1,18.2,40.7,34.6c2.8,5.1,5.1,10.5,7,16.1c3.6,11.3,4.3,23.3,2.1,35c-2.2,12-2,23.2-2.3,35.5
	C259.8,144.4,259.2,147.9,258.3,151.4z"/>
<linearGradient id="SVGID_1_" gradientUnits="userSpaceOnUse" x1="114.016" y1="33.3677" x2="115.5379" y2="4.1141" gradientTransform="matrix(1.0174 0 0 -1.0174 -4.6886 214.2789)">
	<stop  offset="1.000000e-02" style="stop-color:#000000"/>
	<stop  offset="8.000000e-02" style="stop-color:#000000;stop-opacity:0.69"/>
	<stop  offset="0.21" style="stop-color:#000000;stop-opacity:0.32"/>
	<stop  offset="1" style="stop-color:#000000;stop-opacity:0"/>
</linearGradient>
<path class="st1" d="M98,199.9c-0.9,0.3-1.9,0.7-2.2,1.7c2.9,1.8,6.4,2.2,9.8,2.2c3.4-0.1,6.8-0.7,10.2-0.7c4.5,0,9.5,0.8,13.1-1.9
	c-1.6-1-3.4-1.6-5.3-1.7C124.3,195.2,100.7,199,98,199.9z"/>
<linearGradient id="SVGID_2_" gradientUnits="userSpaceOnUse" x1="125.0304" y1="142.8401" x2="131.4119" y2="38.2209" gradientTransform="matrix(1.0174 0 0 -1.0174 -4.6886 214.2789)">
	<stop  offset="1.000000e-02" style="stop-color:#000000"/>
	<stop  offset="8.000000e-02" style="stop-color:#000000;stop-opacity:0.69"/>
	<stop  offset="0.21" style="stop-color:#000000;stop-opacity:0.32"/>
	<stop  offset="1" style="stop-color:#000000;stop-opacity:0"/>
</linearGradient>
<path class="st2" d="M40.3,150c-1.2,0-2.9,0.6-2.6,1.8l55.3,4.5c6.5,0.5,13,1.1,19.6,1.1c9.9,0,19.7-1.2,29.6-1.8
	c9.3-0.5,18.6-0.5,27.8-0.4c8.6,0,19.2,1.6,27.5-0.7c1.3-0.3,2.5-1.3,2.4-2.6c0-0.6-0.4-1.2-0.1-1.8c0.1-0.3,0.3-0.5,0.6-0.6
	c1.7-1.1,3.9-0.2,5.9,0.2c3.1,0.7,6.4,0.3,9.3-1.2c0.5-0.2,1-0.6,1.3-1.1c0.3-0.5,0.2-1.2-0.3-1.5c-0.2-0.1-0.5-0.2-0.7-0.2
	l-16.9-1.3c-0.6-0.1-1.3,0-1.9,0.2c-0.7,0.3-0.6,1.1-1.2,1.4c-0.9,0.5-2.9,0.2-3.9,0.3c-2.6,0.1-5.1,0.3-7.7,0.4
	c-5.1,0.2-10.3,0.5-15.4,0.6c-10.5,0.4-21,0.6-31.5,0.7c-20.8,0.3-41.5,0.5-62.3,1.3C63.6,149.6,52,149.7,40.3,150z"/>
<path class="st3" d="M82.9,34.7c-1-0.3-2-0.3-3,0.1c-1.2,0.4-2.2,1.4-2.8,2.6c0,0.3-0.3,0.5-0.6,0.5c0,0,0,0-0.1,0
	c-1.1,0-2.1,0.4-2.9,1.1c-0.9,0.9-0.9,1.9-1.1,3.1c-0.3-0.2-0.7-0.2-1,0c-0.3,0.2-0.6,0.4-0.8,0.6c-0.4,0.3-0.7,0.8-1,1.2
	c-0.3,0.8,0,1.7,0.1,2.6c0,0.1,0,0.2-0.1,0.2c-0.1,0-0.1,0-0.2,0c-0.2,0-0.4-0.2-0.7-0.2c-0.6,0-1,0.4-1.1,1
	c-0.1,0.5-0.1,1.1,0.1,1.6c0.1,0.5,0.1,1.1,0,1.6c-0.2,0.3-0.4,0.6-0.7,0.9c-0.8,0.8-1.3,1.8-1.5,2.9c0,0.5,0.1,1.1,0.4,1.5
	c0.3,0.4,0.8,0.7,1.4,0.6c1.2-0.2,1.7-1.9,2.9-2.3s2.5-1.8,3.3-2.9c0.6-0.9,1.2-1.9,2.2-2.2c0.3-0.1,0.7-0.2,1-0.4
	c0.2-0.2,0.4-0.4,0.5-0.6c0.4-0.6,0.8-1.3,1-2c0.4-1.4,0-3.1,0.7-4.4c0.4-0.8,1.1-1.3,2-1.5c0.4-0.1,0.7-0.1,1.1-0.2
	c0.4-0.1,0.8-0.3,1.1-0.5c0.9-0.5,1.6-1.4,1.7-2.5C84.7,36,83.8,35.1,82.9,34.7z"/>
<path class="st3" d="M85.9,36.5c0.8,0.3,1.2,1.1,1,1.9c-0.1,0.3-0.3,0.6-0.6,0.8L85,40.8l-0.6-2.1c-0.1-0.4-0.3-0.7-0.5-1
	c-0.4-0.2-0.9-0.2-1.3,0c-0.4,0.2-0.7,0.5-1.1,0.7c-0.1,0.1-0.2,0.1-0.3,0.1c-0.1-0.1-0.1-0.3-0.1-0.4
	C81.8,36.3,84.3,35.8,85.9,36.5z"/>
<path class="st4" d="M86.8,92.8c0,0.7,0.3,1.4,0.7,2c0.6,0.7,1.6,1.1,2.5,1.7c0.2,0.1,0.3,0.3,0.3,0.4c0,0.2-0.1,0.3-0.3,0.4
	c-0.2,0.1-0.4,0.1-0.5,0c-0.9-0.1-1.7-0.2-2.6-0.2c-0.4,0-0.9,0-1.2-0.3c-0.2-0.3-0.2-0.6-0.2-1c0.1-1.2,0-2.5-0.3-3.7
	c-0.1-0.3-0.1-0.6-0.1-0.9c0.1-0.4,0.5-0.7,1-0.7c0.1,0,0.3,0.1,0.4,0.2C86.9,91.1,86.8,92.2,86.8,92.8z"/>
<path class="st4" d="M73,97.4c-0.1,0.7,0,1.4,0.3,2c0.4,0.9,1.4,1.4,2.1,2.1c0.2,0.1,0.2,0.3,0.2,0.5c0,0.2-0.2,0.3-0.4,0.3
	c-0.2,0-0.4,0-0.5-0.1c-0.8-0.3-1.6-0.5-2.5-0.7c-0.4-0.1-0.9-0.1-1.1-0.5c-0.1-0.3-0.1-0.7,0-1c0.3-1.2,0.5-2.4,0.4-3.7
	c0-0.3,0-0.6,0.1-0.9c0.2-0.4,0.7-0.6,1.1-0.4c0.1,0.1,0.2,0.1,0.3,0.3C73.4,95.8,73,96.8,73,97.4z"/>
<path class="st5" d="M70.3,63.7c0,0,7.1,10.6,11.8,13.8c-0.1,1.1-0.1,2.1,0.1,3.2c0.2,1.7,1.1,3.2,1.3,4.9l0.9,5.7
	c0,0.3,0.1,0.6,0.4,0.7c0.1,0,0.3,0,0.5,0l2-0.5c-0.1-3.4,0-6.8,0.2-10.2c0.2-1.4,0.2-2.8,0.1-4.1c-0.3-3-2.8-5.7-4.5-8.1
	c-1-1.5-2.1-3.6-3.6-4.7c-1.2-0.9-2.9-0.5-4.4-0.3c-1.1,0.1-2.3,0-3.4-0.2C71.2,63.4,70.7,63.5,70.3,63.7z"/>
<path class="st5" d="M67.6,63.7c0,0,2.8,12.5,6,17.1c-0.5,1-0.8,2-1.1,3c-0.2,0.8-0.3,1.7-0.3,2.6l-0.6,10.4c1,0.1,2-0.1,2.9-0.4
	l3.7-9.2c0.7-1.5,1.1-3,1.2-4.7c0-3.1-3-14.5-3.3-15.1c-0.8-1.3-2.5-1.5-4-1.9c-1.1-0.3-2.1-0.8-3-1.5
	C68.5,63.8,68.1,63.5,67.6,63.7z"/>
<path class="st4" d="M93.2,54c1.5,0.7,3.2,1,4.9,0.7c0.5-0.1,1-0.2,1.5-0.1c-0.2,0.3-0.4,0.7-0.1,1c0.1,0.1,0.2,0.1,0.3,0.1
	c0.4,0.1,0.8,0,1.2-0.1c0.2-0.1,0.4-0.1,0.6-0.1c0.4,0.1,0.6,0.5,0.5,0.8c-0.1,0.4-0.3,0.7-0.7,0.9c-1,0.7-2.4,0.8-3.5,0.2
	c-0.3-0.2-0.6-0.4-0.9-0.6c-0.6-0.3-1.3-0.5-1.9-0.6c-2-0.4-3.9-1-5.8-1.7c-0.6-0.1-1.1-0.5-1.4-1c-0.4-0.9,0.3-2.5,1.4-1.9
	C90.6,52.4,91.8,53.4,93.2,54z"/>
<path class="st6" d="M83.9,48.6c2.2,1.5,4.7,2.5,7.3,3c0.1,0,0.2,0.1,0.3,0.2c0,0.1,0,0.2-0.1,0.2c-0.5,1.1-1.2,2.1-2,3
	c-0.1,0.1-0.2,0.2-0.3,0.3c-0.3,0.1-0.5,0-0.7-0.1c-1.7-0.7-3.3-1.4-4.9-2.2c-1.4-0.6-2.7-1.6-3.7-2.7c-0.5-0.6-0.8-1.4-0.9-2.2
	c0-0.9,0.8-2.5,1.9-2c0.5,0.2,0.9,0.8,1.3,1.2C82.6,47.6,83.2,48.1,83.9,48.6z"/>
<linearGradient id="SVGID_3_" gradientUnits="userSpaceOnUse" x1="1846.9042" y1="737.9905" x2="1835.4644" y2="725.1392" gradientTransform="matrix(-0.8343 0.5901 -0.5901 -0.8343 2041.1135 -428.185)">
	<stop  offset="1.000000e-02" style="stop-color:#000000"/>
	<stop  offset="8.000000e-02" style="stop-color:#000000;stop-opacity:0.69"/>
	<stop  offset="0.21" style="stop-color:#000000;stop-opacity:0.32"/>
	<stop  offset="1" style="stop-color:#000000;stop-opacity:0"/>
</linearGradient>
<path class="st7" d="M83.9,48.6c2.2,1.5,4.7,2.5,7.3,3c0.1,0,0.2,0.1,0.3,0.2c0,0.1,0,0.2-0.1,0.2c-0.5,1.1-1.2,2.1-2,3
	c-0.1,0.1-0.2,0.2-0.3,0.3c-0.3,0.1-0.5,0-0.7-0.1c-1.7-0.7-3.3-1.4-4.9-2.2c-1.4-0.6-2.7-1.6-3.7-2.7c-0.5-0.6-0.8-1.4-0.9-2.2
	c0-0.9,0.8-2.5,1.9-2c0.5,0.2,0.9,0.8,1.3,1.2C82.6,47.6,83.2,48.1,83.9,48.6z"/>
<path class="st6" d="M115.2,44.1c1.1,1.4,0.9,3.4-0.5,4.5c-0.7,0.6-1.6,0.8-2.5,0.7c0,0-3.5,0.1-2.7,3.4l6.7,8.6l-8.6,6.7
	c-3.3,0.8-3.4-2.7-3.4-2.7c0.3-1.8-1-3.4-2.7-3.6c-1.8-0.3-3.4,1-3.6,2.7c-0.3,1.8,1,3.4,2.7,3.6c0.1,0,0.1,0,0.2,0c3,1,1.9,4,1.9,4
	L94,78.7L76.6,56.6l8.5-6.7c3.3-0.8,3.4,2.7,3.4,2.7c-0.3,1.7,0.9,3.4,2.7,3.6c1.7,0.3,3.4-0.9,3.6-2.7c0.1-0.9-0.1-1.8-0.6-2.5
	c-0.6-0.7-1.4-1.1-2.2-1.2c-3-1-1.8-4-1.8-4l8.7-6.8l6.7,8.6c0,0,3,1.2,4-1.9c0.2-1.8,1.8-3,3.5-2.9C113.9,43,114.7,43.4,115.2,44.1
	z"/>
<linearGradient id="SVGID_4_" gradientUnits="userSpaceOnUse" x1="3426.126" y1="-1392.5275" x2="3555.9331" y2="-1455.4974" gradientTransform="matrix(-0.8028 -0.625 -0.625 0.8028 2003.4666 3364.9238)">
	<stop  offset="1.000000e-02" style="stop-color:#000000"/>
	<stop  offset="8.000000e-02" style="stop-color:#000000;stop-opacity:0.69"/>
	<stop  offset="0.21" style="stop-color:#000000;stop-opacity:0.32"/>
	<stop  offset="1" style="stop-color:#000000;stop-opacity:0"/>
</linearGradient>
<path class="st8" d="M115.2,44.1c1.1,1.4,0.9,3.4-0.5,4.5c-0.7,0.6-1.6,0.8-2.5,0.7c0,0-3.5,0.1-2.7,3.4l6.7,8.6l-8.6,6.7
	c-3.3,0.8-3.4-2.7-3.4-2.7c0.3-1.8-1-3.4-2.7-3.6c-1.8-0.3-3.4,1-3.6,2.7c-0.3,1.8,1,3.4,2.7,3.6c0.1,0,0.1,0,0.2,0c3,1,1.9,4,1.9,4
	L94,78.7L76.6,56.6l8.5-6.7c3.3-0.8,3.4,2.7,3.4,2.7c-0.3,1.7,0.9,3.4,2.7,3.6c1.7,0.3,3.4-0.9,3.6-2.7c0.1-0.9-0.1-1.8-0.6-2.5
	c-0.6-0.7-1.4-1.1-2.2-1.2c-3-1-1.8-4-1.8-4l8.7-6.8l6.7,8.6c0,0,3,1.2,4-1.9c0.2-1.8,1.8-3,3.5-2.9C113.9,43,114.7,43.4,115.2,44.1
	z"/>
<linearGradient id="SVGID_5_" gradientUnits="userSpaceOnUse" x1="89.8993" y1="162.331" x2="96.5161" y2="129.8792" gradientTransform="matrix(1.0174 0 0 -1.0174 -4.6886 214.2789)">
	<stop  offset="1.000000e-02" style="stop-color:#000000"/>
	<stop  offset="8.000000e-02" style="stop-color:#000000;stop-opacity:0.69"/>
	<stop  offset="0.21" style="stop-color:#000000;stop-opacity:0.32"/>
	<stop  offset="1" style="stop-color:#000000;stop-opacity:0"/>
</linearGradient>
<path class="st9" d="M86.9,63.6c1.8,1.5,3.7,3.1,6,3.5c0.9,0.2,1.8,0,2.5-0.5c0.3-0.2,0.4-0.4,0.4-0.7c-0.1-0.4-0.5-0.5-0.9-0.6
	c-1.7-0.2-3.4-0.8-4.8-1.7c-0.5-0.4-1.1-0.8-1.5-1.3l-3.6-3.2c-0.1-0.1-0.2-0.2-0.4-0.2c-0.1,0-0.2,0.2-0.3,0.3
	c-0.2,0.5-0.4,0.9-0.5,1.4c-0.1,0.5,0,0.6,0.5,0.9C85.1,62.3,86,62.9,86.9,63.6z"/>
<path class="st4" d="M88.6,60.9c1.3,1.1,2.8,1.8,4.5,2.1c0.5,0,1,0.1,1.4,0.3c-0.3,0.2-0.6,0.6-0.4,0.9c0.1,0.1,0.2,0.1,0.3,0.2
	c0.4,0.2,0.8,0.2,1.2,0.2c0.2,0,0.4,0,0.6,0c0.3,0.2,0.4,0.6,0.2,0.9c0,0,0,0,0,0c-0.2,0.3-0.5,0.5-0.9,0.6
	c-1.2,0.4-2.5,0.1-3.4-0.8c-0.3-0.3-0.5-0.5-0.7-0.8c-0.5-0.4-1.1-0.8-1.7-1.1c-1.8-0.9-3.5-2-5.1-3.2c-0.5-0.3-0.9-0.8-1-1.4
	c-0.1-1,1-2.3,1.9-1.4C86.5,58.7,87.4,59.9,88.6,60.9z"/>
<path class="st6" d="M67.6,65.3c0.1,0.2,0.3,0.3,0.5,0.4c0.8,0.4,1.5,0.8,2.3,1.1c2.1,0.7,4.4,0.7,6.5-0.1c0.8-0.3,1.6-0.7,2.3-1.3
	c0.3-0.2,0.5-0.4,0.7-0.7c0.2-0.5,0.3-1,0.2-1.4c-0.2-2.5-0.5-5.1,0-7.6c0.1-0.8,0.4-1.7,0.7-2.4c0.6-1.1,1.1-2.2,1.5-3.3
	c0.3-1.4-0.1-2.9-1-4.1c-1-1.2-2.8-2.3-4.3-1.8c-1.8,0.7-3.4,1.9-4.5,3.5c-1.2,1.8-2.2,3.7-2.9,5.7c-0.3,0.8-0.6,1.6-0.8,2.4
	c-0.5,2-0.8,4-1,6.1c-0.1,0.9-0.2,1.7-0.2,2.6C67.4,64.7,67.4,65,67.6,65.3z"/>
<linearGradient id="SVGID_6_" gradientUnits="userSpaceOnUse" x1="1832.5895" y1="720.7145" x2="1857.9907" y2="719.347" gradientTransform="matrix(-0.8343 0.5901 -0.5901 -0.8343 2041.1135 -428.185)">
	<stop  offset="1.000000e-02" style="stop-color:#000000"/>
	<stop  offset="8.000000e-02" style="stop-color:#000000;stop-opacity:0.69"/>
	<stop  offset="0.21" style="stop-color:#000000;stop-opacity:0.32"/>
	<stop  offset="1" style="stop-color:#000000;stop-opacity:0"/>
</linearGradient>
<path class="st10" d="M76.9,66.7c0.8-0.3,1.6-0.7,2.3-1.3c0.3-0.2,0.5-0.4,0.7-0.7c0.2-0.5,0.3-1,0.2-1.4c-0.2-2.5-0.5-5.1,0-7.6
	c-0.3-0.3-0.6-0.6-1-0.8c-0.7-0.6-1.8-1.8-2.9-1.7c0.3,1.1,0.5,2.3,0.6,3.5c0.2,1.2,0.1,2.4,0.3,3.5c0.2,2,0.2,4.1-0.1,6.1
	C76.9,66.4,76.9,66.6,76.9,66.7z"/>
<path class="st6" d="M86,57c0.1,0.1,0.2,0.2,0.2,0.3c0,0.1,0,0.2-0.1,0.3c-0.7,1-1.5,1.8-2.5,2.4c-0.1,0.1-0.2,0.1-0.3,0.1
	c-0.1,0-0.3-0.1-0.4-0.2c-1.5-1.1-3-2.2-4.5-3.4c-0.9-0.7-1.8-1.5-2.5-2.4c-0.5-0.8-0.9-1.7-1.2-2.7c-0.9-2.8,1.8-4,3.6-2
	C80.8,52.2,83,54.9,86,57z"/>
<path class="st5" d="M85.6,96.8c-0.1-0.2-0.1-0.4,0.1-0.6c0.2-0.2,0.4-0.1,0.6,0c0.5,0.2,0.9,0.4,1.4,0.5c0.5,0.1,1,0.1,1.5-0.2
	c0.3-0.1,0.5-0.4,0.8-0.4c0.1,0,0.3,0.1,0.4,0.2c0.4,0.2,0.9,0.4,1.4,0.5c0.2,0,0.4,0.1,0.6,0.2c0.1,0,0.1,0.1,0.1,0.2
	c0,0.1-0.1,0.3-0.3,0.3c-1.6,0.6-3.3,0.4-5,0.2c-0.2,0-0.4,0-0.6,0c-0.3,0.1-0.6,0.2-0.8,0C85.7,97.5,85.6,97.2,85.6,96.8z"/>
<path class="st5" d="M70.8,101.1c0-0.2,0-0.4,0.1-0.6c0.2-0.1,0.4,0,0.6,0.1c0.4,0.3,0.9,0.5,1.4,0.7c0.5,0.2,1,0.2,1.5,0
	c0.3-0.1,0.5-0.3,0.8-0.2c0.1,0,0.3,0.1,0.4,0.2c0.4,0.3,0.9,0.5,1.4,0.7c0.2,0,0.4,0.1,0.6,0.3c0,0,0.1,0.1,0.1,0.2
	c0,0.1-0.2,0.2-0.3,0.3c-1.6,0.4-3.3,0-4.9-0.4c-0.2-0.1-0.4-0.1-0.6-0.1c-0.3,0-0.6,0.1-0.8-0.1C70.9,101.8,70.8,101.4,70.8,101.1z
	"/>
<path class="st4" d="M84.7,41.6c-0.1,0.4-0.3,0.8-0.4,1.2c-0.1,0.6-0.3,1.2-0.5,1.8c-0.2,0.6-0.7,1.1-1.3,1.3
	c-0.6,0.2-1.3-0.1-1.5-0.7c-0.4,0.1-0.5,0.5-0.5,0.9c0.1,0.4,0,0.7-0.2,1.1c-0.3,0.4-1,0.2-1.4-0.1c-1.4-0.9-2-2.6-1.7-4.2
	c0.4-1.7,0.4-3.7,1.3-5.1c0.3-0.5,0.8-0.9,1.3-1.2c0.4-0.3,1-0.5,1.5-0.6c0.4,0,0.8,0,1.1,0.1c1.6,0.3,2.9,0.5,2.9,2.3
	C85.3,39.5,85.1,40.6,84.7,41.6z"/>
<path class="st3" d="M82.7,38.7c-0.2,0-0.5-0.1-0.7,0.1s-0.2,0.5-0.4,0.7c-0.3,0.5-0.9,0.6-1.4,0.8c-0.6,0.3-1,1-1,1.7
	c0-0.2,0-0.4-0.2-0.6c-0.1-0.2-0.4-0.2-0.5-0.1c0,0,0,0,0,0c-0.1,0.1-0.1,0.2-0.1,0.3c0,0.4,0.1,0.9,0.5,1.1c-0.3,0.7-1,1.1-1.7,1.1
	c-0.2,0-0.4-0.1-0.6-0.2c-0.1-0.1-0.2-0.3-0.2-0.4c-0.4-1.2,0.2-2.5,0.4-3.7c0-0.4,0.1-0.9,0.2-1.3c0.1-0.3,0.3-0.6,0.6-0.8
	c0.7-0.8,1.6-1.5,2.7-1.8c1-0.3,3-0.1,3.8,0.7c0.5,0.7,0.4,1.7-0.3,2.2C83.4,38.5,83,38.7,82.7,38.7z"/>
<linearGradient id="SVGID_7_" gradientUnits="userSpaceOnUse" x1="103.7427" y1="134.0248" x2="102.6326" y2="2.6443" gradientTransform="matrix(1.0174 0 0 -1.0174 -4.6886 214.2789)">
	<stop  offset="1.000000e-02" style="stop-color:#000000"/>
	<stop  offset="8.000000e-02" style="stop-color:#000000;stop-opacity:0.69"/>
	<stop  offset="0.21" style="stop-color:#000000;stop-opacity:0.32"/>
	<stop  offset="1" style="stop-color:#000000;stop-opacity:0"/>
</linearGradient>
<path class="st11" d="M82.3,152.2v-14c1.8-4,5.5-1.3,5.5-1.3c1.6,1.6,4.2,1.7,5.8,0.1c1.6-1.6,1.7-4.2,0.1-5.8s-4.2-1.7-5.8-0.1
	c0,0-0.1,0.1-0.1,0.1c-3.4,2.2-5.5-1.3-5.5-1.3v-14h14c0,0,3.5-2,1.3-5.5c-1.6-1.6-1.7-4.2-0.1-5.8c1.6-1.6,4.2-1.7,5.8-0.1
	c1.6,1.6,1.7,4.2,0.1,5.8c0,0-0.1,0.1-0.1,0.1c0,0-2.7,3.6,1.3,5.5h14v36.2H82.3z"/>
<path class="st6" d="M55.5,151.5h-2.5l25.9-68.3c0.2-0.5,0.6-0.7,1.1-0.7l0,0c0.7,0,1.2,0.5,1.2,1.2c0,0.1,0,0.3-0.1,0.4L55.5,151.5
	z"/>
<polygon class="st6" points="70.6,151.5 68.1,151.5 94.3,82.4 96.8,82.4 "/>
<polygon class="st6" points="90.2,93.2 76.8,93.2 77.5,91.4 90.9,91.4 "/>
<polygon class="st6" points="86.1,104 72.7,104 73.4,102.3 86.7,102.3 "/>
<polygon class="st6" points="82,114.9 68.6,114.9 69.3,113.1 82.6,113.1 "/>
<polygon class="st6" points="77.9,125.7 64.5,125.7 65.2,124 78.5,124 "/>
<polygon class="st6" points="73.7,136.6 60.4,136.6 61,134.8 74.4,134.8 "/>
<linearGradient id="SVGID_8_" gradientUnits="userSpaceOnUse" x1="99.0562" y1="111.7391" x2="45.5528" y2="81.0524" gradientTransform="matrix(1.0174 0 0 -1.0174 -4.6886 214.2789)">
	<stop  offset="1.000000e-02" style="stop-color:#000000"/>
	<stop  offset="8.000000e-02" style="stop-color:#000000;stop-opacity:0.69"/>
	<stop  offset="0.21" style="stop-color:#000000;stop-opacity:0.32"/>
	<stop  offset="1" style="stop-color:#000000;stop-opacity:0"/>
</linearGradient>
<path class="st12" d="M77.5,93.2l-3.4,9.1h12.7l-0.7,1.8H73.5l-3.4,9.1h12.6l-0.7,1.8H69.3l-3.4,9.1h12.6l-0.7,1.8H65.2l-3.4,9.1
	h12.6l-0.7,1.8H61.1l-5.6,14.9h-2.5l25.9-68.3c0.3-0.6,1-0.8,1.6-0.6c0.4,0.2,0.6,0.6,0.7,1c0,0.1,0,0.3-0.1,0.4l-2.8,7.4h12.6
	l-0.7,1.8L77.5,93.2z"/>
<linearGradient id="SVGID_9_" gradientUnits="userSpaceOnUse" x1="65.8841" y1="128.0544" x2="-27.9571" y2="74.2376" gradientTransform="matrix(1.0174 0 0 -1.0174 30.8996 238.3401)">
	<stop  offset="1.000000e-02" style="stop-color:#000000"/>
	<stop  offset="8.000000e-02" style="stop-color:#000000;stop-opacity:0.69"/>
	<stop  offset="0.21" style="stop-color:#000000;stop-opacity:0.32"/>
	<stop  offset="1" style="stop-color:#000000;stop-opacity:0"/>
</linearGradient>
<polygon class="st13" points="70.6,151.5 68.1,151.5 94.3,82.4 96.8,82.4 "/>
<path class="st14" d="M196.1,92.4c-0.4,0.3-0.8,0.5-1.3,0.6c-0.4,0-0.9-0.1-1.3-0.2l-6.2-2.1c-1,0.8-1.2,2.1-0.5,3.2
	c0.6,0.7,1.4,1.1,2.3,1.4l4.3,1.5c2,0.9,4.3,0.9,6.3,0c1.3-0.4,2.7-1,3.3-2.2c0.6-1.2,0.2-2.8,0.3-4.2c0.2-0.9,0.4-1.8,0.5-2.7
	c0-0.8-0.6-2-1.6-1.8c-0.8,0.1-1.3,1.5-1.8,2.1C199.2,89.7,197.7,91.2,196.1,92.4z"/>
<path class="st15" d="M186.5,90.4c-0.1-0.2-0.2-0.3-0.3-0.4c-0.1-0.1-0.3-0.2-0.5-0.1c-0.2,0.1-0.3,0.3-0.2,0.5c0,0.1,0,0.1,0,0.2
	c0,0-0.1,0-0.2,0c-0.7-0.1-1.4-0.2-2.1-0.3c-0.2,0-0.5,0.1-0.5,0.3c0,0.1,0,0.2,0,0.3c0.1,0.2,0.2,0.5,0.4,0.7
	c0.4,0.6,0.5,1.4,1.1,1.8c0.4,0.2,0.8,0.3,1.2,0.2c0.4,0,0.8-0.1,1.2-0.1c0.3,0.1,0.6,0,0.8-0.1c0.2-0.1,0.3-0.4,0.3-0.6
	c0-0.4-0.2-0.7-0.4-1C186.9,91.2,186.7,90.8,186.5,90.4z"/>
<path class="st15" d="M203.8,137.2c-2.4-0.5-1.9,2.8-2.5,4.1c-0.4,0.6-0.9,1.2-1.5,1.7c-0.6,0.5-1,1.2-1.1,1.9c0,0.1,0,0.3,0.1,0.4
	c0.1,0.1,0.3,0.2,0.5,0.3c1.4,0.4,2.8,0.3,4.1-0.4c0.6-0.3,1.1-0.7,1.4-1.3c0.3-0.6,0.4-1.3,0.4-1.9
	C205.2,140.6,205.8,137.7,203.8,137.2z"/>
<path class="st6" d="M201.7,144.2c0,0-6.8,0.3-3.9,2.4c2.9,2.1,7.2-0.5,7.6-1c0.4-0.5,0.1-1.3,0.1-1.3L201.7,144.2z"/>
<path class="st14" d="M205.1,145.1c-0.6,0.7-3.8,1.7-5.2,1.6c-1.4-0.1-2.7-0.7-2.5-1.7c0.1-0.9,2.6-3,3.1-3s0.8,1.1,1.8,1.3
	c0.9,0.1,1.7-0.2,2.3-0.8c0.2-0.2,0.5-0.3,0.7-0.2C205.7,143.2,205.6,144.3,205.1,145.1z"/>
<path class="st15" d="M212,138.6c-2.4-0.6-1.9,2.8-2.5,4.1c-0.4,0.6-0.9,1.2-1.5,1.7c-0.6,0.5-1,1.2-1.1,1.9c0,0.1,0,0.3,0.1,0.4
	c0.1,0.1,0.3,0.2,0.5,0.3c1.4,0.4,2.8,0.2,4.1-0.4c0.6-0.3,1.1-0.7,1.4-1.3c0.3-0.6,0.4-1.3,0.4-1.9C213.4,141.9,214,139,212,138.6z
	"/>
<path class="st6" d="M209.9,145.5c0,0-6.8,0.3-3.9,2.4c2.9,2.1,7.2-0.5,7.6-1c0.4-0.5,0.1-1.3,0.1-1.3L209.9,145.5z"/>
<path class="st14" d="M213.3,146.4c-0.6,0.7-3.8,1.7-5.2,1.6c-1.4-0.1-2.7-0.7-2.5-1.7c0.1-0.9,2.6-3,3.1-3s0.8,1.1,1.8,1.3
	c0.9,0.1,1.7-0.2,2.3-0.8c0.2-0.2,0.5-0.3,0.7-0.2C213.8,144.6,213.8,145.6,213.3,146.4z"/>
<path class="st5" d="M205.9,107.8l3.2,33.5l4.6-0.6c1.8-8.2,1.4-32.7,1.4-32.7L205.9,107.8z"/>
<path class="st5" d="M209,106.9l-3.2,33.5l-4.6-0.6c-2.6-21.2-0.5-34.4-0.5-34.4L209,106.9z"/>
<path class="st14" d="M201.2,94.8c-0.1-0.6-0.2-1.2-0.3-1.9c-0.1-1.3-0.1-2.5,0.1-3.8c0.2-1.3,0.6-2.6,1.2-3.9
	c0.5-1.1,1.5-1.5,2.6-2c0.9-0.5,1.9-0.8,2.9-1c0.7-0.1,1.4,0,2.1,0.1c2.2,0.4,5,1.5,6.5,3.2c1.1,1.3,1.2,3.1,1.3,4.8
	c0,2.3,0,4.7-0.1,7c0,0.3,0,0.7-0.1,1c-0.1,2.6-0.5,5.2-1.2,7.7c-0.1,0.8-0.6,1.5-1.2,2c-1.7,1-4.3,0.4-6.1,0.2
	c-2.4-0.3-4.9-0.7-7.1-1.9c-0.4-0.2-0.8-0.5-1-1c-0.1-0.6,0-1.1,0.2-1.6c0.7-2.4,0.2-4.9,0.2-7.4c0-0.4,0.1-0.9,0.1-1.3
	C201.2,95,201.2,94.9,201.2,94.8z"/>
<linearGradient id="SVGID_10_" gradientUnits="userSpaceOnUse" x1="190.1588" y1="156.7739" x2="238.1307" y2="44.1484" gradientTransform="matrix(1.0174 0 0 -1.0174 -4.6886 214.2789)">
	<stop  offset="1.000000e-02" style="stop-color:#000000"/>
	<stop  offset="8.000000e-02" style="stop-color:#000000;stop-opacity:0.69"/>
	<stop  offset="0.21" style="stop-color:#000000;stop-opacity:0.32"/>
	<stop  offset="1" style="stop-color:#000000;stop-opacity:0"/>
</linearGradient>
<path class="st16" d="M208.8,99.1c0.6,0.4,1.2,0.6,1.9,0.7c2,0.6,4,0.9,6,1.5c0.1,0,0.3,0.1,0.4,0.2c0.1,0.1,0.1,0.3,0.1,0.4
	c0,0.6-0.1,1.1-0.3,1.7c-0.1,0.3-0.2,0.5-0.4,0.7c-0.3,0.1-0.6,0.1-0.9,0l-7.4-1.6c-0.5-0.1-1.1-0.2-1.6-0.2
	c-0.6,0.1-1.3,0.2-1.9,0.5c-1.1,0.4-2.3,0.6-3.5,0.7c0.1-1.4,0.2-2.8,0.5-4.2c0.1-0.4,0.3-0.8,0.5-1.2c0.2-0.4,0.5-0.7,0.8-1
	c1.2-1.2,2-2.8,3.2-4.1c0.6-0.7,1.4-1.1,2-1.8c0.2-0.3,2.2-2.7,2-3c0.4,0.5,1.3,0,1.6,0.5c0.2,0.3,0,0.7-0.2,1c-1.4,2.4-2.4,5-3,7.8
	C208.5,98.4,208.3,98.6,208.8,99.1z"/>
<path class="st6" d="M202.8,68.4c1.9,1.2,2.5,3.8,1.2,5.7c-0.6,0.9-1.6,1.6-2.6,1.8c0,0-4.2,1.6-1.9,5.3l11.8,7.5l-7.5,11.8
	c-3.7,2.4-5.3-1.9-5.3-1.9c-0.4-2.2-2.6-3.7-4.8-3.2c-2.2,0.4-3.7,2.6-3.2,4.8c0.4,2.2,2.6,3.7,4.8,3.2c0.1,0,0.1,0,0.2,0
	c4.1-0.1,3.9,4,3.9,4l-7.5,11.8l-30.5-19.4l7.4-11.7c3.7-2.4,5.3,1.9,5.3,1.9c0.4,2.2,2.6,3.7,4.8,3.2c2.2-0.4,3.7-2.6,3.2-4.8
	c-0.4-2.2-2.6-3.7-4.8-3.2c-0.1,0-0.1,0-0.2,0c-4.1,0.1-3.9-4-3.9-4l7.6-11.9l11.8,7.5c0,0,4.1,0.2,4-3.9c-0.3-1.1-0.1-2.2,0.5-3.2
	C198.4,67.8,200.9,67.2,202.8,68.4z"/>
<path class="st14" d="M221,92.6c0.3,0.5,0.6,1.1,0.7,1.7c0.2,1,0.3,2.1,0.1,3.1c-0.1,1-0.5,2-1.1,2.8c-1.3,1.5-3.5,1.6-5.5,1.5
	c-2.2-0.2-4.4-0.6-6.6-1.3c-0.2,0-0.4-0.1-0.5-0.3c-0.2-0.2-0.3-0.4-0.3-0.7c-0.2-0.6-0.3-1.3-0.3-1.9c2.2-0.6,4.7-0.1,7.1-0.5
	c0.6,0,1-0.5,1-1c0-0.1,0-0.2-0.1-0.3c-0.1-1.3-0.9-2.5-1.3-3.7c-0.4-1.2-0.3-2.5,0.1-3.7c0.3-0.9,0.9-1.6,1.7-1.9
	c0.9-0.3,1.3,0.4,1.8,1.1C219,89,220.1,90.8,221,92.6z"/>
<path class="st15" d="M206.6,96.7c-0.1-0.1-0.2-0.1-0.3-0.1c-0.2,0-0.3,0.1-0.4,0.3c-0.1,0.2-0.1,0.3-0.2,0.5
	c-0.2,0.3-0.6,0.4-0.9,0.4c-0.3,0-0.7,0-1,0c-0.1,0-0.2,0.1-0.3,0.2c-0.1,0.1-0.2,0.2-0.2,0.3c-0.1,0.5,0,1.1,0.4,1.4
	c0.4,0.4,0.8,0.6,1.3,0.8c0.5,0.2,1.1,0.3,1.6,0.2c0.3-0.1,0.6-0.2,0.8-0.4l1.1-0.6c0.1,0,0.2-0.1,0.2-0.2c0.2-0.3-0.1-1.2-0.3-1.5
	C207.9,97.4,207.3,97,206.6,96.7z"/>
<path class="st15" d="M205.9,78.8c0-0.6,0.1-1.3,0.1-1.9s0.1-1.1,0.3-1.7c0-0.3,0.2-0.6,0.4-0.8c0.9-0.5,1.9-0.8,2.9-0.7
	c0.8-0.1,1.5,0.2,2.1,0.7c0.3,0.4,0.5,1,0.6,1.5c0,1.4-0.1,2.8-0.4,4.2c-0.2,1.1-0.2,2.2-0.2,3.3c-0.5,0.4-1.1,0.6-1.8,0.6
	c-0.3,0-0.6-0.1-0.9-0.1c-0.2,0-0.3-0.1-0.4-0.3c0-0.1,0-0.2,0-0.4c0-0.1,0-0.2,0-0.3l0,0c0-0.6,0-1.3,0-1.9c0-0.1,0-0.1-0.1-0.1
	c0,0-0.1,0-0.1,0h-0.2c-0.3,0-0.6,0-1,0c-0.4,0-0.7-0.2-1-0.5C205.9,79.9,205.8,79.3,205.9,78.8z"/>
<path class="st5" d="M207.2,74.7c-0.2,0-0.4,0.1-0.6,0c-0.2-0.2-0.4-0.4-0.5-0.6c-0.4-0.5-0.5-1.1-0.5-1.7c0-0.3,0.1-0.5,0.3-0.7
	c0.2-0.2,0.4-0.4,0.6-0.5c0.5-0.2,1-0.3,1.5-0.3c0.7,0.1,1.4,0.4,2,0.9c0.1,0.1,0.3,0.2,0.4,0.3c0.1,0,0.3,0,0.4,0
	c0.9-0.1,1.9,0.2,2.6,0.8c0.4,0.4,0.7,0.8,1.2,1.2c0.4,0.3,0.9,0.4,1.1,0.9c0.2,0.4,0.1,0.9-0.1,1.2c-0.3,0.3-0.7,0.5-1.1,0.6
	c0.2,0.5-0.1,1.1-0.6,1.3c0,0,0,0,0,0c-0.2,0-0.3,0.1-0.5,0.2c-0.1,0.1-0.1,0.2-0.3,0.3c-0.2,0.2-0.6,0.3-0.7,0.6c0,0.1,0,0.3,0,0.4
	c0,0.2-0.1,0.4-0.3,0.6c-0.1,0.1-0.3,0.4-0.4,0.4s-0.3-0.1-0.3-0.3c-0.2-0.6-0.1-1.3,0.1-1.9c0.2-0.3,0.3-0.6,0.3-1
	c0-0.3-0.5-0.6-0.7-0.4c-0.3,0.2-0.3,0.7-0.5,0.6c0.3-1-0.1-2.1-1-2.6c-0.5-0.2-1-0.2-1.6-0.2C207.7,74.8,207.5,74.7,207.2,74.7
	L207.2,74.7z"/>
<path class="st17" d="M208.2,80.8c0.7-0.1,1.5-0.4,2.2-0.6c0.1,1.2-0.6,2.4-1.8,2.7l0,0c0.1-0.6,0.1-1.3,0-1.9c0-0.1,0-0.1-0.1-0.1
	c0,0-0.1,0-0.1,0L208.2,80.8L208.2,80.8z"/>
<path class="st15" d="M184.8,86.2c0.2,0.3,0.3,0.7,0.2,1.1c-0.1,0.4-0.3,0.7-0.6,1l-1.2,1.7c-0.3,0.4-0.7,1-1.3,0.9
	c-1.3-0.1-1.9-3.4-1.4-4.4C181.1,85.4,183.9,85.1,184.8,86.2z"/>
<path class="st6" d="M190.8,116v36.2h-36.2v-14c0,0,2-3.5,5.5-1.3c1.6,1.6,4.2,1.7,5.8,0.1c1.6-1.6,1.7-4.2,0.1-5.8
	c-1.6-1.6-4.2-1.7-5.8-0.1c0,0-0.1,0.1-0.1,0.1c0,0-3.6,2.7-5.5-1.3v-14h14c4-1.8,1.3-5.5,1.3-5.5c-1.6-1.6-1.7-4.2-0.1-5.8
	c1.6-1.6,4.2-1.7,5.8-0.1c1.6,1.6,1.7,4.2,0.1,5.8c0,0-0.1,0.1-0.1,0.1c-2.2,3.4,1.3,5.5,1.3,5.5H190.8z"/>
<linearGradient id="SVGID_11_" gradientUnits="userSpaceOnUse" x1="103.406" y1="128.9048" x2="277.9061" y2="6.5673" gradientTransform="matrix(1.0174 0 0 -1.0174 -4.6886 214.2789)">
	<stop  offset="1.000000e-02" style="stop-color:#000000"/>
	<stop  offset="8.000000e-02" style="stop-color:#000000;stop-opacity:0.69"/>
	<stop  offset="0.21" style="stop-color:#000000;stop-opacity:0.32"/>
	<stop  offset="1" style="stop-color:#000000;stop-opacity:0"/>
</linearGradient>
<path class="st18" d="M190.8,116v36.2h-36.2v-14c0,0,2-3.5,5.5-1.3c1.6,1.6,4.2,1.7,5.8,0.1c1.6-1.6,1.7-4.2,0.1-5.8
	c-1.6-1.6-4.2-1.7-5.8-0.1c0,0-0.1,0.1-0.1,0.1c0,0-3.6,2.7-5.5-1.3v-14h14c4-1.8,1.3-5.5,1.3-5.5c-1.6-1.6-1.7-4.2-0.1-5.8
	c1.6-1.6,4.2-1.7,5.8-0.1c1.6,1.6,1.7,4.2,0.1,5.8c0,0-0.1,0.1-0.1,0.1c-2.2,3.4,1.3,5.5,1.3,5.5H190.8z"/>
<path class="st6" d="M131,97.9c0,2.3-1.9,4.1-4.1,4.1c-1.1,0-2.2-0.5-3-1.3c-3.4-2.2-5.5,1.3-5.5,1.3v14h36.2V79.8h-36.2v14
	c1.8,4,5.5,1.3,5.5,1.3c1.6-1.6,4.2-1.7,5.8-0.1C130.5,95.7,131,96.8,131,97.9L131,97.9z"/>
<path class="st6" d="M133.7,121.5c-1.6,1.6-1.7,4.2-0.1,5.8c1.6,1.6,4.2,1.7,5.8,0.1c1.6-1.6,1.7-4.2,0.1-5.8c0,0-0.1-0.1-0.1-0.1
	c0,0-2.7-3.6,1.3-5.5h-8.2C132.4,116,135.9,118.1,133.7,121.5z"/>
<linearGradient id="SVGID_12_" gradientUnits="userSpaceOnUse" x1="125.3107" y1="41.9115" x2="158.2257" y2="218.8965" gradientTransform="matrix(1.0174 0 0 -1.0174 -4.6886 214.2789)">
	<stop  offset="1.000000e-02" style="stop-color:#000000"/>
	<stop  offset="8.000000e-02" style="stop-color:#000000;stop-opacity:0.69"/>
	<stop  offset="0.21" style="stop-color:#000000;stop-opacity:0.32"/>
	<stop  offset="1" style="stop-color:#000000;stop-opacity:0"/>
</linearGradient>
<path class="st19" d="M118.4,79.8v14c1.8,4,5.5,1.3,5.5,1.3c1.6-1.6,4.2-1.7,5.8-0.1s1.7,4.2,0.1,5.8c-1.6,1.6-4.2,1.7-5.8,0.1
	c0,0-0.1-0.1-0.1-0.1c-3.4-2.2-5.5,1.3-5.5,1.3v14h14c0,0,3.5,2,1.3,5.5c-1.6,1.6-1.7,4.2-0.1,5.8c1.6,1.6,4.2,1.7,5.8,0.1
	c1.6-1.6,1.7-4.2,0.1-5.8c0,0-0.1-0.1-0.1-0.1c0,0-2.7-3.6,1.3-5.5h14V79.8H118.4z"/>
<path class="st6" d="M118.4,116v36.2h36.2v-14c0,0,2-3.5,5.5-1.3c1.6,1.6,4.2,1.7,5.8,0.1c1.6-1.6,1.7-4.2,0.1-5.8
	c-1.6-1.6-4.2-1.7-5.8-0.1c0,0-0.1,0.1-0.1,0.1c0,0-3.6,2.7-5.5-1.3v-14h-14c-4,1.8-1.3,5.5-1.3,5.5c1.6,1.6,1.7,4.2,0.1,5.8
	c-1.6,1.6-4.2,1.7-5.8,0.1c-1.6-1.6-1.7-4.2-0.1-5.8c0,0,0.1-0.1,0.1-0.1c2.2-3.4-1.3-5.5-1.3-5.5H118.4z"/>
<path class="st6" d="M82.3,152.2v-14c1.8-4,5.5-1.3,5.5-1.3c1.6,1.6,4.2,1.7,5.8,0.1c1.6-1.6,1.7-4.2,0.1-5.8s-4.2-1.7-5.8-0.1
	c0,0-0.1,0.1-0.1,0.1c-3.4,2.2-5.5-1.3-5.5-1.3v-14h14c0,0,3.5-2,1.3-5.5c-1.6-1.6-1.7-4.2-0.1-5.8c1.6-1.6,4.2-1.7,5.8-0.1
	c1.6,1.6,1.7,4.2,0.1,5.8c0,0-0.1,0.1-0.1,0.1c0,0-2.7,3.6,1.3,5.5h14v36.2H82.3z"/>
<linearGradient id="SVGID_13_" gradientUnits="userSpaceOnUse" x1="105.1894" y1="162.94" x2="100.2194" y2="-55.6576" gradientTransform="matrix(1.0174 0 0 -1.0174 -4.6886 214.2789)">
	<stop  offset="1.000000e-02" style="stop-color:#000000"/>
	<stop  offset="8.000000e-02" style="stop-color:#000000;stop-opacity:0.69"/>
	<stop  offset="0.21" style="stop-color:#000000;stop-opacity:0.32"/>
	<stop  offset="1" style="stop-color:#000000;stop-opacity:0"/>
</linearGradient>
<path class="st20" d="M82.3,152.2v-14c1.8-4,5.5-1.3,5.5-1.3c1.6,1.6,4.2,1.7,5.8,0.1c1.6-1.6,1.7-4.2,0.1-5.8s-4.2-1.7-5.8-0.1
	c0,0-0.1,0.1-0.1,0.1c-3.4,2.2-5.5-1.3-5.5-1.3v-14h14c0,0,3.5-2,1.3-5.5c-1.6-1.6-1.7-4.2-0.1-5.8c1.6-1.6,4.2-1.7,5.8-0.1
	c1.6,1.6,1.7,4.2,0.1,5.8c0,0-0.1,0.1-0.1,0.1c0,0-2.7,3.6,1.3,5.5h14v36.2H82.3z"/>
<path class="st6" d="M131,97.9c0,2.3-1.9,4.1-4.1,4.1c-1.1,0-2.2-0.5-3-1.3c0,0-3.6-2.7-5.5,1.3v14h-14c-4-1.8-1.3-5.5-1.3-5.5
	c1.6-1.6,1.7-4.2,0.1-5.8s-4.2-1.7-5.8-0.1c-1.6,1.6-1.7,4.2-0.1,5.8c0,0,0.1,0.1,0.1,0.1c2.2,3.4-1.3,5.5-1.3,5.5h-14V79.8h13.9
	c4,1.8,1.3,5.5,1.3,5.5c-1.6,1.6-1.7,4.2-0.1,5.8c1.6,1.6,4.2,1.7,5.8,0.1c1.6-1.6,1.7-4.2,0.1-5.8c0,0-0.1-0.1-0.1-0.1
	c-2.2-3.4,1.3-5.5,1.3-5.5h14.1v14c0,0,2,3.5,5.5,1.3c1.6-1.6,4.2-1.7,5.8-0.1C130.6,95.7,131,96.8,131,97.9L131,97.9z"/>
<path class="st6" d="M139.9,167.5c0,2.3-1.8,4.1-4,4.2c-1.1,0-2.2-0.4-3-1.2c0,0-3.7-2.7-5.4,1.3l0.2,14l-14,0.2
	c-4-1.8-1.4-5.4-1.4-5.4c1.6-1.6,1.6-4.2,0-5.8c-1.6-1.6-4.2-1.6-5.8,0c-1.6,1.6-1.6,4.2,0,5.8c0,0,0.1,0.1,0.1,0.1
	c2.3,3.4-1.2,5.5-1.2,5.5l-14,0.2l-0.5-36.2l13.9-0.2c4,1.8,1.4,5.4,1.4,5.4c-1.6,1.6-1.6,4.2,0,5.8c1.6,1.6,4.2,1.6,5.8,0
	c1.6-1.6,1.6-4.2,0-5.8c0,0-0.1-0.1-0.1-0.1c-2.3-3.4,1.2-5.5,1.2-5.5l14.1-0.2l0.2,14c0,0,2.1,3.5,5.5,1.2c0.8-0.8,1.9-1.3,3-1.3
	C138,163.4,139.8,165.2,139.9,167.5z"/>
<linearGradient id="SVGID_14_" gradientUnits="userSpaceOnUse" x1="85.2873" y1="70.7276" x2="149.669" y2="0.7585" gradientTransform="matrix(1.0174 0 0 -1.0174 -4.6886 214.2789)">
	<stop  offset="1.000000e-02" style="stop-color:#000000"/>
	<stop  offset="8.000000e-02" style="stop-color:#000000;stop-opacity:0.69"/>
	<stop  offset="0.21" style="stop-color:#000000;stop-opacity:0.32"/>
	<stop  offset="1" style="stop-color:#000000;stop-opacity:0"/>
</linearGradient>
<path class="st21" d="M95.9,150.2c-0.5,0.6-0.9,1.8-0.1,2.3c0.3,0.2,0.6,0.2,0.9,0.3l4.2,0.5c-0.1,0,2.1,24.9,3,30.2
	c0.1,0.6,0.4,1.4,1,1.5c0.4,0,0.7-0.2,0.9-0.6c0.6-1,1-2.1,1-3.2c1.1-8.1,1.6-16.3,1.5-24.6c0-1.6-0.1-3.3-0.9-4.7
	c-1-1.6-2.6-2.6-4.4-2.9C100.7,148.5,97.7,148.3,95.9,150.2z"/>
<path class="st22" d="M106.1,202L106.1,202c0.2,0.6,0.7,0.7,1.2,0.8c0.5,0,0.9,0.1,1.4,0.1c0.2,0,0.4,0,0.6-0.1
	c0.2-0.1,0.4-0.2,0.5-0.3l1.3-1c0.4-0.3,0.7-0.5,1-0.9c0.3-0.3,0.4-0.8,0.4-1.2c0-0.5-0.3-0.8-0.8-1c-0.3,0-0.5,0-0.8,0
	c-0.6,0.1-1.2-0.2-1.6-0.7c-0.1-0.2-0.2-0.5-0.4-0.6c-0.2-0.1-0.4-0.1-0.6-0.1c-0.5,0-0.9,0.1-1.3,0.3c-0.4,0.2-0.8,0.5-0.9,0.9
	c0,0.2-0.1,0.4-0.1,0.6c0,0.4,0,0.9,0,1.3c-0.1,0.5-0.1,1.1-0.1,1.6C106.1,201.7,106.1,201.9,106.1,202z"/>
<path class="st22" d="M118.8,202.2c-0.9,0.4-1.8,0.7-2.7,1c-0.4,0.2-0.8,0.2-1.2,0.1c-0.3-0.1-0.5-0.4-0.6-0.7
	c-0.1-0.3-0.1-0.7-0.1-1c0.1-0.5,0.2-1,0.3-1.5c0.1-0.5,0.1-0.9,0.2-1.4c0.1-0.7,0.2-1.4,0.3-2l2.4,0.5c0.2,0.1,0.5,1,0.6,1.2
	c0.2,0.3,0.6,0.5,0.9,0.5c0.4-0.1,0.8-0.1,1.2-0.1c0.5,0.1,0.9,0.6,0.9,1.2c0,0.5-0.2,1.1-0.6,1.4c-0.4,0.4-0.9,0.6-1.3,0.9
	L118.8,202.2z"/>
<path class="st6" d="M118.9,199.5c-0.6,0.4-1.3,0.7-1.9,0.9h-0.1c-1.1,0.4-2.3-1.3-2.3-1.3s-1.5-9.5-1.5-13.5
	c0.1-2.7-0.6-6.6-1.6-13.6c-0.2,7.2-1.5,10.3-1.1,12.9c0.5,3.9-0.1,13.6-0.1,13.6s-1,1.9-2.2,1.6H108c-0.7-0.2-1.3-0.4-2-0.6
	c0,0-1.3-13.3-1.3-16.8s0.1-6.7,0.1-6.7l-0.7-11.1l2.9-4.3l0.2-0.1l0.2-0.2l3.3-2.4c0,0,0,0.6-0.1,1.5l2.5,1.4l0.2,0.2l0.2,0.1
	l4.2,0.7c0,0,1.1,17.1,1.5,20.6S118.9,199.5,118.9,199.5z"/>
<linearGradient id="SVGID_15_" gradientUnits="userSpaceOnUse" x1="99.1113" y1="54.8687" x2="135.9743" y2="3.2649" gradientTransform="matrix(1.0174 0 0 -1.0174 -4.6886 214.2789)">
	<stop  offset="1.000000e-02" style="stop-color:#000000"/>
	<stop  offset="8.000000e-02" style="stop-color:#000000;stop-opacity:0.69"/>
	<stop  offset="0.21" style="stop-color:#000000;stop-opacity:0.32"/>
	<stop  offset="1" style="stop-color:#000000;stop-opacity:0"/>
</linearGradient>
<path class="st23" d="M118.9,199.5c-0.6,0.4-1.3,0.7-1.9,0.9h-0.1c-1.1,0.4-2.3-1.3-2.3-1.3s-1.5-9.5-1.5-13.5
	c0.1-2.7-0.6-6.6-1.6-13.6c-0.2,7.2-1.5,10.3-1.1,12.9c0.5,3.9-0.1,13.6-0.1,13.6s-1,1.9-2.2,1.6H108c-0.7-0.2-1.3-0.4-2-0.6
	c0,0-1.3-13.3-1.3-16.8s0.1-6.7,0.1-6.7l-0.7-11.1l2.9-4.3l0.2-0.1l0.2-0.2l3.3-2.4c0,0,0,0.6-0.1,1.5l2.5,1.4l0.2,0.2l0.2,0.1
	l4.2,0.7c0,0,1.1,17.1,1.5,20.6S118.9,199.5,118.9,199.5z"/>
<path class="st24" d="M138.8,140c0.1,0,0.1-0.1,0.2-0.1c0.2,0,0.2,0.3,0.1,0.4c-0.2,0.5-0.4,0.9-0.7,1.3c-0.1,0.1-0.1,0.2-0.2,0.4
	c0,0.1,0.1,0.2,0.2,0.3c0.6,0.6,0.8,1.5,0.6,2.4c-0.2,0.8-0.6,1.6-1.2,2.2c-0.3,0.4-0.7,0.6-1.2,0.7c-0.8,0-1.8-1-2.1-1.7
	c-0.2-0.7-0.1-1.5,0.4-2C135.8,142.2,137.2,140.9,138.8,140z"/>
<path class="st24" d="M115.4,132.2c0.3,0.3,0.7,0.5,0.6,0.9c-0.1,0.2-0.3,0.3-0.4,0.4c-0.4,0.4-0.6,0.9-0.6,1.5
	c0,0.5-0.1,1.1-0.2,1.6c-0.2,0.5-0.7,0.8-1.3,0.7c-0.3-0.1-0.6-0.4-0.9-0.2c-0.3,0.1-0.3,0.4-0.4,0.6c-0.3,0.5-0.9,0.8-1.6,0.7
	c-0.6-0.1-1.2-0.3-1.7-0.6c-0.2-0.1-0.4-0.2-0.6-0.4c-0.1-0.2-0.1-0.4-0.1-0.6c0.2-0.6,0.5-1.2,0.9-1.7c0.6-1,1-2.1,1.1-3.3
	c0.1-0.8,0-1.7,0.5-2.4c0.7-0.9,2.4-0.9,3.3-0.2C115,129.8,114.5,131.3,115.4,132.2z"/>
<path class="st25" d="M114.3,128.4c-0.1,0.2-0.3,0.4-0.5,0.5c-0.4,0.2-0.7,0.5-1.1,0.7c-0.4,0.2-0.6,0.6-0.7,1
	c-0.2,0.7,0.3,1.6,0,2.4c-0.1,0.2-0.3,0.1-0.4-0.1c-0.1-0.1-0.2-0.3-0.3-0.4c-0.3-0.1-0.6,0.1-0.7,0.4c-0.2,0.7,0.1,1.4,0.7,1.7
	c0,0.2-0.3,0.3-0.6,0.3c-0.2-0.1-0.5-0.1-0.7-0.1c-0.6,0.1-0.7,0.9-1.3,1c-0.4,0-0.7-0.2-1-0.6l-0.7-0.7c-0.1-0.1-0.2-0.3-0.4-0.4
	c-0.2-0.1-0.4-0.1-0.5-0.3c-0.1-0.1,0-0.5-0.1-0.7c-0.1-0.1-0.1-0.1-0.2-0.1c-0.4-0.2-0.6-0.7-0.5-1.1c0-0.1,0-0.1,0-0.2
	c0-0.1-0.1-0.1-0.2-0.1c-0.4-0.3-0.6-0.8-0.4-1.3c0.1-0.3,0.3-0.5,0.5-0.7c0.1-0.2,0.4-0.3,0.7-0.3l0.1-1c0-0.6,0.5-1.1,1.1-1.1
	c0.1,0,0.1,0,0.2,0l-0.2-0.8c0-0.1,0-0.2,0-0.3c0.1-0.1,0.1-0.1,0.2-0.1c0.3-0.1,0.5-0.1,0.8-0.1c-0.1-0.2-0.2-0.5-0.2-0.7
	c0-0.1,0-0.2,0.1-0.3c0,0,0.1,0,0.2,0c0.1,0,0.2,0,0.3,0c0,0-0.1-0.7-0.2-0.7c0-0.2,0-0.4,0.1-0.6c0.2-0.2,0.4-0.3,0.7-0.2
	c0.2,0,0.5,0.1,0.7,0.3c0-0.3,0.3-0.4,0.6-0.4c1-0.1,2,0.4,2.6,1.2c0,0.1,0.1,0.1,0.2,0.2c0.1,0.1,0.3,0.1,0.4,0.2
	c0.4,0.2,0.8,0.6,0.9,1c0.1,0.4,0.2,0.9,0.1,1.4c0,0.4,0,0.7-0.1,1C114.4,128.2,114.3,128.3,114.3,128.4z"/>
<path class="st14" d="M110.6,136.9c0.6,0.3,1.2,0.6,1.8,0.9c0.2,0.1,0.3,0.2,0.5,0.4c0.1,0.2,0.2,0.4,0.1,0.6
	c-0.2,0.3-0.5,0.2-0.8,0.1c-1.3-0.4-2.7-0.6-4.1-0.6c-0.2,0-0.4,0-0.5-0.2c-0.1-0.2,0-0.4,0.1-0.6
	C108.3,136.2,109.4,136.4,110.6,136.9z"/>
<path class="st14" d="M136.2,147.9c-0.3,0.7-0.7,1.3-1.2,1.8c-0.5,0.5-1,1.1-1.5,1.6c-1.2,1.2-2.5,2.3-3.9,3.3
	c-0.9,0.8-2,1.4-3.2,1.7c-0.5,0.1-1,0.1-1.5-0.1c-0.4-0.2-0.7-0.4-1-0.7c-0.3-0.3-4.3-4.9-4.4-4.9c-0.2,0.1-0.4,0.3-0.5,0.6
	c-0.6,1.2-0.9,2.5-1.1,3.8c0,0.6,0,1.2,0,1.8c0.2,2,0.9,4.1,0.2,6c-0.1,0.4-0.4,0.8-0.7,1.1c-0.3,0.3-0.6,0.5-1,0.6
	c-0.6,0.3-1.3,0.5-2,0.6c-0.4,0.1-0.8,0.1-1.2,0.1c-1.5,0.1-2.9-0.2-4.4-0.2c-1.2,0.1-2.5,0.4-3.7,0.3c-0.7,0.1-1.3-0.3-1.5-1
	c0-0.1,0-0.1,0-0.2c-0.5-2.7-0.7-5.4-0.7-8.1c0-0.9-0.1-1.9-0.1-2.8c-0.1-0.8,0.2-2.8-0.7-3c-2.3-0.4-4.7,0.1-7.1-0.2
	c0.1-1.5,0.7-3,1.8-4c0.5-0.5,1.1-0.9,1.8-1.2c0.7-0.5,1.4-1.1,1.9-1.8c1.6-2,3.6-3.5,5.9-4.6c0.4-0.2,0.7-0.3,1.1-0.4h0.1
	c0.1,0,0.1,0,0.2,0c0.5,0,1,0,1.5,0.1c3.3,0.6,6.6,1.3,9.9,2.2c0.4,0.1,0.8,0.3,1.2,0.5c0.3,0.2,0.5,0.5,0.6,0.8
	c0.9,1.4,1.8,2.8,2.7,4.1c0.8,1.2,1.6,2.7,2.7,3.5c2.5-1,4.9-2.4,7.1-4c0.3-0.2,0.7-0.5,1.1-0.3c0.1,0.1,0.2,0.1,0.3,0.2
	C135.8,145.8,136.6,146.7,136.2,147.9z"/>
</svg>
